<?xml version="1.0" encoding="UTF-8" standalone="no"?>
<!-- Created with Inkscape (http://www.inkscape.org/) -->

<svg
   version="1.1"
   id="svg824"
   xml:space="preserve"
   width="276.07416"
   height="164.70204"
   viewBox="0 0 276.07416 164.70204"
   sodipodi:docname="afpcrouge.svg"
   inkscape:version="1.1 (c4e8f9e, 2021-05-24)"
   inkscape:export-filename="/Users/marie/Documents/websites/website-afpc/jekyll-src/assets/img/ms-icon-310x310.png"
   inkscape:export-xdpi="107.43682"
   inkscape:export-ydpi="107.43682"
   xmlns:inkscape="http://www.inkscape.org/namespaces/inkscape"
   xmlns:sodipodi="http://sodipodi.sourceforge.net/DTD/sodipodi-0.dtd"
   xmlns="http://www.w3.org/2000/svg"
   xmlns:svg="http://www.w3.org/2000/svg"><defs
     id="defs828"><filter
       style="color-interpolation-filters:sRGB"
       inkscape:label="Drop Shadow"
       id="filter1706"
       x="-0.16092305"
       y="-0.25851926"
       width="1.3589852"
       height="1.4685628"><feFlood
         flood-opacity="0.498039"
         flood-color="rgb(0,0,0)"
         result="flood"
         id="feFlood1696" /><feComposite
         in="flood"
         in2="SourceGraphic"
         operator="in"
         result="composite1"
         id="feComposite1698" /><feGaussianBlur
         in="composite1"
         stdDeviation="5.40541"
         result="blur"
         id="feGaussianBlur1700" /><feOffset
         dx="2.99401"
         dy="-2.99401"
         result="offset"
         id="feOffset1702" /><feComposite
         in="offset"
         in2="offset"
         operator="atop"
         result="fbSourceGraphic"
         id="feComposite1704" /><feColorMatrix
         result="fbSourceGraphicAlpha"
         in="fbSourceGraphic"
         values="0 0 0 -1 0 0 0 0 -1 0 0 0 0 -1 0 0 0 0 1 0"
         id="feColorMatrix1726" /><feFlood
         id="feFlood1728"
         flood-opacity="0.498039"
         flood-color="rgb(0,0,0)"
         result="flood"
         in="fbSourceGraphic" /><feComposite
         in2="fbSourceGraphic"
         id="feComposite1730"
         in="flood"
         operator="in"
         result="composite1" /><feGaussianBlur
         id="feGaussianBlur1732"
         in="composite1"
         stdDeviation="5.40541"
         result="blur" /><feOffset
         id="feOffset1734"
         dx="2.99401"
         dy="-2.99401"
         result="offset" /><feComposite
         in2="offset"
         id="feComposite1736"
         in="offset"
         operator="atop"
         result="composite2" /></filter></defs><sodipodi:namedview
     id="namedview826"
     pagecolor="#ffffff"
     bordercolor="#666666"
     borderopacity="1.0"
     inkscape:pageshadow="2"
     inkscape:pageopacity="0.0"
     inkscape:pagecheckerboard="false"
     showgrid="false"
     fit-margin-top="0"
     fit-margin-left="0"
     fit-margin-right="0"
     fit-margin-bottom="0"
     inkscape:zoom="0.89230324"
     inkscape:cx="205.08723"
     inkscape:cy="24.094948"
     inkscape:window-width="1440"
     inkscape:window-height="847"
     inkscape:window-x="0"
     inkscape:window-y="25"
     inkscape:window-maximized="1"
     inkscape:current-layer="g830" /><g
     id="g830"
     inkscape:groupmode="layer"
     inkscape:label="afpcrouge"
     transform="matrix(1.3333333,0,0,-1.3333333,-66.79625,931.48062)"><g
       id="g936"
       transform="translate(0.34718889,-42.111739)"><path
         d="m 165.75,736.25 c -6.5,-9 6.75,-32.5 31.5,-49.75 24.75,-17.25 52.75,-22.25 58,-13.25 6.25,11 -6.75,32.75 -31.5,50.25 -24.75,17 -52,21.75 -58,12.75"
         style="fill:#d9d9d9;fill-opacity:1;fill-rule:nonzero;stroke:none"
         id="path832" /><path
         d="m 101.25,639.25 c 9.75,-5.25 31.5,10.5 46,36.75 14.75,26.5 17.25,54.75 7.5,59.5 -11.5,5 -31.75,-10.5 -46,-37 -15,-26.25 -16.75,-53.75 -7.5,-59.25"
         style="fill:#d9d9d9;fill-opacity:1;fill-rule:nonzero;stroke:none"
         id="path834" /><path
         d="m 123.75,630.5 c 2.75,-10.5 28.5,-17.25 58,-10.75 29.75,6.25 52.5,23.5 49.5,33.25 -3.75,12.5 -28.5,17.25 -58,11.25 C 144,658 122,641 123.75,630.5"
         style="fill:#d9d9d9;fill-opacity:1;fill-rule:nonzero;stroke:none"
         id="path836" /></g><g
       id="g931"
       transform="translate(0.34718889,-42.111739)"><path
         d="m 80.25,673 v -19.5 c -1.5,-0.5 -3,-0.5 -4.25,-0.5 -7.5,0 -13.75,2.25 -18.75,7.25 -5,5.25 -7.5,11.25 -7.5,19 0,7.25 2.5,13.25 7.5,18.5 5,4.75 11.25,7.5 18.5,7.5 8,0 14.25,-2.25 18.75,-7.25 5,-4.75 7.25,-11.25 7.25,-19.5 V 654.25 H 83 v 23.25 c 0,2.5 -0.75,4.75 -2,6 -1.5,1.75 -2.75,2.5 -5,2.5 -2,0 -3.75,-0.75 -5,-2.25 -1.5,-1.5 -2.25,-3 -2.25,-5.25 0,-1.75 0.75,-3.75 2,-4.75 1.25,-1.5 3,-2.25 5,-2.25 1.5,0 3,0.25 4.5,1.5"
         style="fill:#a80000;fill-opacity:1;fill-rule:nonzero;stroke:none"
         id="path838" /><path
         d="m 139.75,693.25 v -20 h -8.5 v -19 H 112.5 v 42.25 c 0,5 0.75,9 2.75,12.5 1.75,4.5 5.25,7.5 9.25,10.5 4.5,2.5 8.75,4 13.5,4 h 1.75 v -19.75 c -0.25,0 -0.75,0 -1,0 -2.25,0 -4.25,-0.75 -5.25,-2.25 -1.5,-1.5 -2.25,-3.75 -2.25,-6.5 v -1.75 h 8.5"
         style="fill:#a80000;fill-opacity:1;fill-rule:nonzero;stroke:none"
         id="path840" /><path
         d="M 165.75,635.5 H 147 v 42 c 0,7.75 1.75,13.75 6,18.75 2.25,2.5 5.25,4.75 8.5,6.75 3.75,1.5 7.25,2.25 11,2.25 7.5,0 13.75,-2.75 19,-7.5 5,-5.25 7.5,-11.25 7.5,-18.5 0,-7 -2.5,-13.5 -7.5,-18.25 -5.25,-5.25 -11.25,-8 -18.25,-8 -0.75,0 -2.75,0 -5,0 v 21 c 1.5,-1 3.5,-1.75 5,-1.75 1.5,0 3.25,0.75 4.75,2.25 1.25,1.5 2,3 2,5.25 0,1.5 -0.75,3.25 -2,4.75 -1.5,1.5 -3.25,2 -5.25,2 -4.75,0 -7,-3 -7,-9.75 V 635.5"
         style="fill:#a80000;fill-opacity:1;fill-rule:nonzero;stroke:none"
         id="path842" /><path
         d="m 238,677 18.75,0.75 c -0.5,-7 -3.25,-13 -8,-18 -5,-4.5 -10.75,-6.75 -17.75,-6.75 -7.5,0 -13.5,2.75 -18.75,7.5 -5,5.25 -7.5,11.75 -7.5,19.25 0,6.75 2.5,12.75 7.5,18 5.25,4.75 11.5,7.5 18.5,7.5 6.25,0 11.75,-2 16.5,-6 5,-3.75 7.75,-9 9,-15 l -19,-0.75 c -1.5,2.25 -3.75,3 -6.25,3 -2,0 -3.75,-0.5 -5.25,-2 -1.25,-1.5 -2,-3.25 -2,-5.25 0,-2.25 0.75,-4 2.25,-5.25 1.5,-1.75 3.25,-2.5 5.5,-2.5 3,0 5.25,1.75 6.5,5.5"
         style="fill:#a80000;fill-opacity:1;fill-rule:nonzero;stroke:none"
         id="path844" /></g></g></svg>
