<?xml version="1.0" encoding="UTF-8" standalone="no"?>
<!-- Created with Inkscape (http://www.inkscape.org/) -->

<svg
   version="1.1"
   id="svg824"
   xml:space="preserve"
   width="276.07498"
   height="218.5267"
   viewBox="0 0 276.07498 218.5267"
   sodipodi:docname="afpc.svg"
   inkscape:version="1.1 (c4e8f9e, 2021-05-24)"
   xmlns:inkscape="http://www.inkscape.org/namespaces/inkscape"
   xmlns:sodipodi="http://sodipodi.sourceforge.net/DTD/sodipodi-0.dtd"
   xmlns="http://www.w3.org/2000/svg"
   xmlns:svg="http://www.w3.org/2000/svg"><defs
     id="defs828"><filter
       style="color-interpolation-filters:sRGB;"
       inkscape:label="Drop Shadow"
       id="filter1706"
       x="-0.16092305"
       y="-0.25851925"
       width="1.3589852"
       height="1.4685629"><feFlood
         flood-opacity="0.498039"
         flood-color="rgb(0,0,0)"
         result="flood"
         id="feFlood1696" /><feComposite
         in="flood"
         in2="SourceGraphic"
         operator="in"
         result="composite1"
         id="feComposite1698" /><feGaussianBlur
         in="composite1"
         stdDeviation="5.40541"
         result="blur"
         id="feGaussianBlur1700" /><feOffset
         dx="2.99401"
         dy="-2.99401"
         result="offset"
         id="feOffset1702" /><feComposite
         in="offset"
         in2="offset"
         operator="atop"
         result="fbSourceGraphic"
         id="feComposite1704" /><feColorMatrix
         result="fbSourceGraphicAlpha"
         in="fbSourceGraphic"
         values="0 0 0 -1 0 0 0 0 -1 0 0 0 0 -1 0 0 0 0 1 0"
         id="feColorMatrix1726" /><feFlood
         id="feFlood1728"
         flood-opacity="0.498039"
         flood-color="rgb(0,0,0)"
         result="flood"
         in="fbSourceGraphic" /><feComposite
         in2="fbSourceGraphic"
         id="feComposite1730"
         in="flood"
         operator="in"
         result="composite1" /><feGaussianBlur
         id="feGaussianBlur1732"
         in="composite1"
         stdDeviation="5.40541"
         result="blur" /><feOffset
         id="feOffset1734"
         dx="2.99401"
         dy="-2.99401"
         result="offset" /><feComposite
         in2="offset"
         id="feComposite1736"
         in="offset"
         operator="atop"
         result="composite2" /></filter></defs><sodipodi:namedview
     id="namedview826"
     pagecolor="#ffffff"
     bordercolor="#666666"
     borderopacity="1.0"
     inkscape:pageshadow="2"
     inkscape:pageopacity="0.0"
     inkscape:pagecheckerboard="0"
     showgrid="false"
     fit-margin-top="0"
     fit-margin-left="0"
     fit-margin-right="0"
     fit-margin-bottom="0"
     inkscape:zoom="1.1324255"
     inkscape:cx="-189.41643"
     inkscape:cy="201.77928"
     inkscape:window-width="1440"
     inkscape:window-height="847"
     inkscape:window-x="0"
     inkscape:window-y="25"
     inkscape:window-maximized="1"
     inkscape:current-layer="g830" /><g
     id="g830"
     inkscape:groupmode="layer"
     inkscape:label="afpcrouge"
     transform="matrix(1.3333333,0,0,-1.3333333,-66.332927,987.6296)"><g
       id="g936"><path
         d="m 165.75,736.25 c -6.5,-9 6.75,-32.5 31.5,-49.75 24.75,-17.25 52.75,-22.25 58,-13.25 6.25,11 -6.75,32.75 -31.5,50.25 -24.75,17 -52,21.75 -58,12.75"
         style="fill:#d9d9d9;fill-opacity:1;fill-rule:nonzero;stroke:none"
         id="path832" /><path
         d="m 101.25,639.25 c 9.75,-5.25 31.5,10.5 46,36.75 14.75,26.5 17.25,54.75 7.5,59.5 -11.5,5 -31.75,-10.5 -46,-37 -15,-26.25 -16.75,-53.75 -7.5,-59.25"
         style="fill:#d9d9d9;fill-opacity:1;fill-rule:nonzero;stroke:none"
         id="path834" /><path
         d="m 123.75,630.5 c 2.75,-10.5 28.5,-17.25 58,-10.75 29.75,6.25 52.5,23.5 49.5,33.25 -3.75,12.5 -28.5,17.25 -58,11.25 C 144,658 122,641 123.75,630.5"
         style="fill:#d9d9d9;fill-opacity:1;fill-rule:nonzero;stroke:none"
         id="path836" /></g><g
       id="g931"><path
         d="m 80.25,673 v -19.5 c -1.5,-0.5 -3,-0.5 -4.25,-0.5 -7.5,0 -13.75,2.25 -18.75,7.25 -5,5.25 -7.5,11.25 -7.5,19 0,7.25 2.5,13.25 7.5,18.5 5,4.75 11.25,7.5 18.5,7.5 8,0 14.25,-2.25 18.75,-7.25 5,-4.75 7.25,-11.25 7.25,-19.5 V 654.25 H 83 v 23.25 c 0,2.5 -0.75,4.75 -2,6 -1.5,1.75 -2.75,2.5 -5,2.5 -2,0 -3.75,-0.75 -5,-2.25 -1.5,-1.5 -2.25,-3 -2.25,-5.25 0,-1.75 0.75,-3.75 2,-4.75 1.25,-1.5 3,-2.25 5,-2.25 1.5,0 3,0.25 4.5,1.5"
         style="fill:#a80000;fill-opacity:1;fill-rule:nonzero;stroke:none"
         id="path838" /><path
         d="m 139.75,693.25 v -20 h -8.5 v -19 H 112.5 v 42.25 c 0,5 0.75,9 2.75,12.5 1.75,4.5 5.25,7.5 9.25,10.5 4.5,2.5 8.75,4 13.5,4 h 1.75 v -19.75 c -0.25,0 -0.75,0 -1,0 -2.25,0 -4.25,-0.75 -5.25,-2.25 -1.5,-1.5 -2.25,-3.75 -2.25,-6.5 v -1.75 h 8.5"
         style="fill:#a80000;fill-opacity:1;fill-rule:nonzero;stroke:none"
         id="path840" /><path
         d="M 165.75,635.5 H 147 v 42 c 0,7.75 1.75,13.75 6,18.75 2.25,2.5 5.25,4.75 8.5,6.75 3.75,1.5 7.25,2.25 11,2.25 7.5,0 13.75,-2.75 19,-7.5 5,-5.25 7.5,-11.25 7.5,-18.5 0,-7 -2.5,-13.5 -7.5,-18.25 -5.25,-5.25 -11.25,-8 -18.25,-8 -0.75,0 -2.75,0 -5,0 v 21 c 1.5,-1 3.5,-1.75 5,-1.75 1.5,0 3.25,0.75 4.75,2.25 1.25,1.5 2,3 2,5.25 0,1.5 -0.75,3.25 -2,4.75 -1.5,1.5 -3.25,2 -5.25,2 -4.75,0 -7,-3 -7,-9.75 V 635.5"
         style="fill:#a80000;fill-opacity:1;fill-rule:nonzero;stroke:none"
         id="path842" /><path
         d="m 238,677 18.75,0.75 c -0.5,-7 -3.25,-13 -8,-18 -5,-4.5 -10.75,-6.75 -17.75,-6.75 -7.5,0 -13.5,2.75 -18.75,7.5 -5,5.25 -7.5,11.75 -7.5,19.25 0,6.75 2.5,12.75 7.5,18 5.25,4.75 11.5,7.5 18.5,7.5 6.25,0 11.75,-2 16.5,-6 5,-3.75 7.75,-9 9,-15 l -19,-0.75 c -1.5,2.25 -3.75,3 -6.25,3 -2,0 -3.75,-0.5 -5.25,-2 -1.25,-1.5 -2,-3.25 -2,-5.25 0,-2.25 0.75,-4 2.25,-5.25 1.5,-1.75 3.25,-2.5 5.5,-2.5 3,0 5.25,1.75 6.5,5.5"
         style="fill:#a80000;fill-opacity:1;fill-rule:nonzero;stroke:none"
         id="path844" /></g><g
       aria-label="Association Française pour la
Programmation par Contraintes"
       transform="scale(1,-1)"
       id="text6926"
       style="font-size:14.7717px;line-height:1.25;font-family:'Roboto Condensed';-inkscape-font-specification:'Roboto Condensed, ';fill:#a80000;stroke-width:0.369294"><path
         d="m 61.2973,-601.14857 h -4.399774 l -0.995359,2.70478 h -1.449761 l 4.060775,-10.50175 h 1.218954 l 3.99586,10.50175 h -1.449762 z m -3.959797,-1.1901 h 3.534245 l -1.731058,-4.78205 h -0.04328 z"
         style="font-family:Roboto;-inkscape-font-specification:Roboto;text-align:center;text-anchor:middle"
         id="path1195" /><path
         d="m 69.454914,-600.51384 q 0,-0.46883 -0.360637,-0.77177 -0.353425,-0.30293 -1.348783,-0.52653 -1.420911,-0.31015 -2.142185,-0.83668 -0.714062,-0.53374 -0.714062,-1.44976 0,-0.95208 0.807827,-1.62287 0.807828,-0.67078 2.106122,-0.67078 1.363208,0 2.163823,0.69964 0.807827,0.69963 0.771763,1.7022 l -0.01443,0.0433 h -1.355996 q 0,-0.51211 -0.432765,-0.91602 -0.425551,-0.41113 -1.1324,-0.41113 -0.757339,0 -1.125188,0.33179 -0.36785,0.33179 -0.36785,0.80062 0,0.46161 0.324573,0.72848 0.324574,0.26687 1.319932,0.47604 1.478613,0.31736 2.199887,0.86553 0.721275,0.54096 0.721275,1.45698 0,1.03863 -0.843891,1.68057 -0.836679,0.64193 -2.192675,0.64193 -1.493038,0 -2.351354,-0.75734 -0.858317,-0.75734 -0.81504,-1.76712 l 0.01443,-0.0433 h 1.355996 q 0.03606,0.75734 0.562594,1.11077 0.52653,0.34621 1.233379,0.34621 0.757338,0 1.18289,-0.30294 0.432765,-0.31014 0.432765,-0.80782 z"
         style="font-family:Roboto;-inkscape-font-specification:Roboto;text-align:center;text-anchor:middle"
         id="path1197" /><path
         d="m 77.186976,-600.51384 q 0,-0.46883 -0.360637,-0.77177 -0.353424,-0.30293 -1.348783,-0.52653 -1.420911,-0.31015 -2.142185,-0.83668 -0.714062,-0.53374 -0.714062,-1.44976 0,-0.95208 0.807828,-1.62287 0.807827,-0.67078 2.106121,-0.67078 1.363209,0 2.163823,0.69964 0.807828,0.69963 0.771764,1.7022 l -0.01443,0.0433 h -1.355996 q 0,-0.51211 -0.432764,-0.91602 -0.425552,-0.41113 -1.132401,-0.41113 -0.757338,0 -1.125188,0.33179 -0.36785,0.33179 -0.36785,0.80062 0,0.46161 0.324573,0.72848 0.324574,0.26687 1.319933,0.47604 1.478612,0.31736 2.199887,0.86553 0.721274,0.54096 0.721274,1.45698 0,1.03863 -0.843891,1.68057 -0.836678,0.64193 -2.192674,0.64193 -1.493038,0 -2.351355,-0.75734 -0.858316,-0.75734 -0.81504,-1.76712 l 0.01443,-0.0433 h 1.355996 q 0.03606,0.75734 0.562594,1.11077 0.526531,0.34621 1.23338,0.34621 0.757338,0 1.18289,-0.30294 0.432764,-0.31014 0.432764,-0.80782 z"
         style="font-family:Roboto;-inkscape-font-specification:Roboto;text-align:center;text-anchor:middle"
         id="path1199" /><path
         d="m 80.050435,-602.41801 q 0,-1.73106 0.937657,-2.84903 0.937657,-1.12519 2.546099,-1.12519 1.622867,0 2.560524,1.11797 0.944869,1.11798 0.944869,2.85625 v 0.15868 q 0,1.74549 -0.937656,2.85625 -0.937657,1.11076 -2.553312,1.11076 -1.615654,0 -2.560524,-1.11076 -0.937657,-1.11798 -0.937657,-2.85625 z m 1.420911,0.15868 q 0,1.24059 0.519318,2.04842 0.52653,0.80783 1.557952,0.80783 1.016997,0 1.543528,-0.80783 0.52653,-0.80783 0.52653,-2.04842 v -0.15868 q 0,-1.22617 -0.533743,-2.04121 -0.52653,-0.81504 -1.55074,-0.81504 -1.016997,0 -1.543527,0.81504 -0.519318,0.81504 -0.519318,2.04121 z"
         style="font-family:Roboto;-inkscape-font-specification:Roboto;text-align:center;text-anchor:middle"
         id="path1201" /><path
         d="m 91.951463,-599.40308 q 0.706849,0 1.240592,-0.43277 0.540956,-0.43997 0.540956,-1.0747 h 1.276655 l 0.01443,0.0433 q 0.03606,1.00979 -0.901593,1.79597 -0.930444,0.77898 -2.171036,0.77898 -1.702208,0 -2.603801,-1.11076 -0.901593,-1.11076 -0.901593,-2.79133 v -0.30294 q 0,-1.66614 0.901593,-2.77691 0.908806,-1.11797 2.603801,-1.11797 1.370421,0 2.23595,0.80783 0.872742,0.80782 0.843892,1.9835 l -0.01443,0.0433 h -1.283868 q 0,-0.71406 -0.504893,-1.21174 -0.504892,-0.5049 -1.276655,-0.5049 -1.117976,0 -1.601229,0.80783 -0.476042,0.80062 -0.476042,1.96908 v 0.30294 q 0,1.19731 0.476042,1.99793 0.476041,0.7934 1.601229,0.7934 z"
         style="font-family:Roboto;-inkscape-font-specification:Roboto;text-align:center;text-anchor:middle"
         id="path1203" /><path
         d="m 98.161635,-598.44379 h -1.42091 v -7.80419 h 1.42091 z m 0,-9.80212 h -1.42091 v -1.44976 h 1.42091 z"
         style="font-family:Roboto;-inkscape-font-specification:Roboto;text-align:center;text-anchor:middle"
         id="path1205" /><path
         d="m 105.14357,-598.44379 q -0.0721,-0.35342 -0.1154,-0.62029 -0.0361,-0.27409 -0.0433,-0.54817 -0.3967,0.56259 -1.03863,0.94487 -0.63473,0.37506 -1.37043,0.37506 -1.21895,0 -1.86088,-0.62029 -0.63473,-0.62751 -0.63473,-1.72385 0,-1.11798 0.9016,-1.74548 0.9088,-0.63473 2.45954,-0.63473 h 1.54353 v -0.77176 q 0,-0.68521 -0.41834,-1.08191 -0.41834,-0.40392 -1.18289,-0.40392 -0.68521,0 -1.11797,0.35343 -0.42556,0.34621 -0.42556,0.83668 h -1.35599 l -0.0144,-0.0433 q -0.0433,-0.8511 0.80062,-1.55795 0.8511,-0.70685 2.19267,-0.70685 1.32715,0 2.13497,0.678 0.80783,0.67078 0.80783,1.94023 v 3.75784 q 0,0.41833 0.0433,0.80782 0.0433,0.38949 0.15868,0.76455 z m -2.35857,-1.03863 q 0.77177,0 1.39206,-0.3967 0.6203,-0.3967 0.80783,-0.90881 v -1.26944 h -1.59402 q -0.85831,0 -1.37763,0.43276 -0.5121,0.43277 -0.5121,1.017 0,0.51932 0.32457,0.82225 0.32457,0.30294 0.95929,0.30294 z"
         style="font-family:Roboto;-inkscape-font-specification:Roboto;text-align:center;text-anchor:middle"
         id="path1207" /><path
         d="m 110.35838,-608.1305 v 1.88252 h 1.47862 v 1.05306 h -1.47862 v 4.73878 q 0,0.54817 0.2236,0.77176 0.23081,0.2236 0.60587,0.2236 0.12262,0 0.26687,-0.0289 0.15147,-0.0289 0.26687,-0.0721 l 0.18753,0.97372 q -0.15868,0.12983 -0.46882,0.20917 -0.30294,0.0865 -0.61309,0.0865 -0.86553,0 -1.37763,-0.51932 -0.51211,-0.52653 -0.51211,-1.6445 v -4.73878 h -1.24059 v -1.05306 h 1.24059 v -1.88252 z"
         style="font-family:Roboto;-inkscape-font-specification:Roboto;text-align:center;text-anchor:middle"
         id="path1209" /><path
         d="m 115.12601,-598.44379 h -1.42091 v -7.80419 h 1.42091 z m 0,-9.80212 h -1.42091 v -1.44976 h 1.42091 z"
         style="font-family:Roboto;-inkscape-font-specification:Roboto;text-align:center;text-anchor:middle"
         id="path1211" /><path
         d="m 116.97968,-602.41801 q 0,-1.73106 0.93766,-2.84903 0.93766,-1.12519 2.5461,-1.12519 1.62287,0 2.56052,1.11797 0.94487,1.11798 0.94487,2.85625 v 0.15868 q 0,1.74549 -0.93765,2.85625 -0.93766,1.11076 -2.55331,1.11076 -1.61566,0 -2.56053,-1.11076 -0.93766,-1.11798 -0.93766,-2.85625 z m 1.42091,0.15868 q 0,1.24059 0.51932,2.04842 0.52653,0.80783 1.55796,0.80783 1.01699,0 1.54352,-0.80783 0.52653,-0.80783 0.52653,-2.04842 v -0.15868 q 0,-1.22617 -0.53374,-2.04121 -0.52653,-0.81504 -1.55074,-0.81504 -1.017,0 -1.54353,0.81504 -0.51932,0.81504 -0.51932,2.04121 z"
         style="font-family:Roboto;-inkscape-font-specification:Roboto;text-align:center;text-anchor:middle"
         id="path1213" /><path
         d="m 126.97655,-606.24798 0.10098,1.16126 q 0.38948,-0.6203 0.97372,-0.9593 0.59144,-0.34621 1.34157,-0.34621 1.26223,0 1.95465,0.74291 0.69242,0.7357 0.69242,2.27923 v 4.9263 h -1.42091 v -4.89745 q 0,-1.03142 -0.41112,-1.46419 -0.40392,-0.43276 -1.2406,-0.43276 -0.61308,0 -1.08912,0.29572 -0.46883,0.29572 -0.75013,0.80783 v 5.69085 h -1.42091 v -7.80419 z"
         style="font-family:Roboto;-inkscape-font-specification:Roboto;text-align:center;text-anchor:middle"
         id="path1215" /><path
         d="m 144.24386,-603.08879 h -4.78927 v 4.645 h -1.42091 v -10.50175 h 6.94588 v 1.11797 h -5.52497 v 3.6208 h 4.78927 z"
         style="font-family:Roboto;-inkscape-font-specification:Roboto;text-align:center;text-anchor:middle"
         id="path1217" /><path
         d="m 149.88422,-604.99296 -0.72849,-0.0433 q -0.56259,0 -0.95208,0.26687 -0.38227,0.26687 -0.59144,0.75012 v 5.57545 h -1.42091 v -7.80419 h 1.26944 l 0.13704,1.13962 q 0.33179,-0.60587 0.81504,-0.94487 0.49047,-0.339 1.12519,-0.339 0.15868,0 0.30293,0.0289 0.14426,0.0216 0.23803,0.0505 z"
         style="font-family:Roboto;-inkscape-font-specification:Roboto;text-align:center;text-anchor:middle"
         id="path1219" /><path
         d="m 156.06554,-598.44379 q -0.0721,-0.35342 -0.1154,-0.62029 -0.0361,-0.27409 -0.0433,-0.54817 -0.3967,0.56259 -1.03863,0.94487 -0.63472,0.37506 -1.37042,0.37506 -1.21896,0 -1.86089,-0.62029 -0.63472,-0.62751 -0.63472,-1.72385 0,-1.11798 0.90159,-1.74548 0.90881,-0.63473 2.45955,-0.63473 h 1.54352 v -0.77176 q 0,-0.68521 -0.41833,-1.08191 -0.41834,-0.40392 -1.18289,-0.40392 -0.68522,0 -1.11798,0.35343 -0.42555,0.34621 -0.42555,0.83668 h -1.356 l -0.0144,-0.0433 q -0.0433,-0.8511 0.80061,-1.55795 0.85111,-0.70685 2.19268,-0.70685 1.32714,0 2.13497,0.678 0.80783,0.67078 0.80783,1.94023 v 3.75784 q 0,0.41833 0.0433,0.80782 0.0433,0.38949 0.15868,0.76455 z m -2.35856,-1.03863 q 0.77176,0 1.39206,-0.3967 0.62029,-0.3967 0.80782,-0.90881 v -1.26944 h -1.59401 q -0.85832,0 -1.37764,0.43276 -0.5121,0.43277 -0.5121,1.017 0,0.51932 0.32457,0.82225 0.32458,0.30294 0.9593,0.30294 z"
         style="font-family:Roboto;-inkscape-font-specification:Roboto;text-align:center;text-anchor:middle"
         id="path1221" /><path
         d="m 160.67448,-606.24798 0.10098,1.16126 q 0.38949,-0.6203 0.97372,-0.9593 0.59145,-0.34621 1.34157,-0.34621 1.26223,0 1.95466,0.74291 0.69242,0.7357 0.69242,2.27923 v 4.9263 h -1.42091 v -4.89745 q 0,-1.03142 -0.41113,-1.46419 -0.40391,-0.43276 -1.24059,-0.43276 -0.61308,0 -1.08912,0.29572 -0.46883,0.29572 -0.75013,0.80783 v 5.69085 h -1.42091 v -7.80419 z"
         style="font-family:Roboto;-inkscape-font-specification:Roboto;text-align:center;text-anchor:middle"
         id="path1223" /><path
         d="m 170.97429,-599.40308 q 0.70685,0 1.24059,-0.43277 0.54095,-0.43997 0.54095,-1.0747 h 1.27666 l 0.0144,0.0433 q 0.0361,1.00979 -0.9016,1.79597 -0.93044,0.77898 -2.17103,0.77898 -1.70221,0 -2.6038,-1.11076 -0.9016,-1.11076 -0.9016,-2.79133 v -0.30294 q 0,-1.66614 0.9016,-2.77691 0.9088,-1.11797 2.6038,-1.11797 1.37042,0 2.23595,0.80783 0.87274,0.80782 0.84389,1.9835 l -0.0144,0.0433 h -1.28387 q 0,-0.71406 -0.50489,-1.21174 -0.50489,-0.5049 -1.27665,-0.5049 -1.11798,0 -1.60123,0.80783 -0.47604,0.80062 -0.47604,1.96908 v 0.30294 q 0,1.19731 0.47604,1.99793 0.47604,0.7934 1.60123,0.7934 z m 0.21638,1.017 -0.0866,0.37506 q 0.46882,0.0793 0.77897,0.37506 0.31015,0.29572 0.31015,0.87274 0,0.69243 -0.56981,1.10355 -0.5698,0.41113 -1.63008,0.41113 l -0.0505,-0.78619 q 0.51932,0 0.83668,-0.18032 0.31736,-0.1731 0.31736,-0.52653 0,-0.34621 -0.25966,-0.48325 -0.25965,-0.13705 -0.88716,-0.18753 l 0.2308,-0.97372 z"
         style="font-family:Roboto;-inkscape-font-specification:Roboto;text-align:center;text-anchor:middle"
         id="path1225" /><path
         d="m 180.44462,-598.44379 q -0.0721,-0.35342 -0.1154,-0.62029 -0.0361,-0.27409 -0.0433,-0.54817 -0.3967,0.56259 -1.03864,0.94487 -0.63472,0.37506 -1.37042,0.37506 -1.21895,0 -1.86089,-0.62029 -0.63472,-0.62751 -0.63472,-1.72385 0,-1.11798 0.9016,-1.74548 0.9088,-0.63473 2.45954,-0.63473 h 1.54353 v -0.77176 q 0,-0.68521 -0.41834,-1.08191 -0.41834,-0.40392 -1.18289,-0.40392 -0.68521,0 -1.11798,0.35343 -0.42555,0.34621 -0.42555,0.83668 h -1.35599 l -0.0144,-0.0433 q -0.0433,-0.8511 0.80062,-1.55795 0.8511,-0.70685 2.19267,-0.70685 1.32714,0 2.13497,0.678 0.80783,0.67078 0.80783,1.94023 v 3.75784 q 0,0.41833 0.0433,0.80782 0.0433,0.38949 0.15868,0.76455 z m -2.35857,-1.03863 q 0.77177,0 1.39206,-0.3967 0.6203,-0.3967 0.80783,-0.90881 v -1.26944 h -1.59402 q -0.85831,0 -1.37763,0.43276 -0.51211,0.43277 -0.51211,1.017 0,0.51932 0.32458,0.82225 0.32457,0.30294 0.95929,0.30294 z"
         style="font-family:Roboto;-inkscape-font-specification:Roboto;text-align:center;text-anchor:middle"
         id="path1227" /><path
         d="m 185.32044,-598.44379 h -1.42091 v -7.80419 h 1.42091 z m 0,-9.80212 h -1.42091 v -1.44976 h 1.42091 z"
         style="font-family:Roboto;-inkscape-font-specification:Roboto;text-align:center;text-anchor:middle"
         id="path1229" /><path
         d="m 192.04271,-600.51384 q 0,-0.46883 -0.36064,-0.77177 -0.35342,-0.30293 -1.34878,-0.52653 -1.42091,-0.31015 -2.14219,-0.83668 -0.71406,-0.53374 -0.71406,-1.44976 0,-0.95208 0.80783,-1.62287 0.80783,-0.67078 2.10612,-0.67078 1.36321,0 2.16383,0.69964 0.80782,0.69963 0.77176,1.7022 l -0.0144,0.0433 h -1.35599 q 0,-0.51211 -0.43277,-0.91602 -0.42555,-0.41113 -1.1324,-0.41113 -0.75734,0 -1.12519,0.33179 -0.36785,0.33179 -0.36785,0.80062 0,0.46161 0.32458,0.72848 0.32457,0.26687 1.31993,0.47604 1.47861,0.31736 2.19989,0.86553 0.72127,0.54096 0.72127,1.45698 0,1.03863 -0.84389,1.68057 -0.83668,0.64193 -2.19267,0.64193 -1.49304,0 -2.35136,-0.75734 -0.85832,-0.75734 -0.81504,-1.76712 l 0.0144,-0.0433 h 1.35599 q 0.0361,0.75734 0.5626,1.11077 0.52653,0.34621 1.23338,0.34621 0.75733,0 1.18289,-0.30294 0.43276,-0.31014 0.43276,-0.80782 z"
         style="font-family:Roboto;-inkscape-font-specification:Roboto;text-align:center;text-anchor:middle"
         id="path1231" /><path
         d="m 198.47647,-598.29232 q -1.63008,0 -2.59659,-1.08191 -0.95929,-1.08912 -0.95929,-2.82018 v -0.31736 q 0,-1.66615 0.98815,-2.7697 0.99535,-1.11076 2.35135,-1.11076 1.57959,0 2.38742,0.95208 0.80783,0.95208 0.80783,2.53889 v 0.88717 h -5.06335 l -0.0216,0.0361 q 0.0216,1.12519 0.56981,1.85367 0.54817,0.72128 1.53631,0.72128 0.72128,0 1.26223,-0.20196 0.54817,-0.20917 0.94487,-0.56981 l 0.55538,0.92324 q -0.41834,0.41112 -1.10355,0.68521 -0.68521,0.27408 -1.65893,0.27408 z m -0.21638,-6.98194 q -0.71406,0 -1.21895,0.60588 -0.5049,0.59865 -0.6203,1.50746 l 0.0144,0.0361 h 3.59915 v -0.18753 q 0,-0.83668 -0.44719,-1.39927 -0.44719,-0.5626 -1.32714,-0.5626 z"
         style="font-family:Roboto;-inkscape-font-specification:Roboto;text-align:center;text-anchor:middle"
         id="path1233" /><path
         d="m 213.3708,-602.05016 q 0,1.68778 -0.80783,2.72642 -0.80783,1.03142 -2.22874,1.03142 -0.72127,0 -1.26944,-0.23802 -0.54096,-0.24523 -0.92323,-0.72849 v 3.81554 h -1.42091 v -10.80469 h 1.08912 l 0.2236,1.00979 q 0.38227,-0.5626 0.95208,-0.85832 0.5698,-0.29572 1.32714,-0.29572 1.44976,0 2.25038,1.15404 0.80783,1.14682 0.80783,3.03656 z m -1.42091,-0.15147 q 0,-1.32714 -0.52653,-2.17825 -0.51932,-0.85831 -1.53632,-0.85831 -0.61308,0 -1.04585,0.2813 -0.43276,0.27408 -0.69963,0.75733 v 3.77227 q 0.26687,0.48325 0.69963,0.75734 0.43277,0.26687 1.06028,0.26687 1.00978,0 1.5291,-0.7357 0.51932,-0.74291 0.51932,-1.91138 z"
         style="font-family:Roboto;-inkscape-font-specification:Roboto;text-align:center;text-anchor:middle"
         id="path1235" /><path
         d="m 214.78449,-602.41801 q 0,-1.73106 0.93766,-2.84903 0.93765,-1.12519 2.5461,-1.12519 1.62286,0 2.56052,1.11797 0.94487,1.11798 0.94487,2.85625 v 0.15868 q 0,1.74549 -0.93766,2.85625 -0.93765,1.11076 -2.55331,1.11076 -1.61565,0 -2.56052,-1.11076 -0.93766,-1.11798 -0.93766,-2.85625 z m 1.42091,0.15868 q 0,1.24059 0.51932,2.04842 0.52653,0.80783 1.55795,0.80783 1.017,0 1.54353,-0.80783 0.52653,-0.80783 0.52653,-2.04842 v -0.15868 q 0,-1.22617 -0.53374,-2.04121 -0.52653,-0.81504 -1.55074,-0.81504 -1.017,0 -1.54353,0.81504 -0.51932,0.81504 -0.51932,2.04121 z"
         style="font-family:Roboto;-inkscape-font-specification:Roboto;text-align:center;text-anchor:middle"
         id="path1237" /><path
         d="m 228.46706,-599.59783 q -0.36785,0.62751 -0.94487,0.96651 -0.57702,0.339 -1.33436,0.339 -1.27665,0 -1.99071,-0.81504 -0.71406,-0.81504 -0.71406,-2.53888 v -4.60174 h 1.42091 v 4.61616 q 0,1.24781 0.36785,1.71663 0.36785,0.46883 1.14682,0.46883 0.75734,0 1.24781,-0.30293 0.49768,-0.31015 0.75012,-0.87275 v -5.62594 h 1.42091 v 7.80419 h -1.27665 z"
         style="font-family:Roboto;-inkscape-font-specification:Roboto;text-align:center;text-anchor:middle"
         id="path1239" /><path
         d="m 235.60048,-604.99296 -0.72849,-0.0433 q -0.56259,0 -0.95208,0.26687 -0.38228,0.26687 -0.59145,0.75012 v 5.57545 h -1.42091 v -7.80419 h 1.26944 l 0.13705,1.13962 q 0.33178,-0.60587 0.81504,-0.94487 0.49046,-0.339 1.12518,-0.339 0.15868,0 0.30294,0.0289 0.14425,0.0216 0.23802,0.0505 z"
         style="font-family:Roboto;-inkscape-font-specification:Roboto;text-align:center;text-anchor:middle"
         id="path1241" /><path
         d="m 242.1857,-598.44379 h -1.42091 v -11.25188 h 1.42091 z"
         style="font-family:Roboto;-inkscape-font-specification:Roboto;text-align:center;text-anchor:middle"
         id="path1243" /><path
         d="m 249.16763,-598.44379 q -0.0721,-0.35342 -0.1154,-0.62029 -0.0361,-0.27409 -0.0433,-0.54817 -0.3967,0.56259 -1.03863,0.94487 -0.63472,0.37506 -1.37042,0.37506 -1.21896,0 -1.86089,-0.62029 -0.63472,-0.62751 -0.63472,-1.72385 0,-1.11798 0.90159,-1.74548 0.90881,-0.63473 2.45955,-0.63473 h 1.54352 v -0.77176 q 0,-0.68521 -0.41834,-1.08191 -0.41833,-0.40392 -1.18289,-0.40392 -0.68521,0 -1.11797,0.35343 -0.42555,0.34621 -0.42555,0.83668 h -1.356 l -0.0144,-0.0433 q -0.0433,-0.8511 0.80061,-1.55795 0.8511,-0.70685 2.19267,-0.70685 1.32715,0 2.13498,0.678 0.80782,0.67078 0.80782,1.94023 v 3.75784 q 0,0.41833 0.0433,0.80782 0.0433,0.38949 0.15868,0.76455 z m -2.35856,-1.03863 q 0.77176,0 1.39206,-0.3967 0.62029,-0.3967 0.80782,-0.90881 v -1.26944 h -1.59401 q -0.85832,0 -1.37764,0.43276 -0.5121,0.43277 -0.5121,1.017 0,0.51932 0.32457,0.82225 0.32458,0.30294 0.9593,0.30294 z"
         style="font-family:Roboto;-inkscape-font-specification:Roboto;text-align:center;text-anchor:middle"
         id="path1245" /><path
         d="m 51.170607,-584.1914 v 4.21224 h -1.42091 v -10.50176 h 4.017498 q 1.68057,0 2.611014,0.86553 0.930444,0.86553 0.930444,2.27923 0,1.43534 -0.930444,2.29365 -0.930444,0.85111 -2.611014,0.85111 z m 0,-1.11077 h 2.596588 q 1.067486,0 1.594017,-0.5698 0.52653,-0.57702 0.52653,-1.44977 0,-0.87274 -0.533743,-1.45697 -0.52653,-0.58423 -1.586804,-0.58423 h -2.596588 z"
         style="font-family:Roboto;-inkscape-font-specification:Roboto"
         id="path1247" /><path
         d="m 62.638871,-586.52833 -0.728488,-0.0433 q -0.562594,0 -0.952082,0.26687 -0.382275,0.26687 -0.591445,0.75013 v 5.57545 h -1.42091 v -7.80419 h 1.269443 l 0.137042,1.13961 q 0.331786,-0.60587 0.81504,-0.94487 0.490466,-0.339 1.125188,-0.339 0.15868,0 0.302935,0.0289 0.144255,0.0216 0.238021,0.0505 z"
         style="font-family:Roboto;-inkscape-font-specification:Roboto"
         id="path1249" /><path
         d="m 63.547676,-583.95338 q 0,-1.73106 0.937657,-2.84904 0.937656,-1.12519 2.546098,-1.12519 1.622868,0 2.560524,1.11798 0.94487,1.11797 0.94487,2.85625 v 0.15868 q 0,1.74548 -0.937657,2.85624 -0.937657,1.11077 -2.553311,1.11077 -1.615655,0 -2.560524,-1.11077 -0.937657,-1.11797 -0.937657,-2.85624 z m 1.42091,0.15868 q 0,1.24059 0.519318,2.04842 0.52653,0.80782 1.557953,0.80782 1.016997,0 1.543527,-0.80782 0.52653,-0.80783 0.52653,-2.04842 v -0.15868 q 0,-1.22617 -0.533743,-2.04121 -0.52653,-0.81504 -1.55074,-0.81504 -1.016997,0 -1.543527,0.81504 -0.519318,0.81504 -0.519318,2.04121 z"
         style="font-family:Roboto;-inkscape-font-specification:Roboto"
         id="path1251" /><path
         d="m 71.964948,-583.737 q 0,-1.88253 0.822253,-3.03657 0.822252,-1.15404 2.272014,-1.15404 0.742913,0 1.305507,0.30294 0.562594,0.29572 0.937656,0.85832 l 0.173106,-1.017 h 1.132401 v 7.84746 q 0,1.50026 -0.872742,2.30087 -0.872742,0.80783 -2.517248,0.80783 -0.562594,0 -1.218953,-0.15868 -0.649147,-0.15147 -1.146827,-0.41834 l 0.360638,-1.10355 q 0.382275,0.21638 0.923231,0.34621 0.540956,0.13704 1.067486,0.13704 1.038635,0 1.507463,-0.47604 0.476042,-0.46883 0.476042,-1.43534 v -0.87995 q -0.382276,0.49047 -0.916019,0.74291 -0.533743,0.24524 -1.226166,0.24524 -1.435337,0 -2.257589,-1.03864 -0.822253,-1.03863 -0.822253,-2.7192 z m 1.42091,0.15147 q 0,1.17567 0.49768,1.88974 0.497679,0.71406 1.514676,0.71406 0.641934,0 1.074699,-0.28851 0.432765,-0.29573 0.714062,-0.82947 v -3.59195 q -0.274085,-0.49767 -0.714062,-0.78618 -0.439977,-0.29573 -1.060273,-0.29573 -1.016997,0 -1.521889,0.85111 -0.504893,0.8511 -0.504893,2.18546 z"
         style="font-family:Roboto;-inkscape-font-specification:Roboto"
         id="path1253" /><path
         d="m 84.363655,-586.52833 -0.728488,-0.0433 q -0.562594,0 -0.952082,0.26687 -0.382275,0.26687 -0.591445,0.75013 v 5.57545 h -1.42091 v -7.80419 h 1.269442 l 0.137043,1.13961 q 0.331786,-0.60587 0.81504,-0.94487 0.490466,-0.339 1.125188,-0.339 0.15868,0 0.302935,0.0289 0.144255,0.0216 0.238021,0.0505 z"
         style="font-family:Roboto;-inkscape-font-specification:Roboto"
         id="path1255" /><path
         d="m 90.544978,-579.97916 q -0.07213,-0.35343 -0.115404,-0.6203 -0.03606,-0.27408 -0.04328,-0.54817 -0.396701,0.5626 -1.038635,0.94487 -0.634722,0.37507 -1.370421,0.37507 -1.218954,0 -1.860888,-0.6203 -0.634722,-0.62751 -0.634722,-1.72385 0,-1.11797 0.901593,-1.74548 0.908806,-0.63472 2.459546,-0.63472 h 1.543527 v -0.77177 q 0,-0.68521 -0.418339,-1.08191 -0.418339,-0.40391 -1.18289,-0.40391 -0.685211,0 -1.117975,0.35342 -0.425552,0.34622 -0.425552,0.83668 h -1.355996 l -0.01443,-0.0433 q -0.04328,-0.85111 0.800615,-1.55796 0.851104,-0.70685 2.192674,-0.70685 1.327145,0 2.134972,0.678 0.807828,0.67079 0.807828,1.94023 v 3.75784 q 0,0.41834 0.04328,0.80783 0.04328,0.38949 0.15868,0.76455 z m -2.358567,-1.03864 q 0.771764,0 1.39206,-0.3967 0.620296,-0.3967 0.807827,-0.9088 v -1.26945 h -1.594016 q -0.858317,0 -1.377635,0.43277 -0.512104,0.43276 -0.512104,1.017 0,0.51931 0.324573,0.82225 0.324574,0.30293 0.959295,0.30293 z"
         style="font-family:Roboto;-inkscape-font-specification:Roboto"
         id="path1257" /><path
         d="m 95.153918,-587.78335 0.100978,1.02421 q 0.382275,-0.55538 0.966508,-0.85832 0.591445,-0.31015 1.370421,-0.31015 0.778976,0 1.334358,0.36064 0.562594,0.36064 0.843891,1.08191 0.367846,-0.66357 0.973716,-1.05306 0.60587,-0.38949 1.4137,-0.38949 1.1901,0 1.88253,0.82226 0.69242,0.81504 0.69242,2.45954 v 4.66665 h -1.42091 v -4.68107 q 0,-1.15404 -0.3967,-1.63008 -0.3967,-0.48326 -1.18289,-0.48326 -0.72849,0 -1.18289,0.5049 -0.44719,0.50489 -0.52653,1.27665 v 0.0577 4.95516 h -1.428123 v -4.68107 q 0,-1.09634 -0.411127,-1.60123 -0.403914,-0.51211 -1.168464,-0.51211 -0.649147,0 -1.067487,0.26687 -0.418339,0.26688 -0.641934,0.75013 v 5.77741 h -1.42091 v -7.80419 z"
         style="font-family:Roboto;-inkscape-font-specification:Roboto"
         id="path1259" /><path
         d="m 108.07916,-587.78335 0.10098,1.02421 q 0.38227,-0.55538 0.9665,-0.85832 0.59145,-0.31015 1.37042,-0.31015 0.77898,0 1.33436,0.36064 0.5626,0.36064 0.84389,1.08191 0.36785,-0.66357 0.97372,-1.05306 0.60587,-0.38949 1.4137,-0.38949 1.1901,0 1.88253,0.82226 0.69242,0.81504 0.69242,2.45954 v 4.66665 h -1.42091 v -4.68107 q 0,-1.15404 -0.3967,-1.63008 -0.3967,-0.48326 -1.18289,-0.48326 -0.72849,0 -1.18289,0.5049 -0.44719,0.50489 -0.52653,1.27665 v 0.0577 4.95516 h -1.42812 v -4.68107 q 0,-1.09634 -0.41113,-1.60123 -0.40391,-0.51211 -1.16846,-0.51211 -0.64915,0 -1.06749,0.26687 -0.41834,0.26688 -0.64194,0.75013 v 5.77741 h -1.42091 v -7.80419 z"
         style="font-family:Roboto;-inkscape-font-specification:Roboto"
         id="path1261" /><path
         d="m 124.53143,-579.97916 q -0.0721,-0.35343 -0.11541,-0.6203 -0.0361,-0.27408 -0.0433,-0.54817 -0.3967,0.5626 -1.03864,0.94487 -0.63472,0.37507 -1.37042,0.37507 -1.21895,0 -1.86089,-0.6203 -0.63472,-0.62751 -0.63472,-1.72385 0,-1.11797 0.9016,-1.74548 0.9088,-0.63472 2.45954,-0.63472 h 1.54353 v -0.77177 q 0,-0.68521 -0.41834,-1.08191 -0.41834,-0.40391 -1.18289,-0.40391 -0.68521,0 -1.11798,0.35342 -0.42555,0.34622 -0.42555,0.83668 H 119.872 l -0.0144,-0.0433 q -0.0433,-0.85111 0.80062,-1.55796 0.8511,-0.70685 2.19267,-0.70685 1.32714,0 2.13497,0.678 0.80783,0.67079 0.80783,1.94023 v 3.75784 q 0,0.41834 0.0433,0.80783 0.0433,0.38949 0.15868,0.76455 z m -2.35857,-1.03864 q 0.77176,0 1.39206,-0.3967 0.6203,-0.3967 0.80783,-0.9088 v -1.26945 h -1.59402 q -0.85831,0 -1.37763,0.43277 -0.51211,0.43276 -0.51211,1.017 0,0.51931 0.32458,0.82225 0.32457,0.30293 0.95929,0.30293 z"
         style="font-family:Roboto;-inkscape-font-specification:Roboto"
         id="path1263" /><path
         d="m 129.74624,-589.66588 v 1.88253 h 1.47861 v 1.05306 h -1.47861 v 4.73877 q 0,0.54817 0.22359,0.77177 0.23081,0.22359 0.60587,0.22359 0.12262,0 0.26688,-0.0288 0.15146,-0.0289 0.26687,-0.0721 l 0.18753,0.97372 q -0.15868,0.12983 -0.46883,0.20917 -0.30294,0.0866 -0.61308,0.0866 -0.86553,0 -1.37764,-0.51932 -0.5121,-0.52653 -0.5121,-1.64451 v -4.73877 h -1.24059 v -1.05306 h 1.24059 v -1.88253 z"
         style="font-family:Roboto;-inkscape-font-specification:Roboto"
         id="path1265" /><path
         d="m 134.51386,-579.97916 h -1.42091 v -7.80419 h 1.42091 z m 0,-9.80212 h -1.42091 v -1.44976 h 1.42091 z"
         style="font-family:Roboto;-inkscape-font-specification:Roboto"
         id="path1267" /><path
         d="m 136.36754,-583.95338 q 0,-1.73106 0.93766,-2.84904 0.93765,-1.12519 2.54609,-1.12519 1.62287,0 2.56053,1.11798 0.94487,1.11797 0.94487,2.85625 v 0.15868 q 0,1.74548 -0.93766,2.85624 -0.93766,1.11077 -2.55331,1.11077 -1.61566,0 -2.56052,-1.11077 -0.93766,-1.11797 -0.93766,-2.85624 z m 1.42091,0.15868 q 0,1.24059 0.51932,2.04842 0.52653,0.80782 1.55795,0.80782 1.017,0 1.54353,-0.80782 0.52653,-0.80783 0.52653,-2.04842 v -0.15868 q 0,-1.22617 -0.53375,-2.04121 -0.52653,-0.81504 -1.55074,-0.81504 -1.01699,0 -1.54352,0.81504 -0.51932,0.81504 -0.51932,2.04121 z"
         style="font-family:Roboto;-inkscape-font-specification:Roboto"
         id="path1269" /><path
         d="m 146.3644,-587.78335 0.10098,1.16125 q 0.38949,-0.6203 0.97372,-0.95929 0.59145,-0.34622 1.34157,-0.34622 1.26223,0 1.95466,0.74292 0.69242,0.7357 0.69242,2.27922 v 4.92631 h -1.42091 v -4.89745 q 0,-1.03143 -0.41113,-1.46419 -0.40391,-0.43277 -1.24059,-0.43277 -0.61308,0 -1.08912,0.29573 -0.46883,0.29572 -0.75013,0.80782 v 5.69086 h -1.42091 v -7.80419 z"
         style="font-family:Roboto;-inkscape-font-specification:Roboto"
         id="path1271" /><path
         d="m 163.80482,-583.58553 q 0,1.68778 -0.80783,2.72641 -0.80782,1.03143 -2.22874,1.03143 -0.72127,0 -1.26944,-0.23802 -0.54095,-0.24524 -0.92323,-0.72849 v 3.81554 h -1.42091 v -10.80469 h 1.08912 l 0.2236,1.00978 q 0.38227,-0.56259 0.95208,-0.85831 0.56981,-0.29573 1.32715,-0.29573 1.44976,0 2.25037,1.15404 0.80783,1.14683 0.80783,3.03657 z m -1.42091,-0.15147 q 0,-1.32715 -0.52653,-2.17825 -0.51932,-0.85832 -1.53632,-0.85832 -0.61308,0 -1.04584,0.2813 -0.43277,0.27408 -0.69964,0.75734 v 3.77226 q 0.26687,0.48326 0.69964,0.75734 0.43276,0.26687 1.06027,0.26687 1.00978,0 1.5291,-0.7357 0.51932,-0.74291 0.51932,-1.91137 z"
         style="font-family:Roboto;-inkscape-font-specification:Roboto"
         id="path1273" /><path
         d="m 170.34677,-579.97916 q -0.0721,-0.35343 -0.1154,-0.6203 -0.0361,-0.27408 -0.0433,-0.54817 -0.3967,0.5626 -1.03863,0.94487 -0.63472,0.37507 -1.37042,0.37507 -1.21896,0 -1.86089,-0.6203 -0.63472,-0.62751 -0.63472,-1.72385 0,-1.11797 0.90159,-1.74548 0.90881,-0.63472 2.45955,-0.63472 h 1.54352 v -0.77177 q 0,-0.68521 -0.41834,-1.08191 -0.41833,-0.40391 -1.18289,-0.40391 -0.68521,0 -1.11797,0.35342 -0.42555,0.34622 -0.42555,0.83668 h -1.356 l -0.0144,-0.0433 q -0.0433,-0.85111 0.80061,-1.55796 0.8511,-0.70685 2.19267,-0.70685 1.32715,0 2.13498,0.678 0.80782,0.67079 0.80782,1.94023 v 3.75784 q 0,0.41834 0.0433,0.80783 0.0433,0.38949 0.15868,0.76455 z m -2.35856,-1.03864 q 0.77176,0 1.39206,-0.3967 0.62029,-0.3967 0.80782,-0.9088 v -1.26945 h -1.59401 q -0.85832,0 -1.37764,0.43277 -0.5121,0.43276 -0.5121,1.017 0,0.51931 0.32457,0.82225 0.32458,0.30293 0.9593,0.30293 z"
         style="font-family:Roboto;-inkscape-font-specification:Roboto"
         id="path1275" /><path
         d="m 177.3792,-586.52833 -0.72848,-0.0433 q -0.5626,0 -0.95209,0.26687 -0.38227,0.26687 -0.59144,0.75013 v 5.57545 h -1.42091 v -7.80419 h 1.26944 l 0.13704,1.13961 q 0.33179,-0.60587 0.81504,-0.94487 0.49047,-0.339 1.12519,-0.339 0.15868,0 0.30294,0.0289 0.14425,0.0216 0.23802,0.0505 z"
         style="font-family:Roboto;-inkscape-font-specification:Roboto"
         id="path1277" /><path
         d="m 190.11691,-583.3403 0.0144,0.0433 q 0.0289,1.47861 -1.03863,2.47397 -1.06749,0.99536 -2.82018,0.99536 -1.78155,0 -2.90674,-1.26223 -1.11798,-1.26223 -1.11798,-3.20246 v -1.8681 q 0,-1.94023 1.11798,-3.20246 1.12519,-1.26944 2.90674,-1.26944 1.78154,0 2.8346,0.95208 1.05306,0.94487 1.02421,2.51003 l -0.0144,0.0433 h -1.36321 q 0,-1.10355 -0.64915,-1.74549 -0.64914,-0.64193 -1.83203,-0.64193 -1.19011,0 -1.89696,0.9593 -0.70685,0.95929 -0.70685,2.3802 v 1.88253 q 0,1.43533 0.70685,2.39463 0.70685,0.95929 1.89696,0.95929 1.18289,0 1.83203,-0.63472 0.64915,-0.64193 0.64915,-1.76712 z"
         style="font-family:Roboto;-inkscape-font-specification:Roboto"
         id="path1279" /><path
         d="m 191.44405,-583.95338 q 0,-1.73106 0.93766,-2.84904 0.93766,-1.12519 2.5461,-1.12519 1.62287,0 2.56052,1.11798 0.94487,1.11797 0.94487,2.85625 v 0.15868 q 0,1.74548 -0.93765,2.85624 -0.93766,1.11077 -2.55332,1.11077 -1.61565,0 -2.56052,-1.11077 -0.93766,-1.11797 -0.93766,-2.85624 z m 1.42091,0.15868 q 0,1.24059 0.51932,2.04842 0.52653,0.80782 1.55795,0.80782 1.017,0 1.54353,-0.80782 0.52653,-0.80783 0.52653,-2.04842 v -0.15868 q 0,-1.22617 -0.53374,-2.04121 -0.52653,-0.81504 -1.55074,-0.81504 -1.017,0 -1.54353,0.81504 -0.51932,0.81504 -0.51932,2.04121 z"
         style="font-family:Roboto;-inkscape-font-specification:Roboto"
         id="path1281" /><path
         d="m 201.44091,-587.78335 0.10098,1.16125 q 0.38949,-0.6203 0.97372,-0.95929 0.59145,-0.34622 1.34157,-0.34622 1.26223,0 1.95466,0.74292 0.69242,0.7357 0.69242,2.27922 v 4.92631 h -1.42091 v -4.89745 q 0,-1.03143 -0.41113,-1.46419 -0.40391,-0.43277 -1.24059,-0.43277 -0.61308,0 -1.08912,0.29573 -0.46883,0.29572 -0.75013,0.80782 v 5.69086 h -1.42091 v -7.80419 z"
         style="font-family:Roboto;-inkscape-font-specification:Roboto"
         id="path1283" /><path
         d="m 210.44241,-589.66588 v 1.88253 h 1.47862 v 1.05306 h -1.47862 v 4.73877 q 0,0.54817 0.2236,0.77177 0.23081,0.22359 0.60587,0.22359 0.12262,0 0.26687,-0.0288 0.15147,-0.0289 0.26687,-0.0721 l 0.18753,0.97372 q -0.15868,0.12983 -0.46883,0.20917 -0.30293,0.0866 -0.61308,0.0866 -0.86553,0 -1.37763,-0.51932 -0.51211,-0.52653 -0.51211,-1.64451 v -4.73877 h -1.24059 v -1.05306 h 1.24059 v -1.88253 z"
         style="font-family:Roboto;-inkscape-font-specification:Roboto"
         id="path1285" /><path
         d="m 217.36665,-586.52833 -0.72848,-0.0433 q -0.5626,0 -0.95209,0.26687 -0.38227,0.26687 -0.59144,0.75013 v 5.57545 h -1.42091 v -7.80419 h 1.26944 l 0.13704,1.13961 q 0.33179,-0.60587 0.81504,-0.94487 0.49047,-0.339 1.12519,-0.339 0.15868,0 0.30294,0.0289 0.14425,0.0216 0.23802,0.0505 z"
         style="font-family:Roboto;-inkscape-font-specification:Roboto"
         id="path1287" /><path
         d="m 223.54798,-579.97916 q -0.0721,-0.35343 -0.11541,-0.6203 -0.0361,-0.27408 -0.0433,-0.54817 -0.3967,0.5626 -1.03864,0.94487 -0.63472,0.37507 -1.37042,0.37507 -1.21895,0 -1.86089,-0.6203 -0.63472,-0.62751 -0.63472,-1.72385 0,-1.11797 0.90159,-1.74548 0.90881,-0.63472 2.45955,-0.63472 h 1.54353 v -0.77177 q 0,-0.68521 -0.41834,-1.08191 -0.41834,-0.40391 -1.18289,-0.40391 -0.68521,0 -1.11798,0.35342 -0.42555,0.34622 -0.42555,0.83668 h -1.356 l -0.0144,-0.0433 q -0.0433,-0.85111 0.80061,-1.55796 0.85111,-0.70685 2.19268,-0.70685 1.32714,0 2.13497,0.678 0.80783,0.67079 0.80783,1.94023 v 3.75784 q 0,0.41834 0.0433,0.80783 0.0433,0.38949 0.15868,0.76455 z m -2.35857,-1.03864 q 0.77176,0 1.39206,-0.3967 0.6203,-0.3967 0.80783,-0.9088 v -1.26945 h -1.59402 q -0.85832,0 -1.37763,0.43277 -0.51211,0.43276 -0.51211,1.017 0,0.51931 0.32457,0.82225 0.32458,0.30293 0.9593,0.30293 z"
         style="font-family:Roboto;-inkscape-font-specification:Roboto"
         id="path1289" /><path
         d="m 228.42379,-579.97916 h -1.42091 v -7.80419 h 1.42091 z m 0,-9.80212 h -1.42091 v -1.44976 h 1.42091 z"
         style="font-family:Roboto;-inkscape-font-specification:Roboto"
         id="path1291" /><path
         d="m 231.87869,-587.78335 0.10098,1.16125 q 0.38948,-0.6203 0.97372,-0.95929 0.59144,-0.34622 1.34157,-0.34622 1.26223,0 1.95465,0.74292 0.69242,0.7357 0.69242,2.27922 v 4.92631 h -1.42091 v -4.89745 q 0,-1.03143 -0.41112,-1.46419 -0.40392,-0.43277 -1.2406,-0.43277 -0.61308,0 -1.08912,0.29573 -0.46883,0.29572 -0.75013,0.80782 v 5.69086 h -1.42091 v -7.80419 z"
         style="font-family:Roboto;-inkscape-font-specification:Roboto"
         id="path1293" /><path
         d="m 240.8802,-589.66588 v 1.88253 h 1.47862 v 1.05306 h -1.47862 v 4.73877 q 0,0.54817 0.2236,0.77177 0.23081,0.22359 0.60587,0.22359 0.12262,0 0.26687,-0.0288 0.15147,-0.0289 0.26687,-0.0721 l 0.18753,0.97372 q -0.15868,0.12983 -0.46883,0.20917 -0.30293,0.0866 -0.61308,0.0866 -0.86553,0 -1.37763,-0.51932 -0.51211,-0.52653 -0.51211,-1.64451 v -4.73877 h -1.24059 v -1.05306 h 1.24059 v -1.88253 z"
         style="font-family:Roboto;-inkscape-font-specification:Roboto"
         id="path1295" /><path
         d="m 247.35002,-579.82769 q -1.63008,0 -2.59658,-1.08192 -0.9593,-1.08912 -0.9593,-2.82018 v -0.31736 q 0,-1.66614 0.98815,-2.76969 0.99536,-1.11077 2.35135,-1.11077 1.57959,0 2.38742,0.95209 0.80783,0.95208 0.80783,2.53888 v 0.88717 h -5.06335 l -0.0216,0.0361 q 0.0216,1.12519 0.56981,1.85368 0.54817,0.72127 1.53631,0.72127 0.72128,0 1.26223,-0.20195 0.54817,-0.20917 0.94487,-0.56981 l 0.55539,0.92323 q -0.41834,0.41113 -1.10355,0.68521 -0.68521,0.27409 -1.65894,0.27409 z m -0.21638,-6.98194 q -0.71406,0 -1.21895,0.60587 -0.50489,0.59866 -0.6203,1.50746 l 0.0144,0.0361 h 3.59916 v -0.18753 q 0,-0.83668 -0.44719,-1.39928 -0.44719,-0.56259 -1.32715,-0.56259 z"
         style="font-family:Roboto;-inkscape-font-specification:Roboto"
         id="path1297" /><path
         d="m 255.3706,-581.93382 q 0,-0.4544 -0.30294,-0.76455 -0.29572,-0.31736 -1.12518,-0.69242 -1.20453,-0.46883 -1.78876,-0.99536 -0.57702,-0.53374 -0.57702,-1.37763 0,-0.9016 0.70685,-1.5291 0.71406,-0.63473 1.8681,-0.63473 1.20452,0 1.91859,0.68521 0.71406,0.678 0.68521,1.695 l -0.0144,0.0433 h -1.40648 q 0,-0.55539 -0.31736,-0.95209 -0.31015,-0.40391 -0.86553,-0.40391 -0.54817,0 -0.85832,0.31015 -0.30294,0.31015 -0.30294,0.72849 0,0.44719 0.25966,0.70684 0.26688,0.25966 1.13962,0.678 1.22616,0.43998 1.81761,1.00257 0.59866,0.55539 0.59866,1.42813 0,0.9665 -0.7357,1.57238 -0.7357,0.60587 -1.93302,0.60587 -1.29108,0 -2.03399,-0.72849 -0.74292,-0.7357 -0.70685,-1.71663 l 0.0144,-0.0433 h 1.36321 q 0.0289,0.75734 0.41834,1.09634 0.38949,0.33178 0.96651,0.33178 0.56981,0 0.88717,-0.28851 0.32457,-0.29572 0.32457,-0.75734 z"
         style="text-align:center;text-anchor:middle"
         id="path1299" /></g></g></svg>
