<?xml version="1.0" encoding="UTF-8" standalone="no"?>
<!-- Created with Inkscape (http://www.inkscape.org/) -->

<svg
   version="1.1"
   id="svg824"
   xml:space="preserve"
   width="745.06818"
   height="164.70204"
   viewBox="0 0 745.06818 164.70204"
   sodipodi:docname="afpc-h.svg"
   inkscape:version="1.1 (c4e8f9e, 2021-05-24)"
   xmlns:inkscape="http://www.inkscape.org/namespaces/inkscape"
   xmlns:sodipodi="http://sodipodi.sourceforge.net/DTD/sodipodi-0.dtd"
   xmlns="http://www.w3.org/2000/svg"
   xmlns:svg="http://www.w3.org/2000/svg"><defs
     id="defs828" /><sodipodi:namedview
     id="namedview826"
     pagecolor="#ffffff"
     bordercolor="#666666"
     borderopacity="1.0"
     inkscape:pageshadow="2"
     inkscape:pageopacity="0.0"
     inkscape:pagecheckerboard="0"
     showgrid="false"
     fit-margin-top="0"
     fit-margin-left="0"
     fit-margin-right="0"
     fit-margin-bottom="0"
     inkscape:zoom="0.35715924"
     inkscape:cx="347.18407"
     inkscape:cy="337.38452"
     inkscape:window-width="1323"
     inkscape:window-height="847"
     inkscape:window-x="0"
     inkscape:window-y="25"
     inkscape:window-maximized="0"
     inkscape:current-layer="g830" /><g
     id="g830"
     inkscape:groupmode="layer"
     inkscape:label="afpcrouge"
     transform="matrix(1.3333333,0,0,-1.3333333,-66.333332,987.6296)"><path
       d="m 165.75,736.25 c -6.5,-9 6.75,-32.5 31.5,-49.75 24.75,-17.25 52.75,-22.25 58,-13.25 6.25,11 -6.75,32.75 -31.5,50.25 -24.75,17 -52,21.75 -58,12.75"
       style="fill:#d9d9d9;fill-opacity:1;fill-rule:nonzero;stroke:none"
       id="path832" /><path
       d="m 101.25,639.25 c 9.75,-5.25 31.5,10.5 46,36.75 14.75,26.5 17.25,54.75 7.5,59.5 -11.5,5 -31.75,-10.5 -46,-37 -15,-26.25 -16.75,-53.75 -7.5,-59.25"
       style="fill:#d9d9d9;fill-opacity:1;fill-rule:nonzero;stroke:none"
       id="path834" /><path
       d="m 123.75,630.5 c 2.75,-10.5 28.5,-17.25 58,-10.75 29.75,6.25 52.5,23.5 49.5,33.25 -3.75,12.5 -28.5,17.25 -58,11.25 C 144,658 122,641 123.75,630.5"
       style="fill:#d9d9d9;fill-opacity:1;fill-rule:nonzero;stroke:none"
       id="path836" /><path
       d="m 80.25,673 v -19.5 c -1.5,-0.5 -3,-0.5 -4.25,-0.5 -7.5,0 -13.75,2.25 -18.75,7.25 -5,5.25 -7.5,11.25 -7.5,19 0,7.25 2.5,13.25 7.5,18.5 5,4.75 11.25,7.5 18.5,7.5 8,0 14.25,-2.25 18.75,-7.25 5,-4.75 7.25,-11.25 7.25,-19.5 V 654.25 H 83 v 23.25 c 0,2.5 -0.75,4.75 -2,6 -1.5,1.75 -2.75,2.5 -5,2.5 -2,0 -3.75,-0.75 -5,-2.25 -1.5,-1.5 -2.25,-3 -2.25,-5.25 0,-1.75 0.75,-3.75 2,-4.75 1.25,-1.5 3,-2.25 5,-2.25 1.5,0 3,0.25 4.5,1.5"
       style="fill:#a80000;fill-opacity:1;fill-rule:nonzero;stroke:none"
       id="path838" /><path
       d="m 139.75,693.25 v -20 h -8.5 v -19 H 112.5 v 42.25 c 0,5 0.75,9 2.75,12.5 1.75,4.5 5.25,7.5 9.25,10.5 4.5,2.5 8.75,4 13.5,4 h 1.75 v -19.75 c -0.25,0 -0.75,0 -1,0 -2.25,0 -4.25,-0.75 -5.25,-2.25 -1.5,-1.5 -2.25,-3.75 -2.25,-6.5 v -1.75 h 8.5"
       style="fill:#a80000;fill-opacity:1;fill-rule:nonzero;stroke:none"
       id="path840" /><path
       d="M 165.75,635.5 H 147 v 42 c 0,7.75 1.75,13.75 6,18.75 2.25,2.5 5.25,4.75 8.5,6.75 3.75,1.5 7.25,2.25 11,2.25 7.5,0 13.75,-2.75 19,-7.5 5,-5.25 7.5,-11.25 7.5,-18.5 0,-7 -2.5,-13.5 -7.5,-18.25 -5.25,-5.25 -11.25,-8 -18.25,-8 -0.75,0 -2.75,0 -5,0 v 21 c 1.5,-1 3.5,-1.75 5,-1.75 1.5,0 3.25,0.75 4.75,2.25 1.25,1.5 2,3 2,5.25 0,1.5 -0.75,3.25 -2,4.75 -1.5,1.5 -3.25,2 -5.25,2 -4.75,0 -7,-3 -7,-9.75 V 635.5"
       style="fill:#a80000;fill-opacity:1;fill-rule:nonzero;stroke:none"
       id="path842" /><path
       d="m 238,677 18.75,0.75 c -0.5,-7 -3.25,-13 -8,-18 -5,-4.5 -10.75,-6.75 -17.75,-6.75 -7.5,0 -13.5,2.75 -18.75,7.5 -5,5.25 -7.5,11.75 -7.5,19.25 0,6.75 2.5,12.75 7.5,18 5.25,4.75 11.5,7.5 18.5,7.5 6.25,0 11.75,-2 16.5,-6 5,-3.75 7.75,-9 9,-15 l -19,-0.75 c -1.5,2.25 -3.75,3 -6.25,3 -2,0 -3.75,-0.5 -5.25,-2 -1.25,-1.5 -2,-3.25 -2,-5.25 0,-2.25 0.75,-4 2.25,-5.25 1.5,-1.75 3.25,-2.5 5.5,-2.5 3,0 5.25,1.75 6.5,5.5"
       style="fill:#a80000;fill-opacity:1;fill-rule:nonzero;stroke:none"
       id="path844" /><g
       aria-label="Association Française pour la
Programmation par Contraintes"
       transform="scale(1,-1)"
       id="text6926"
       style="font-size:23.5601px;line-height:1.25;font-family:'Roboto Condensed';-inkscape-font-specification:'Roboto Condensed, ';fill:#a80000;stroke-width:0.589003"><path
         d="m 287.38372,-691.70455 h -7.01741 l -1.58755,4.31399 h -2.31229 l 6.47673,-16.74976 h 1.94416 l 6.37319,16.74976 h -2.31229 z m -6.31567,-1.89815 h 5.63694 l -2.76095,-7.62712 h -0.069 z"
         style="font-family:Roboto;-inkscape-font-specification:Roboto"
         id="path1005" /><path
         d="m 300.3947,-690.6922 q 0,-0.74776 -0.5752,-1.23092 -0.5637,-0.48317 -2.15124,-0.83979 -2.26628,-0.49467 -3.41668,-1.33446 -1.13889,-0.85129 -1.13889,-2.31229 0,-1.51853 1.28845,-2.58839 1.28844,-1.06987 3.35915,-1.06987 2.17425,0 3.45119,1.11588 1.28844,1.11588 1.23092,2.71493 l -0.023,0.069 h -2.16274 q 0,-0.81678 -0.69024,-1.461 -0.67873,-0.65573 -1.80612,-0.65573 -1.20792,0 -1.79462,0.52918 -0.5867,0.52918 -0.5867,1.27694 0,0.73625 0.51768,1.1619 0.51768,0.42565 2.10522,0.75926 2.35831,0.50618 3.50871,1.38048 1.1504,0.86279 1.1504,2.3238 0,1.65657 -1.34597,2.68042 -1.33446,1.02385 -3.4972,1.02385 -2.38132,0 -3.75029,-1.20792 -1.36897,-1.20791 -1.29995,-2.81847 l 0.023,-0.069 h 2.16274 q 0.0575,1.20792 0.89731,1.77161 0.83979,0.55219 1.96718,0.55219 1.20792,0 1.88665,-0.48317 0.69024,-0.49467 0.69024,-1.28844 z"
         style="font-family:Roboto;-inkscape-font-specification:Roboto"
         id="path1007" /><path
         d="m 312.72694,-690.6922 q 0,-0.74776 -0.5752,-1.23092 -0.5637,-0.48317 -2.15124,-0.83979 -2.26628,-0.49467 -3.41668,-1.33446 -1.13889,-0.85129 -1.13889,-2.31229 0,-1.51853 1.28845,-2.58839 1.28844,-1.06987 3.35915,-1.06987 2.17425,0 3.45119,1.11588 1.28844,1.11588 1.23092,2.71493 l -0.023,0.069 h -2.16274 q 0,-0.81678 -0.69024,-1.461 -0.67873,-0.65573 -1.80612,-0.65573 -1.20792,0 -1.79462,0.52918 -0.5867,0.52918 -0.5867,1.27694 0,0.73625 0.51768,1.1619 0.51768,0.42565 2.10522,0.75926 2.35831,0.50618 3.50871,1.38048 1.1504,0.86279 1.1504,2.3238 0,1.65657 -1.34597,2.68042 -1.33446,1.02385 -3.4972,1.02385 -2.38132,0 -3.75029,-1.20792 -1.36897,-1.20791 -1.29995,-2.81847 l 0.023,-0.069 h 2.16275 q 0.0575,1.20792 0.8973,1.77161 0.83979,0.55219 1.96718,0.55219 1.20792,0 1.88665,-0.48317 0.69024,-0.49467 0.69024,-1.28844 z"
         style="font-family:Roboto;-inkscape-font-specification:Roboto"
         id="path1009" /><path
         d="m 317.29401,-693.72924 q 0,-2.76095 1.49551,-4.54407 1.49552,-1.79461 4.0609,-1.79461 2.58839,0 4.0839,1.78311 1.50702,1.78311 1.50702,4.55557 v 0.25308 q 0,2.78396 -1.49551,4.55557 -1.49552,1.77161 -4.0724,1.77161 -2.57689,0 -4.08391,-1.77161 -1.49551,-1.78311 -1.49551,-4.55557 z m 2.26628,0.25308 q 0,1.97868 0.82828,3.26713 0.83979,1.28844 2.48486,1.28844 1.62205,0 2.46184,-1.28844 0.83979,-1.28845 0.83979,-3.26713 v -0.25308 q 0,-1.95568 -0.85129,-3.25562 -0.83979,-1.29995 -2.47335,-1.29995 -1.62206,0 -2.46185,1.29995 -0.82828,1.29994 -0.82828,3.25562 z"
         style="font-family:Roboto;-inkscape-font-specification:Roboto"
         id="path1011" /><path
         d="m 336.27553,-688.92059 q 1.12739,0 1.97868,-0.69024 0.8628,-0.70174 0.8628,-1.71409 h 2.0362 l 0.023,0.069 q 0.0575,1.61055 -1.438,2.86448 -1.48401,1.24243 -3.46269,1.24243 -2.71493,0 -4.15293,-1.77161 -1.43799,-1.77161 -1.43799,-4.45203 v -0.48317 q 0,-2.65741 1.43799,-4.42902 1.4495,-1.78311 4.15293,-1.78311 2.18575,0 3.56623,1.28844 1.39198,1.28844 1.34596,3.16359 l -0.023,0.069 h -2.0477 q 0,-1.13889 -0.80528,-1.93266 -0.80528,-0.80528 -2.0362,-0.80528 -1.78311,0 -2.55388,1.28844 -0.75926,1.27694 -0.75926,3.14058 v 0.48317 q 0,1.90966 0.75926,3.18659 0.75926,1.26544 2.55388,1.26544 z"
         style="font-family:Roboto;-inkscape-font-specification:Roboto"
         id="path1013" /><path
         d="m 346.18044,-687.39056 h -2.26628 v -12.44728 h 2.26628 z m 0,-15.63388 h -2.26628 v -2.31229 h 2.26628 z"
         style="font-family:Roboto;-inkscape-font-specification:Roboto"
         id="path1015" /><path
         d="m 357.31627,-687.39056 q -0.11504,-0.5637 -0.18406,-0.98934 -0.0575,-0.43715 -0.069,-0.8743 -0.63272,0.8973 -1.65657,1.50701 -1.01235,0.59821 -2.18575,0.59821 -1.94417,0 -2.96802,-0.98934 -1.01235,-1.00085 -1.01235,-2.74945 0,-1.78311 1.438,-2.78395 1.44949,-1.01235 3.92284,-1.01235 h 2.46185 v -1.23092 q 0,-1.09288 -0.66723,-1.7256 -0.66723,-0.64422 -1.88665,-0.64422 -1.09287,0 -1.78311,0.56369 -0.67873,0.55219 -0.67873,1.33446 h -2.16275 l -0.023,-0.069 q -0.069,-1.35747 1.27693,-2.48486 1.35747,-1.12738 3.49721,-1.12738 2.11672,0 3.40517,1.08137 1.28844,1.06987 1.28844,3.09456 v 5.99356 q 0,0.66723 0.069,1.28845 0.069,0.62121 0.25309,1.21942 z m -3.7618,-1.65657 q 1.23093,0 2.22027,-0.63272 0.98934,-0.63272 1.28844,-1.4495 v -2.0247 h -2.54237 q -1.36897,0 -2.19726,0.69024 -0.81678,0.69024 -0.81678,1.62206 0,0.82828 0.51768,1.31145 0.51768,0.48317 1.53002,0.48317 z"
         style="font-family:Roboto;-inkscape-font-specification:Roboto"
         id="path1017" /><path
         d="m 365.63362,-702.84038 v 3.00254 h 2.35831 v 1.67957 h -2.35831 v 7.5581 q 0,0.8743 0.35662,1.23093 0.36813,0.35662 0.96634,0.35662 0.19556,0 0.42564,-0.046 0.24159,-0.046 0.42565,-0.11504 l 0.2991,1.55304 q -0.25308,0.20707 -0.74775,0.33361 -0.48317,0.13805 -0.97784,0.13805 -1.38048,0 -2.19726,-0.82829 -0.81678,-0.83978 -0.81678,-2.6229 v -7.5581 h -1.97868 v -1.67957 h 1.97868 v -3.00254 z"
         style="font-family:Roboto;-inkscape-font-specification:Roboto"
         id="path1019" /><path
         d="m 373.23774,-687.39056 h -2.26628 v -12.44728 h 2.26628 z m 0,-15.63388 h -2.26628 v -2.31229 h 2.26628 z"
         style="font-family:Roboto;-inkscape-font-specification:Roboto"
         id="path1021" /><path
         d="m 376.19425,-693.72924 q 0,-2.76095 1.49552,-4.54407 1.49551,-1.79461 4.06089,-1.79461 2.58839,0 4.08391,1.78311 1.50702,1.78311 1.50702,4.55557 v 0.25308 q 0,2.78396 -1.49552,4.55557 -1.49551,1.77161 -4.0724,1.77161 -2.57688,0 -4.0839,-1.77161 -1.49552,-1.78311 -1.49552,-4.55557 z m 2.26628,0.25308 q 0,1.97868 0.82829,3.26713 0.83979,1.28844 2.48485,1.28844 1.62206,0 2.46185,-1.28844 0.83979,-1.28845 0.83979,-3.26713 v -0.25308 q 0,-1.95568 -0.8513,-3.25562 -0.83979,-1.29995 -2.47335,-1.29995 -1.62205,0 -2.46184,1.29995 -0.82829,1.29994 -0.82829,3.25562 z"
         style="font-family:Roboto;-inkscape-font-specification:Roboto"
         id="path1023" /><path
         d="m 392.13874,-699.83784 0.16106,1.85213 q 0.62121,-0.98934 1.55303,-1.53002 0.94332,-0.55219 2.13974,-0.55219 2.01319,0 3.11757,1.1849 1.10438,1.17341 1.10438,3.63525 v 7.85721 h -2.26628 v -7.81119 q 0,-1.64507 -0.65573,-2.3353 -0.64422,-0.69024 -1.97868,-0.69024 -0.97783,0 -1.73709,0.47166 -0.74776,0.47166 -1.19642,1.28845 v 9.07662 h -2.26628 v -12.44728 z"
         style="font-family:Roboto;-inkscape-font-specification:Roboto"
         id="path1025" /><path
         d="m 419.6792,-694.79911 h -7.63863 v 7.40855 h -2.26628 v -16.74976 h 11.07831 v 1.78311 h -8.81203 v 5.77499 h 7.63863 z"
         style="font-family:Roboto;-inkscape-font-specification:Roboto"
         id="path1027" /><path
         d="m 428.6753,-697.83616 -1.1619,-0.069 q -0.8973,0 -1.51852,0.42565 -0.60971,0.42564 -0.94332,1.19641 v 8.89256 h -2.26628 v -12.44728 h 2.02469 l 0.21858,1.81762 q 0.52918,-0.96633 1.29995,-1.50702 0.78227,-0.54068 1.79461,-0.54068 0.25309,0 0.48317,0.046 0.23008,0.0345 0.37963,0.0805 z"
         style="font-family:Roboto;-inkscape-font-specification:Roboto"
         id="path1029" /><path
         d="m 438.53419,-687.39056 q -0.11504,-0.5637 -0.18406,-0.98934 -0.0575,-0.43715 -0.069,-0.8743 -0.63272,0.8973 -1.65657,1.50701 -1.01235,0.59821 -2.18575,0.59821 -1.94417,0 -2.96802,-0.98934 -1.01235,-1.00085 -1.01235,-2.74945 0,-1.78311 1.43799,-2.78395 1.4495,-1.01235 3.92285,-1.01235 h 2.46185 v -1.23092 q 0,-1.09288 -0.66723,-1.7256 -0.66723,-0.64422 -1.88665,-0.64422 -1.09288,0 -1.78311,0.56369 -0.67874,0.55219 -0.67874,1.33446 h -2.16274 l -0.023,-0.069 q -0.069,-1.35747 1.27694,-2.48486 1.35747,-1.12738 3.4972,-1.12738 2.11673,0 3.40517,1.08137 1.28845,1.06987 1.28845,3.09456 v 5.99356 q 0,0.66723 0.069,1.28845 0.069,0.62121 0.25309,1.21942 z m -3.76179,-1.65657 q 1.23092,0 2.22026,-0.63272 0.98934,-0.63272 1.28845,-1.4495 v -2.0247 h -2.54238 q -1.36897,0 -2.19725,0.69024 -0.81678,0.69024 -0.81678,1.62206 0,0.82828 0.51767,1.31145 0.51768,0.48317 1.53003,0.48317 z"
         style="font-family:Roboto;-inkscape-font-specification:Roboto"
         id="path1031" /><path
         d="m 445.88522,-699.83784 0.16105,1.85213 q 0.62121,-0.98934 1.55304,-1.53002 0.94332,-0.55219 2.13973,-0.55219 2.01319,0 3.11757,1.1849 1.10438,1.17341 1.10438,3.63525 v 7.85721 h -2.26628 v -7.81119 q 0,-1.64507 -0.65572,-2.3353 -0.64422,-0.69024 -1.97868,-0.69024 -0.97784,0 -1.7371,0.47166 -0.74776,0.47166 -1.19641,1.28845 v 9.07662 h -2.26628 v -12.44728 z"
         style="font-family:Roboto;-inkscape-font-specification:Roboto"
         id="path1033" /><path
         d="m 462.31287,-688.92059 q 1.12739,0 1.97868,-0.69024 0.8628,-0.70174 0.8628,-1.71409 h 2.0362 l 0.023,0.069 q 0.0575,1.61055 -1.43799,2.86448 -1.48401,1.24243 -3.46269,1.24243 -2.71493,0 -4.15293,-1.77161 -1.43799,-1.77161 -1.43799,-4.45203 v -0.48317 q 0,-2.65741 1.43799,-4.42902 1.4495,-1.78311 4.15293,-1.78311 2.18575,0 3.56623,1.28844 1.39197,1.28844 1.34596,3.16359 l -0.023,0.069 h -2.0477 q 0,-1.13889 -0.80528,-1.93266 -0.80528,-0.80528 -2.0362,-0.80528 -1.78311,0 -2.55388,1.28844 -0.75926,1.27694 -0.75926,3.14058 v 0.48317 q 0,1.90966 0.75926,3.18659 0.75926,1.26544 2.55388,1.26544 z m 0.34512,1.62206 -0.13805,0.5982 q 0.74776,0.12655 1.24243,0.59821 0.49467,0.47166 0.49467,1.39198 0,1.10438 -0.90881,1.7601 -0.90882,0.65573 -2.5999,0.65573 l -0.0805,-1.25393 q 0.82829,0 1.33446,-0.2876 0.50618,-0.2761 0.50618,-0.83979 0,-0.55219 -0.41415,-0.77077 -0.41414,-0.21857 -1.41498,-0.2991 l 0.36812,-1.55303 z"
         style="font-family:Roboto;-inkscape-font-specification:Roboto"
         id="path1035" /><path
         d="m 477.41756,-687.39056 q -0.11504,-0.5637 -0.18407,-0.98934 -0.0575,-0.43715 -0.069,-0.8743 -0.63272,0.8973 -1.65657,1.50701 -1.01235,0.59821 -2.18575,0.59821 -1.94417,0 -2.96802,-0.98934 -1.01235,-1.00085 -1.01235,-2.74945 0,-1.78311 1.43799,-2.78395 1.4495,-1.01235 3.92285,-1.01235 h 2.46185 v -1.23092 q 0,-1.09288 -0.66723,-1.7256 -0.66723,-0.64422 -1.88665,-0.64422 -1.09287,0 -1.78311,0.56369 -0.67874,0.55219 -0.67874,1.33446 H 469.986 l -0.023,-0.069 q -0.069,-1.35747 1.27694,-2.48486 1.35747,-1.12738 3.4972,-1.12738 2.11673,0 3.40518,1.08137 1.28844,1.06987 1.28844,3.09456 v 5.99356 q 0,0.66723 0.069,1.28845 0.069,0.62121 0.25309,1.21942 z m -3.7618,-1.65657 q 1.23093,0 2.22027,-0.63272 0.98934,-0.63272 1.28844,-1.4495 v -2.0247 h -2.54237 q -1.36898,0 -2.19726,0.69024 -0.81678,0.69024 -0.81678,1.62206 0,0.82828 0.51768,1.31145 0.51767,0.48317 1.53002,0.48317 z"
         style="font-family:Roboto;-inkscape-font-specification:Roboto"
         id="path1037" /><path
         d="m 485.19424,-687.39056 h -2.26628 v -12.44728 h 2.26628 z m 0,-15.63388 h -2.26628 v -2.31229 h 2.26628 z"
         style="font-family:Roboto;-inkscape-font-specification:Roboto"
         id="path1039" /><path
         d="m 495.91592,-690.6922 q 0,-0.74776 -0.5752,-1.23092 -0.56369,-0.48317 -2.15124,-0.83979 -2.26628,-0.49467 -3.41667,-1.33446 -1.13889,-0.85129 -1.13889,-2.31229 0,-1.51853 1.28844,-2.58839 1.28844,-1.06987 3.35915,-1.06987 2.17425,0 3.45119,1.11588 1.28844,1.11588 1.23092,2.71493 l -0.023,0.069 h -2.16275 q 0,-0.81678 -0.69023,-1.461 -0.67874,-0.65573 -1.80613,-0.65573 -1.20791,0 -1.79461,0.52918 -0.5867,0.52918 -0.5867,1.27694 0,0.73625 0.51767,1.1619 0.51768,0.42565 2.10523,0.75926 2.35831,0.50618 3.5087,1.38048 1.1504,0.86279 1.1504,2.3238 0,1.65657 -1.34596,2.68042 -1.33446,1.02385 -3.49721,1.02385 -2.38131,0 -3.75029,-1.20792 -1.36897,-1.20791 -1.29994,-2.81847 l 0.023,-0.069 h 2.16274 q 0.0575,1.20792 0.89731,1.77161 0.83979,0.55219 1.96717,0.55219 1.20792,0 1.88665,-0.48317 0.69024,-0.49467 0.69024,-1.28844 z"
         style="font-family:Roboto;-inkscape-font-specification:Roboto"
         id="path1041" /><path
         d="m 506.17745,-687.14898 q -2.59989,0 -4.14142,-1.72559 -1.53003,-1.7371 -1.53003,-4.49805 v -0.50617 q 0,-2.65742 1.57604,-4.41752 1.58755,-1.77161 3.75029,-1.77161 2.51937,0 3.80781,1.51852 1.28845,1.51852 1.28845,4.04939 v 1.41499 h -8.07578 l -0.0345,0.0575 q 0.0345,1.79461 0.90881,2.95651 0.8743,1.1504 2.45034,1.1504 1.1504,0 2.01319,-0.32211 0.87431,-0.33362 1.50702,-0.90881 l 0.88581,1.4725 q -0.66723,0.65573 -1.76011,1.09288 -1.09287,0.43715 -2.64591,0.43715 z m -0.34512,-11.13583 q -1.13889,0 -1.94416,0.96633 -0.80528,0.95483 -0.98934,2.40433 l 0.023,0.0575 h 5.74048 v -0.2991 q 0,-1.33446 -0.71325,-2.23177 -0.71324,-0.89731 -2.11673,-0.89731 z"
         style="font-family:Roboto;-inkscape-font-specification:Roboto"
         id="path1043" /><path
         d="m 529.93311,-693.14254 q 0,2.69192 -1.28844,4.34849 -1.28845,1.64507 -3.55473,1.64507 -1.15039,0 -2.02469,-0.37963 -0.8628,-0.39114 -1.47251,-1.1619 v 6.08559 h -2.26628 v -17.23292 h 1.7371 l 0.35662,1.61055 q 0.60971,-0.89731 1.51852,-1.36897 0.90882,-0.47166 2.11673,-0.47166 2.3123,0 3.58924,1.84063 1.28844,1.82913 1.28844,4.84317 z m -2.26628,-0.24158 q 0,-2.11673 -0.83979,-3.4742 -0.82828,-1.36897 -2.45034,-1.36897 -0.97784,0 -1.66808,0.44865 -0.69023,0.43715 -1.11588,1.20792 v 6.01657 q 0.42565,0.77076 1.11588,1.20791 0.69024,0.42565 1.69109,0.42565 1.61055,0 2.43883,-1.1734 0.82829,-1.18491 0.82829,-3.04855 z"
         style="font-family:Roboto;-inkscape-font-specification:Roboto"
         id="path1045" /><path
         d="m 532.18789,-693.72924 q 0,-2.76095 1.49551,-4.54407 1.49552,-1.79461 4.0609,-1.79461 2.58839,0 4.0839,1.78311 1.50702,1.78311 1.50702,4.55557 v 0.25308 q 0,2.78396 -1.49551,4.55557 -1.49552,1.77161 -4.0724,1.77161 -2.57689,0 -4.08391,-1.77161 -1.49551,-1.78311 -1.49551,-4.55557 z m 2.26628,0.25308 q 0,1.97868 0.82828,3.26713 0.83979,1.28844 2.48486,1.28844 1.62206,0 2.46184,-1.28844 0.83979,-1.28845 0.83979,-3.26713 v -0.25308 q 0,-1.95568 -0.85129,-3.25562 -0.83979,-1.29995 -2.47335,-1.29995 -1.62206,0 -2.46185,1.29995 -0.82828,1.29994 -0.82828,3.25562 z"
         style="font-family:Roboto;-inkscape-font-specification:Roboto"
         id="path1047" /><path
         d="m 554.0109,-689.2312 q -0.5867,1.00085 -1.50702,1.54153 -0.92032,0.54069 -2.12823,0.54069 -2.0362,0 -3.17509,-1.29995 -1.13889,-1.29994 -1.13889,-4.04939 v -7.33952 h 2.26627 v 7.36253 q 0,1.99018 0.58671,2.73794 0.5867,0.74776 1.82913,0.74776 1.20791,0 1.99018,-0.48317 0.79377,-0.49467 1.19641,-1.39198 v -8.97308 h 2.26628 v 12.44728 h -2.0362 z"
         style="font-family:Roboto;-inkscape-font-specification:Roboto"
         id="path1049" /><path
         d="m 565.3883,-697.83616 -1.1619,-0.069 q -0.89731,0 -1.51852,0.42565 -0.60971,0.42564 -0.94332,1.19641 v 8.89256 h -2.26628 v -12.44728 h 2.02469 l 0.21858,1.81762 q 0.52918,-0.96633 1.29994,-1.50702 0.78227,-0.54068 1.79462,-0.54068 0.25309,0 0.48317,0.046 0.23008,0.0345 0.37963,0.0805 z"
         style="font-family:Roboto;-inkscape-font-specification:Roboto"
         id="path1051" /><path
         d="m 575.89143,-687.39056 h -2.26628 v -17.94617 h 2.26628 z"
         style="font-family:Roboto;-inkscape-font-specification:Roboto"
         id="path1053" /><path
         d="m 587.02725,-687.39056 q -0.11504,-0.5637 -0.18406,-0.98934 -0.0575,-0.43715 -0.069,-0.8743 -0.63271,0.8973 -1.65657,1.50701 -1.01234,0.59821 -2.18575,0.59821 -1.94416,0 -2.96802,-0.98934 -1.01235,-1.00085 -1.01235,-2.74945 0,-1.78311 1.438,-2.78395 1.4495,-1.01235 3.92285,-1.01235 h 2.46184 v -1.23092 q 0,-1.09288 -0.66722,-1.7256 -0.66723,-0.64422 -1.88665,-0.64422 -1.09288,0 -1.78312,0.56369 -0.67873,0.55219 -0.67873,1.33446 h -2.16274 l -0.023,-0.069 q -0.069,-1.35747 1.27694,-2.48486 1.35746,-1.12738 3.4972,-1.12738 2.11673,0 3.40517,1.08137 1.28844,1.06987 1.28844,3.09456 v 5.99356 q 0,0.66723 0.069,1.28845 0.069,0.62121 0.25308,1.21942 z m -3.76179,-1.65657 q 1.23092,0 2.22026,-0.63272 0.98934,-0.63272 1.28844,-1.4495 v -2.0247 h -2.54237 q -1.36897,0 -2.19726,0.69024 -0.81678,0.69024 -0.81678,1.62206 0,0.82828 0.51768,1.31145 0.51768,0.48317 1.53003,0.48317 z"
         style="font-family:Roboto;-inkscape-font-specification:Roboto"
         id="path1055" /><path
         d="m 280.57338,-664.65875 v 6.71831 h -2.26628 v -16.74976 h 6.4077 q 2.68043,0 4.16444,1.38048 1.48401,1.38047 1.48401,3.63525 0,2.28928 -1.48401,3.65826 -1.48401,1.35746 -4.16444,1.35746 z m 0,-1.77161 h 4.14142 q 1.70259,0 2.54238,-0.90881 0.83979,-0.92032 0.83979,-2.31229 0,-1.39198 -0.8513,-2.3238 -0.83978,-0.93182 -2.53087,-0.93182 h -4.14142 z"
         style="font-family:Roboto;-inkscape-font-specification:Roboto"
         id="path1057" /><path
         d="m 298.86467,-668.38603 -1.1619,-0.069 q -0.89731,0 -1.51852,0.42564 -0.60971,0.42565 -0.94333,1.19641 v 8.89256 h -2.26628 v -12.44728 h 2.0247 l 0.21858,1.81763 q 0.52918,-0.96634 1.29994,-1.50702 0.78227,-0.54069 1.79462,-0.54069 0.25309,0 0.48317,0.046 0.23007,0.0345 0.37963,0.0805 z"
         style="font-family:Roboto;-inkscape-font-specification:Roboto"
         id="path1059" /><path
         d="m 300.31417,-664.27912 q 0,-2.76095 1.49551,-4.54406 1.49552,-1.79462 4.0609,-1.79462 2.58839,0 4.0839,1.78312 1.50702,1.78311 1.50702,4.55556 v 0.25309 q 0,2.78396 -1.49551,4.55557 -1.49552,1.7716 -4.0724,1.7716 -2.57689,0 -4.08391,-1.7716 -1.49551,-1.78312 -1.49551,-4.55557 z m 2.26628,0.25309 q 0,1.97868 0.82828,3.26712 0.83979,1.28845 2.48486,1.28845 1.62205,0 2.46184,-1.28845 0.83979,-1.28844 0.83979,-3.26712 v -0.25309 q 0,-1.95567 -0.85129,-3.25562 -0.83979,-1.29994 -2.47335,-1.29994 -1.62206,0 -2.46185,1.29994 -0.82828,1.29995 -0.82828,3.25562 z"
         style="font-family:Roboto;-inkscape-font-specification:Roboto"
         id="path1061" /><path
         d="m 313.73928,-663.934 q 0,-3.00253 1.31145,-4.84316 1.31145,-1.84064 3.62375,-1.84064 1.18491,0 2.08221,0.48317 0.89731,0.47166 1.49552,1.36897 l 0.27609,-1.62206 h 1.80612 v 12.51631 q 0,2.39282 -1.39197,3.66976 -1.39198,1.28844 -4.01488,1.28844 -0.89731,0 -1.94417,-0.25309 -1.03536,-0.24158 -1.82913,-0.66723 l 0.5752,-1.7601 q 0.60971,0.34512 1.4725,0.55219 0.8628,0.21857 1.70259,0.21857 1.65657,0 2.40432,-0.75926 0.75927,-0.74775 0.75927,-2.28928 v -1.40349 q -0.60971,0.78227 -1.46101,1.18491 -0.85129,0.39113 -1.95567,0.39113 -2.28929,0 -3.60074,-1.65656 -1.31145,-1.65657 -1.31145,-4.337 z m 2.26628,0.24158 q 0,1.87515 0.79377,3.01404 0.79378,1.13889 2.41583,1.13889 1.02386,0 1.71409,-0.46016 0.69024,-0.47166 1.1389,-1.32295 v -5.72897 q -0.43715,-0.79377 -1.1389,-1.25393 -0.70174,-0.47166 -1.69108,-0.47166 -1.62206,0 -2.42733,1.35746 -0.80528,1.35747 -0.80528,3.4857 z"
         style="font-family:Roboto;-inkscape-font-specification:Roboto"
         id="path1063" /><path
         d="m 333.51458,-668.38603 -1.1619,-0.069 q -0.89731,0 -1.51852,0.42564 -0.60971,0.42565 -0.94332,1.19641 v 8.89256 h -2.26628 v -12.44728 h 2.02469 l 0.21858,1.81763 q 0.52918,-0.96634 1.29995,-1.50702 0.78227,-0.54069 1.79461,-0.54069 0.25309,0 0.48317,0.046 0.23008,0.0345 0.37963,0.0805 z"
         style="font-family:Roboto;-inkscape-font-specification:Roboto"
         id="path1065" /><path
         d="m 343.37347,-657.94044 q -0.11504,-0.56369 -0.18406,-0.98934 -0.0575,-0.43715 -0.069,-0.8743 -0.63272,0.89731 -1.65657,1.50702 -1.01235,0.5982 -2.18575,0.5982 -1.94417,0 -2.96803,-0.98934 -1.01234,-1.00084 -1.01234,-2.74944 0,-1.78311 1.43799,-2.78396 1.4495,-1.01235 3.92285,-1.01235 h 2.46185 v -1.23092 q 0,-1.09287 -0.66723,-1.72559 -0.66723,-0.64422 -1.88665,-0.64422 -1.09288,0 -1.78311,0.56369 -0.67874,0.55219 -0.67874,1.33446 h -2.16274 l -0.023,-0.069 q -0.069,-1.35746 1.27694,-2.48485 1.35747,-1.12739 3.4972,-1.12739 2.11673,0 3.40517,1.08137 1.28845,1.06987 1.28845,3.09457 v 5.99356 q 0,0.66723 0.069,1.28844 0.069,0.62122 0.25309,1.21942 z m -3.76179,-1.65657 q 1.23092,0 2.22026,-0.63272 0.98934,-0.63271 1.28845,-1.44949 v -2.0247 h -2.54238 q -1.36897,0 -2.19725,0.69024 -0.81678,0.69023 -0.81678,1.62206 0,0.82828 0.51767,1.31145 0.51768,0.48316 1.53003,0.48316 z"
         style="font-family:Roboto;-inkscape-font-specification:Roboto"
         id="path1067" /><path
         d="m 350.7245,-670.38772 0.16106,1.63356 q 0.60971,-0.8858 1.54153,-1.36897 0.94332,-0.49467 2.18575,-0.49467 1.24243,0 2.12823,0.5752 0.89731,0.5752 1.34596,1.72559 0.58671,-1.05836 1.55304,-1.67957 0.96633,-0.62122 2.25477,-0.62122 1.89816,0 3.00254,1.31145 1.10438,1.29995 1.10438,3.92285 v 7.44306 h -2.26628 v -7.46607 q 0,-1.84063 -0.63272,-2.59989 -0.63272,-0.77076 -1.88665,-0.77076 -1.1619,0 -1.88665,0.80527 -0.71324,0.80528 -0.83979,2.0362 v 0.092 7.90322 h -2.27778 v -7.46607 q 0,-1.7486 -0.65573,-2.55387 -0.64422,-0.81678 -1.86364,-0.81678 -1.03535,0 -1.70258,0.42564 -0.66723,0.42565 -1.02385,1.19641 v 9.21467 h -2.26628 v -12.44728 z"
         style="font-family:Roboto;-inkscape-font-specification:Roboto"
         id="path1069" /><path
         d="m 371.33958,-670.38772 0.16106,1.63356 q 0.60971,-0.8858 1.54153,-1.36897 0.94332,-0.49467 2.18575,-0.49467 1.24243,0 2.12823,0.5752 0.89731,0.5752 1.34597,1.72559 0.5867,-1.05836 1.55303,-1.67957 0.96633,-0.62122 2.25478,-0.62122 1.89815,0 3.00253,1.31145 1.10438,1.29995 1.10438,3.92285 v 7.44306 h -2.26628 v -7.46607 q 0,-1.84063 -0.63272,-2.59989 -0.63272,-0.77076 -1.88665,-0.77076 -1.1619,0 -1.88665,0.80527 -0.71324,0.80528 -0.83979,2.0362 v 0.092 7.90322 h -2.27778 v -7.46607 q 0,-1.7486 -0.65572,-2.55387 -0.64423,-0.81678 -1.86365,-0.81678 -1.03535,0 -1.70258,0.42564 -0.66723,0.42565 -1.02385,1.19641 v 9.21467 h -2.26628 v -12.44728 z"
         style="font-family:Roboto;-inkscape-font-specification:Roboto"
         id="path1071" /><path
         d="m 397.58011,-657.94044 q -0.11504,-0.56369 -0.18407,-0.98934 -0.0575,-0.43715 -0.069,-0.8743 -0.63272,0.89731 -1.65657,1.50702 -1.01235,0.5982 -2.18575,0.5982 -1.94417,0 -2.96802,-0.98934 -1.01235,-1.00084 -1.01235,-2.74944 0,-1.78311 1.438,-2.78396 1.44949,-1.01235 3.92284,-1.01235 h 2.46185 v -1.23092 q 0,-1.09287 -0.66723,-1.72559 -0.66723,-0.64422 -1.88665,-0.64422 -1.09287,0 -1.78311,0.56369 -0.67873,0.55219 -0.67873,1.33446 h -2.16275 l -0.023,-0.069 q -0.069,-1.35746 1.27694,-2.48485 1.35747,-1.12739 3.49721,-1.12739 2.11672,0 3.40517,1.08137 1.28844,1.06987 1.28844,3.09457 v 5.99356 q 0,0.66723 0.069,1.28844 0.069,0.62122 0.25309,1.21942 z m -3.7618,-1.65657 q 1.23093,0 2.22027,-0.63272 0.98934,-0.63271 1.28844,-1.44949 v -2.0247 h -2.54237 q -1.36897,0 -2.19726,0.69024 -0.81678,0.69023 -0.81678,1.62206 0,0.82828 0.51768,1.31145 0.51768,0.48316 1.53002,0.48316 z"
         style="font-family:Roboto;-inkscape-font-specification:Roboto"
         id="path1073" /><path
         d="m 405.89747,-673.39025 v 3.00253 h 2.35831 v 1.67958 h -2.35831 v 7.5581 q 0,0.8743 0.35662,1.23092 0.36813,0.35662 0.96633,0.35662 0.19557,0 0.42565,-0.046 0.24158,-0.046 0.42565,-0.11504 l 0.2991,1.55303 q -0.25309,0.20707 -0.74776,0.33362 -0.48316,0.13804 -0.97783,0.13804 -1.38048,0 -2.19726,-0.82828 -0.81678,-0.83979 -0.81678,-2.6229 v -7.5581 h -1.97868 v -1.67958 h 1.97868 v -3.00253 z"
         style="font-family:Roboto;-inkscape-font-specification:Roboto"
         id="path1075" /><path
         d="m 413.50158,-657.94044 h -2.26628 v -12.44728 h 2.26628 z m 0,-15.63387 h -2.26628 v -2.3123 h 2.26628 z"
         style="font-family:Roboto;-inkscape-font-specification:Roboto"
         id="path1077" /><path
         d="m 416.45809,-664.27912 q 0,-2.76095 1.49552,-4.54406 1.49551,-1.79462 4.06089,-1.79462 2.58839,0 4.08391,1.78312 1.50702,1.78311 1.50702,4.55556 v 0.25309 q 0,2.78396 -1.49552,4.55557 -1.49551,1.7716 -4.0724,1.7716 -2.57689,0 -4.0839,-1.7716 -1.49552,-1.78312 -1.49552,-4.55557 z m 2.26628,0.25309 q 0,1.97868 0.82829,3.26712 0.83979,1.28845 2.48485,1.28845 1.62206,0 2.46185,-1.28845 0.83979,-1.28844 0.83979,-3.26712 v -0.25309 q 0,-1.95567 -0.8513,-3.25562 -0.83979,-1.29994 -2.47335,-1.29994 -1.62205,0 -2.46184,1.29994 -0.82829,1.29995 -0.82829,3.25562 z"
         style="font-family:Roboto;-inkscape-font-specification:Roboto"
         id="path1079" /><path
         d="m 432.40258,-670.38772 0.16106,1.85214 q 0.62121,-0.98934 1.55303,-1.53003 0.94332,-0.55219 2.13974,-0.55219 2.01319,0 3.11757,1.18491 1.10438,1.1734 1.10438,3.63525 v 7.8572 h -2.26628 v -7.81118 q 0,-1.64507 -0.65573,-2.33531 -0.64422,-0.69023 -1.97868,-0.69023 -0.97783,0 -1.7371,0.47166 -0.74775,0.47166 -1.19641,1.28844 v 9.07662 h -2.26628 v -12.44728 z"
         style="font-family:Roboto;-inkscape-font-specification:Roboto"
         id="path1081" /><path
         d="m 460.21915,-663.69242 q 0,2.69193 -1.28844,4.3485 -1.28845,1.64506 -3.55473,1.64506 -1.15039,0 -2.02469,-0.37963 -0.8628,-0.39113 -1.47251,-1.1619 v 6.0856 h -2.26628 v -17.23293 h 1.7371 l 0.35662,1.61056 q 0.60971,-0.89731 1.51853,-1.36897 0.90881,-0.47167 2.11672,-0.47167 2.3123,0 3.58924,1.84064 1.28844,1.82912 1.28844,4.84316 z m -2.26628,-0.24158 q 0,-2.11673 -0.83979,-3.47419 -0.82828,-1.36897 -2.45034,-1.36897 -0.97784,0 -1.66807,0.44865 -0.69024,0.43715 -1.11589,1.20792 v 6.01656 q 0.42565,0.77077 1.11589,1.20792 0.69023,0.42565 1.69108,0.42565 1.61055,0 2.43884,-1.17341 0.82828,-1.18491 0.82828,-3.04855 z"
         style="font-family:Roboto;-inkscape-font-specification:Roboto"
         id="path1083" /><path
         d="m 470.65323,-657.94044 q -0.11504,-0.56369 -0.18407,-0.98934 -0.0575,-0.43715 -0.069,-0.8743 -0.63272,0.89731 -1.65657,1.50702 -1.01235,0.5982 -2.18575,0.5982 -1.94417,0 -2.96802,-0.98934 -1.01235,-1.00084 -1.01235,-2.74944 0,-1.78311 1.438,-2.78396 1.44949,-1.01235 3.92284,-1.01235 h 2.46185 v -1.23092 q 0,-1.09287 -0.66723,-1.72559 -0.66723,-0.64422 -1.88665,-0.64422 -1.09287,0 -1.78311,0.56369 -0.67873,0.55219 -0.67873,1.33446 h -2.16275 l -0.023,-0.069 q -0.069,-1.35746 1.27693,-2.48485 1.35747,-1.12739 3.49721,-1.12739 2.11672,0 3.40517,1.08137 1.28844,1.06987 1.28844,3.09457 v 5.99356 q 0,0.66723 0.069,1.28844 0.069,0.62122 0.25309,1.21942 z m -3.7618,-1.65657 q 1.23093,0 2.22027,-0.63272 0.98934,-0.63271 1.28844,-1.44949 v -2.0247 h -2.54237 q -1.36897,0 -2.19726,0.69024 -0.81678,0.69023 -0.81678,1.62206 0,0.82828 0.51768,1.31145 0.51768,0.48316 1.53002,0.48316 z"
         style="font-family:Roboto;-inkscape-font-specification:Roboto"
         id="path1085" /><path
         d="m 481.86959,-668.38603 -1.1619,-0.069 q -0.8973,0 -1.51852,0.42564 -0.60971,0.42565 -0.94332,1.19641 v 8.89256 h -2.26628 v -12.44728 h 2.02469 l 0.21858,1.81763 q 0.52918,-0.96634 1.29995,-1.50702 0.78227,-0.54069 1.79461,-0.54069 0.25309,0 0.48317,0.046 0.23008,0.0345 0.37963,0.0805 z"
         style="font-family:Roboto;-inkscape-font-specification:Roboto"
         id="path1087" /><path
         d="m 502.18558,-663.30128 0.023,0.069 q 0.046,2.35831 -1.65657,3.94586 -1.70259,1.58754 -4.49805,1.58754 -2.84148,0 -4.63609,-2.01319 -1.78312,-2.01319 -1.78312,-5.10775 v -2.97953 q 0,-3.09456 1.78312,-5.10775 1.79461,-2.0247 4.63609,-2.0247 2.84148,0 4.52106,1.51852 1.67957,1.50702 1.63356,4.00338 l -0.023,0.069 h -2.17425 q 0,-1.7601 -1.03535,-2.78396 -1.03536,-1.02385 -2.92201,-1.02385 -1.89815,0 -3.02554,1.53003 -1.12739,1.53002 -1.12739,3.7963 v 3.00254 q 0,2.28928 1.12739,3.81931 1.12739,1.53003 3.02554,1.53003 1.88665,0 2.92201,-1.01235 1.03535,-1.02385 1.03535,-2.81847 z"
         style="font-family:Roboto;-inkscape-font-specification:Roboto"
         id="path1089" /><path
         d="m 504.3023,-664.27912 q 0,-2.76095 1.49551,-4.54406 1.49552,-1.79462 4.0609,-1.79462 2.58839,0 4.0839,1.78312 1.50702,1.78311 1.50702,4.55556 v 0.25309 q 0,2.78396 -1.49551,4.55557 -1.49552,1.7716 -4.0724,1.7716 -2.57689,0 -4.08391,-1.7716 -1.49551,-1.78312 -1.49551,-4.55557 z m 2.26628,0.25309 q 0,1.97868 0.82828,3.26712 0.83979,1.28845 2.48486,1.28845 1.62206,0 2.46185,-1.28845 0.83978,-1.28844 0.83978,-3.26712 v -0.25309 q 0,-1.95567 -0.85129,-3.25562 -0.83979,-1.29994 -2.47335,-1.29994 -1.62206,0 -2.46185,1.29994 -0.82828,1.29995 -0.82828,3.25562 z"
         style="font-family:Roboto;-inkscape-font-specification:Roboto"
         id="path1091" /><path
         d="m 520.24679,-670.38772 0.16105,1.85214 q 0.62122,-0.98934 1.55304,-1.53003 0.94332,-0.55219 2.13973,-0.55219 2.0132,0 3.11758,1.18491 1.10437,1.1734 1.10437,3.63525 v 7.8572 h -2.26627 v -7.81118 q 0,-1.64507 -0.65573,-2.33531 -0.64422,-0.69023 -1.97868,-0.69023 -0.97784,0 -1.7371,0.47166 -0.74775,0.47166 -1.19641,1.28844 v 9.07662 h -2.26628 v -12.44728 z"
         style="font-family:Roboto;-inkscape-font-specification:Roboto"
         id="path1093" /><path
         d="m 534.60371,-673.39025 v 3.00253 h 2.35832 v 1.67958 h -2.35832 v 7.5581 q 0,0.8743 0.35663,1.23092 0.36812,0.35662 0.96633,0.35662 0.19557,0 0.42565,-0.046 0.24158,-0.046 0.42564,-0.11504 l 0.29911,1.55303 q -0.25309,0.20707 -0.74776,0.33362 -0.48317,0.13804 -0.97784,0.13804 -1.38047,0 -2.19725,-0.82828 -0.81678,-0.83979 -0.81678,-2.6229 v -7.5581 h -1.97868 v -1.67958 h 1.97868 v -3.00253 z"
         style="font-family:Roboto;-inkscape-font-specification:Roboto"
         id="path1095" /><path
         d="m 545.64752,-668.38603 -1.1619,-0.069 q -0.89731,0 -1.51852,0.42564 -0.60971,0.42565 -0.94333,1.19641 v 8.89256 h -2.26628 v -12.44728 h 2.0247 l 0.21857,1.81763 q 0.52919,-0.96634 1.29995,-1.50702 0.78227,-0.54069 1.79462,-0.54069 0.25308,0 0.48316,0.046 0.23008,0.0345 0.37963,0.0805 z"
         style="font-family:Roboto;-inkscape-font-specification:Roboto"
         id="path1097" /><path
         d="m 555.50641,-657.94044 q -0.11504,-0.56369 -0.18407,-0.98934 -0.0575,-0.43715 -0.069,-0.8743 -0.63272,0.89731 -1.65657,1.50702 -1.01235,0.5982 -2.18575,0.5982 -1.94417,0 -2.96802,-0.98934 -1.01235,-1.00084 -1.01235,-2.74944 0,-1.78311 1.438,-2.78396 1.44949,-1.01235 3.92284,-1.01235 h 2.46185 v -1.23092 q 0,-1.09287 -0.66723,-1.72559 -0.66723,-0.64422 -1.88665,-0.64422 -1.09287,0 -1.78311,0.56369 -0.67873,0.55219 -0.67873,1.33446 h -2.16275 l -0.023,-0.069 q -0.069,-1.35746 1.27693,-2.48485 1.35747,-1.12739 3.49721,-1.12739 2.11672,0 3.40517,1.08137 1.28844,1.06987 1.28844,3.09457 v 5.99356 q 0,0.66723 0.069,1.28844 0.069,0.62122 0.25309,1.21942 z m -3.7618,-1.65657 q 1.23093,0 2.22027,-0.63272 0.98934,-0.63271 1.28844,-1.44949 v -2.0247 h -2.54237 q -1.36897,0 -2.19726,0.69024 -0.81678,0.69023 -0.81678,1.62206 0,0.82828 0.51768,1.31145 0.51768,0.48316 1.53002,0.48316 z"
         style="font-family:Roboto;-inkscape-font-specification:Roboto"
         id="path1099" /><path
         d="m 563.28309,-657.94044 h -2.26628 v -12.44728 h 2.26628 z m 0,-15.63387 h -2.26628 v -2.3123 h 2.26628 z"
         style="font-family:Roboto;-inkscape-font-specification:Roboto"
         id="path1101" /><path
         d="m 568.79348,-670.38772 0.16106,1.85214 q 0.62121,-0.98934 1.55303,-1.53003 0.94332,-0.55219 2.13974,-0.55219 2.01319,0 3.11757,1.18491 1.10438,1.1734 1.10438,3.63525 v 7.8572 h -2.26628 v -7.81118 q 0,-1.64507 -0.65573,-2.33531 -0.64422,-0.69023 -1.97868,-0.69023 -0.97783,0 -1.7371,0.47166 -0.74775,0.47166 -1.19641,1.28844 v 9.07662 h -2.26628 v -12.44728 z"
         style="font-family:Roboto;-inkscape-font-specification:Roboto"
         id="path1103" /><path
         d="m 583.15041,-673.39025 v 3.00253 h 2.35831 v 1.67958 h -2.35831 v 7.5581 q 0,0.8743 0.35662,1.23092 0.36813,0.35662 0.96633,0.35662 0.19557,0 0.42565,-0.046 0.24158,-0.046 0.42564,-0.11504 l 0.29911,1.55303 q -0.25309,0.20707 -0.74776,0.33362 -0.48317,0.13804 -0.97784,0.13804 -1.38047,0 -2.19725,-0.82828 -0.81678,-0.83979 -0.81678,-2.6229 v -7.5581 h -1.97868 v -1.67958 h 1.97868 v -3.00253 z"
         style="font-family:Roboto;-inkscape-font-specification:Roboto"
         id="path1105" /><path
         d="m 593.46946,-657.69886 q -2.59989,0 -4.14142,-1.72559 -1.53003,-1.7371 -1.53003,-4.49805 v -0.50617 q 0,-2.65741 1.57604,-4.41752 1.58755,-1.77161 3.75029,-1.77161 2.51937,0 3.80781,1.51853 1.28844,1.51852 1.28844,4.04939 v 1.41498 h -8.07577 l -0.0345,0.0575 q 0.0345,1.79462 0.90881,2.95652 0.8743,1.1504 2.45034,1.1504 1.1504,0 2.01319,-0.32212 0.8743,-0.33361 1.50702,-0.90881 l 0.88581,1.47251 q -0.66723,0.65572 -1.76011,1.09287 -1.09288,0.43715 -2.64591,0.43715 z m -0.34512,-11.13582 q -1.13889,0 -1.94417,0.96633 -0.80527,0.95483 -0.98934,2.40432 l 0.023,0.0575 h 5.74047 v -0.2991 q 0,-1.33446 -0.71324,-2.23177 -0.71325,-0.8973 -2.11673,-0.8973 z"
         style="font-family:Roboto;-inkscape-font-specification:Roboto"
         id="path1107" /><path
         d="m 606.26185,-661.05801 q 0,-0.72475 -0.48317,-1.21942 -0.47166,-0.50617 -1.79462,-1.10438 -1.92116,-0.74776 -2.85298,-1.58754 -0.92031,-0.8513 -0.92031,-2.19726 0,-1.43799 1.12738,-2.43884 1.1389,-1.01235 2.97953,-1.01235 1.92116,0 3.06005,1.09288 1.13889,1.08137 1.09288,2.70343 l -0.023,0.069 h -2.24327 q 0,-0.8858 -0.50618,-1.51852 -0.49467,-0.64422 -1.38047,-0.64422 -0.8743,0 -1.36897,0.49467 -0.48317,0.49467 -0.48317,1.1619 0,0.71324 0.41414,1.12739 0.42565,0.41414 1.81763,1.08137 1.95567,0.70174 2.899,1.59905 0.95482,0.8858 0.95482,2.27778 0,1.54153 -1.1734,2.50786 -1.1734,0.96633 -3.08306,0.96633 -2.05921,0 -3.24411,-1.16189 -1.18491,-1.17341 -1.12739,-2.73795 l 0.023,-0.069 h 2.17424 q 0.046,1.20792 0.66723,1.7486 0.62122,0.52918 1.54153,0.52918 0.90881,0 1.41499,-0.46015 0.51768,-0.47167 0.51768,-1.20792 z"
         id="path1109" /></g></g></svg>
