<?xml version="1.0" encoding="utf-8"?>
<!-- Generator: Adobe Illustrator 22.1.0, SVG Export Plug-In . SVG Version: 6.00 Build 0)  -->
<svg version="1.1" id="Calque_1" xmlns="http://www.w3.org/2000/svg" xmlns:xlink="http://www.w3.org/1999/xlink" x="0px" y="0px"
	 viewBox="0 0 1000 500" style="enable-background:new 0 0 1000 500;" xml:space="preserve">
<style type="text/css">
	.st0{fill:#0BBBEF;}
	.st1{fill:#FBBA00;}
	.st2{fill:#0070BA;}
</style>
<g>
	<g>
		<g>
			<path d="M317.4,245.2h-8.9l-5.6-16.4h-29.1l-5.5,16.4h-8.9l23.1-68.4h11.9L317.4,245.2z M288.3,183.1L276.1,221h24.4L288.3,183.1
				z"/>
			<path d="M328.5,187.1v-12.4h8.6v12.4H328.5z M328.5,245.2v-50h8.6v50H328.5z"/>
			<path d="M347.1,245.2l16.4-25.2l-16.1-24.8h8.9l11.9,18.4l11.9-18.4h8.9L372.9,220l16.5,25.2h-9l-12.1-18.6l-12,18.6H347.1z"/>
		</g>
		<g>
			<path d="M459.4,189.7l-1.3,55.5h-8.5l2.4-68.4h11.2l19.7,52.9l19.7-52.9h11.2l2.4,68.4h-8.5l-1.3-55.5l-17.5,46.6h-11.9
				L459.4,189.7z"/>
			<path d="M563.1,245.2h-7.3l-0.5-3.7c-4.4,3.1-10.2,4.7-16.2,4.7c-9.3,0-13.2-5.5-13.2-14.4c0-10.4,5.2-14.1,15.3-14.1h13.3v-7.8
				c0-6.3-2.8-8.4-10.9-8.4c-4.8,0-9.5,0.5-13.4,1.3l-0.9-6.9c4.7-1.2,9.5-1.8,14.8-1.8c14.3,0,19,5.5,19,16.2V245.2z M554.5,224.9
				h-12.7c-5.3,0-7.3,1.6-7.3,6.7c0,5.1,0.9,7.2,7.1,7.2c4.3,0,9.1-1.6,12.9-4.1V224.9z"/>
			<path d="M599.4,202c-4.7,2.3-10.2,5.8-14.3,8.6v34.5h-8.6v-50h7.5l0.5,7c3.7-2.9,8.8-6,13.8-8L599.4,202z"/>
			<path d="M622,246.2c-5.1,0-11.9-1.1-15.9-2.7l1.1-6.8c4.3,1.2,10,2.1,14.3,2.1c7.9,0,9.2-1.4,9.2-6.8c0-5.3-0.4-6-10.5-8.4
				c-12.4-3.1-13.6-5.6-13.6-16c0-9.2,4.1-13.5,17.3-13.5c4.8,0,10.1,0.6,14.2,1.7l-0.6,7.1c-4.2-0.8-9.8-1.4-13.9-1.4
				c-7.4,0-8.4,1.7-8.4,6.3c0,5.5,0.1,6.6,8.5,8.6c14.4,3.6,15.5,5.3,15.5,15.3C639.3,241.5,636.3,246.2,622,246.2z"/>
			<path d="M670,238.8c4.9,0,10.4-0.9,15.8-2.4l1.1,6.9c-4.7,1.7-11.4,2.9-17.7,2.9c-14.8,0-19.8-7.1-19.8-18.4v-15
				c0-10.4,4.7-18.7,19.6-18.7c14.8,0,18.8,8.5,18.8,18.9v10.5h-29.8v4.2C658.1,235.6,660.3,238.8,670,238.8z M658.1,216.3h21.5
				v-4.1c0-7-2.4-10.9-10.5-10.9c-8.1,0-11,3.9-11,10.9V216.3z"/>
			<path d="M699.2,187.1v-12.4h8.6v12.4H699.2z M699.2,245.2v-50h8.6v50H699.2z"/>
			<path d="M724.2,245.2v-70.5l8.6-1.2v71.7H724.2z"/>
			<path d="M749.3,245.2v-70.5l8.6-1.2v71.7H749.3z"/>
			<path d="M788.9,238.8c4.9,0,10.4-0.9,15.8-2.4l1.1,6.9c-4.7,1.7-11.4,2.9-17.7,2.9c-14.8,0-19.8-7.1-19.8-18.4v-15
				c0-10.4,4.7-18.7,19.6-18.7c14.8,0,18.8,8.5,18.8,18.9v10.5H777v4.2C777,235.6,779.1,238.8,788.9,238.8z M777,216.3h21.5v-4.1
				c0-7-2.4-10.9-10.5-10.9c-8.1,0-11,3.9-11,10.9V216.3z"/>
		</g>
		<g>
			<path class="st0" d="M377.6,264.6v40c0,3.7,1.9,5,5.4,5c4.1,0,12.8-2.4,19-5.7v-39.3h5.9v49.5h-5.2l-0.4-4.5
				c-5.3,2.5-14.1,5.5-20.1,5.5c-7.7,0-10.5-4.4-10.5-11.2v-39.3H377.6z"/>
			<path class="st0" d="M456.7,314.1v-40c0-3.7-1.9-5-5.4-5c-4.1,0-12.8,2.4-19,5.7v39.3h-5.9v-49.5h5.2l0.4,4.5
				c5.3-2.5,14.1-5.5,20.1-5.5c7.7,0,10.5,4.4,10.5,11.2v39.3H456.7z"/>
			<path class="st0" d="M478,275.2v-10.9h5.9v10.9H478z M478,314.1v-33h5.9v33H478z"/>
			<path class="st0" d="M521.6,314.1h-9l-16.8-49.5h6l15.2,45.3l15.3-45.3h6L521.6,314.1z"/>
			<path class="st0" d="M564.8,309.9c5.1,0,10.8-1,15.6-2.3l1,4.8c-4.6,1.6-11.1,2.7-17.1,2.7c-13.9,0-18.4-7.2-18.4-18v-15.5
				c0-10.2,4.6-18,18.5-18c13.9,0,18,7.8,18,18v9.5h-30.6v6.2C551.9,306.1,554.9,309.9,564.8,309.9z M551.9,285.8h24.8v-4.5
				c0-8.3-2.9-12.7-12.2-12.7c-9.2,0-12.6,4.4-12.6,12.7V285.8z"/>
			<path class="st0" d="M618.6,269.4c-5.2,2.2-10.9,6-15.6,9.1v35.6h-5.9v-49.5h5.3l0.3,7.5c5.3-3.5,10.6-6.8,15.2-8.5L618.6,269.4z
				"/>
			<path class="st0" d="M643.1,315.1c-5,0-10.9-1-14.5-2.5l1-4.8c4.3,1.3,9.4,2,13.1,2c9.1,0,11-1.7,11-8c0-7.1-0.2-7.8-11.5-10.5
				c-12.4-2.9-13.4-6-13.4-15c0-8.2,4-12.7,16.1-12.7c4.6,0,10.2,0.6,14,1.7l-0.6,5c-4-0.8-9.7-1.4-13.8-1.4c-8.6,0-9.8,2.2-9.8,7.6
				c0,6.8,0.4,7.5,9.5,9.9c14.5,3.7,15.3,6,15.3,15.2C659.6,310.5,656.4,315.1,643.1,315.1z"/>
			<path class="st0" d="M673.9,275.2v-10.9h5.9v10.9H673.9z M673.9,314.1v-33h5.9v33H673.9z"/>
			<path class="st0" d="M722.4,313.5c-2.8,1.1-5.6,1.5-9.2,1.5c-7.8,0-11.2-2.8-11.2-10.7v-34.7h-9.5v-5.1h9.5v-10l5.9-0.8v10.8
				h13.5l-0.6,5.1h-12.9v34.1c0,4.4,0.6,6.2,5.7,6.2c2.7,0,4.7-0.1,7.7-1L722.4,313.5z"/>
			<path class="st0" d="M749.5,309.9c5.1,0,10.8-1,15.6-2.3l1,4.8c-4.6,1.6-11.1,2.7-17.1,2.7c-13.9,0-18.4-7.2-18.4-18v-15.5
				c0-10.2,4.6-18,18.5-18c13.9,0,18,7.8,18,18v9.5h-30.6v6.2C736.6,306.1,739.6,309.9,749.5,309.9z M736.6,285.8h24.8v-4.5
				c0-8.3-3-12.7-12.2-12.7c-9.2,0-12.6,4.4-12.6,12.7V285.8z"/>
		</g>
		<path class="st0" d="M742.8,255.5c4.6-1.5,9.9-3.3,15-5.2l1.8,5.1c-5,2-10.6,3.6-15.2,4.9L742.8,255.5z"/>
		<path class="st1" d="M437.5,229.3l-13.5-7.8c0,0-0.2-0.1-0.6-0.4c0.2-0.1,0.4-0.2,0.6-0.4l13.5-7.8c0.6-0.4,0.8-0.9,0.9-1.4
			c0.1-0.5,0.1-1,0.1-1.4c0-0.6-0.1-1-0.1-1l0-0.3l-0.3-0.2c-0.1,0-1.4-1.2-2.9-1.3c-0.3,0-0.6,0.1-0.8,0.2l-13.5,7.8
			c-0.2,0.1-0.4,0.2-0.6,0.4c0-0.2,0-0.5,0-0.7v-28.4c-0.1-1.1-0.9-1.6-1.5-2c-0.6-0.4-1.2-0.7-1.3-0.7l-0.3-0.1l-0.3,0.1
			c0,0-0.6,0.3-1.3,0.7c-0.6,0.4-1.4,0.9-1.5,2v28.4c0,0.2,0,0.5,0,0.7c-0.2-0.1-0.4-0.2-0.6-0.4l-13.5-7.8
			c-0.3-0.2-0.6-0.2-0.8-0.2c-1.5,0.1-2.8,1.2-2.9,1.3l-0.3,0.2l0,0.3c0,0-0.1,0.5-0.1,1c0,0.4,0,0.9,0.1,1.4c0.1,0.5,0.3,1,0.9,1.4
			l13.5,7.8c0.2,0.1,0.4,0.2,0.6,0.4c-0.4,0.2-0.6,0.4-0.6,0.4l-13.5,7.8c-0.6,0.3-0.8,0.9-0.9,1.4c-0.1,0.5-0.1,1-0.1,1.4
			c0,0.6,0.1,1,0.1,1l0,0.3l0.3,0.2c0.1,0,1.4,1.2,2.9,1.3h0c0.3,0,0.6-0.1,0.8-0.2l13.5-7.8h0c0,0,0.2-0.1,0.6-0.4
			c0,0.5,0,0.7,0,0.7v15.6c0.1,1.1,0.9,1.6,1.5,2c0.6,0.4,1.2,0.7,1.3,0.7l0.3,0.1l0.3-0.1c0,0,0.6-0.3,1.3-0.7
			c0.6-0.4,1.4-0.9,1.5-2l0-15.6h0c0,0,0-0.3,0-0.7c0.4,0.2,0.6,0.4,0.6,0.4l13.5,7.8c0.3,0.2,0.6,0.2,0.8,0.2
			c1.5-0.1,2.8-1.2,2.9-1.3l0.3-0.2l0-0.3c0,0,0.1-0.4,0.1-1c0-0.4,0-0.9-0.1-1.4C438.3,230.2,438.1,229.6,437.5,229.3z"/>
		<g>
			<path class="st2" d="M193.2,249.4c0-11,0.9-21.3,2.8-30.9c1.9-9.6,4.8-19,8.6-28.3c3.9-9.3,8.6-18.6,14.3-28
				c3.4-5.7,6.5-9.7,8.6-12.3c2.3-2.7,4.6-5.6,7.9-5.6c3.6,0,5.4,1,5.4,3c0,0.7-1.7,4.6-5,11.9c-3.4,7.3-6.5,14.9-9.5,22.8
				c-3,8-5.7,17.9-8.2,29.8c-2.5,11.9-3.8,24.5-3.8,37.8c0,13.1,1.2,25.6,3.7,37.3c2.5,11.7,6,21.9,9.2,30.5
				c3.2,8.6,5.7,16.3,8.8,23.1c3.2,6.8,4.8,10.5,4.8,11.1c0,2-1.8,3-5.4,3c-3.4,0-5.7-3.4-7.9-5.9c-2.3-2.6-5.1-6.6-8.6-12.3
				c-5.8-9.6-10.5-18.9-14.3-27.9c-3.8-8.9-6.6-18.2-8.6-27.9C194.2,270.9,193.2,260.5,193.2,249.4z"/>
		</g>
	</g>
	<g>
		<path class="st2" d="M374.4,335.6h2.4l-3.4,19.1h-2.4L374.4,335.6z"/>
		<path class="st2" d="M397.9,342.9c0,0.3,0,0.7-0.1,1.2l-1.9,10.6h-2.3l1.9-10.7c0-0.2,0.1-0.4,0.1-0.5c0-0.6-0.3-0.8-1-0.8
			c-1.4,0-3.6,1-5.3,2.1l-1.8,9.9h-2.3l2.4-13.8l2.1-0.3l-0.2,2c1.4-1,4.2-2.1,5.9-2.1C397.1,340.4,397.9,341.4,397.9,342.9z"/>
		<path class="st2" d="M409.6,340.9l2.4-0.3l-2.5,14.1h-2.3L409.6,340.9z M410.6,335l2.4-0.3l-0.6,3.6l-2.4,0.3L410.6,335z"/>
		<path class="st2" d="M422.1,352.7c0-0.1,0-0.3,0.1-0.6l1.7-9.4h-2.5l0.3-1.9h2.5l0.6-3.4l2.4-0.3l-0.7,3.8h3.8l-0.4,1.9h-3.8
			l-1.7,9.4c0,0.2,0,0.2,0,0.3c0,0.4,0.2,0.6,0.8,0.6c0.8,0,1.6-0.2,2.6-0.6l0.5,1.6c-1.2,0.6-2.4,0.9-3.8,0.9
			C422.9,355,422.1,354,422.1,352.7z"/>
		<path class="st2" d="M440.5,340.9l2.4-0.3l-2.5,14.1h-2.3L440.5,340.9z M441.5,335l2.4-0.3l-0.6,3.6l-2.4,0.3L441.5,335z"/>
		<path class="st2" d="M461.9,354.7h-1.9l0.1-1.7c-1.5,1.4-3.4,2-5.2,2c-2.1,0-2.9-1.2-2.9-2.8c0-0.3,0.1-0.7,0.1-1.1l1-5.5
			c0.6-3.4,1.9-5.1,6.3-5.1c1.7,0,3.6,0.4,5,0.9L461.9,354.7z M461.6,342.8c-0.7-0.2-1.7-0.3-2.7-0.3c-2.2,0-3.2,0.7-3.7,3.4l-0.9,5
			c-0.1,0.3-0.1,0.7-0.1,1c0,0.7,0.3,1,1.1,1c1.8,0,3.3-1,4.9-2.4L461.6,342.8z"/>
		<path class="st2" d="M474.5,352.7c0-0.1,0-0.3,0.1-0.6l1.7-9.4h-2.5l0.3-1.9h2.5l0.6-3.4l2.4-0.3l-0.7,3.8h3.8l-0.4,1.9h-3.8
			l-1.7,9.4c0,0.2,0,0.2,0,0.3c0,0.4,0.2,0.6,0.8,0.6c0.8,0,1.6-0.2,2.6-0.6l0.5,1.6c-1.2,0.6-2.4,0.9-3.8,0.9
			C475.3,355,474.5,354,474.5,352.7z"/>
		<path class="st2" d="M492.9,340.9l2.4-0.3l-2.5,14.1h-2.3L492.9,340.9z M493.9,335l2.4-0.3l-0.6,3.6l-2.4,0.3L493.9,335z"/>
		<path class="st2" d="M506.9,354.7l-2.2-13.8l2.3-0.3l1.8,12.2l4-8.3c0.4-0.9,0.5-1.4,0.5-2.1c0-0.4-0.1-1.1-0.2-1.5l2.3-0.3
			c0.1,0.5,0.2,1.1,0.2,1.8c0,0.7,0,1.5-0.5,2.4l-4.8,9.9H506.9z"/>
		<path class="st2" d="M526,351c-0.1,0.3-0.1,0.5-0.1,0.6c0,0.9,0.4,1.4,1.9,1.4c1.5,0,3.2-0.5,5.1-1.5l0.5,1.7
			c-1.8,1-3.6,1.7-5.9,1.7c-2.8,0-3.9-1.3-3.9-3.2c0-0.3,0-0.8,0.1-1.3l0.8-4.7c0.6-3.5,2.2-5.3,6.2-5.3c2.3,0,4,1.1,4,3.2
			c0,2.4-1.1,3.5-5,4.8c-1.7,0.6-2.2,0.7-3.4,1.1L526,351z M532.5,343.9c0-0.9-0.7-1.5-1.9-1.5c-2.2,0-3.2,0.8-3.6,3.1l-0.3,1.9
			c0.8-0.2,1.2-0.4,2.6-0.8C531.5,345.9,532.5,345,532.5,343.9z"/>
		<path class="st2" d="M566.4,354.7h-2.1l0.1-1.7c-1.6,1.4-3.5,2-5.3,2c-2.2,0-2.9-1.2-2.9-2.8c0-0.3,0-0.7,0.1-1.1l1-5.5
			c0.6-3.4,1.8-5.2,6.2-5.2c0.9,0,1.9,0.1,2.9,0.4l1-5.8l2.4-0.3L566.4,354.7z M566.1,342.8c-0.7-0.2-2-0.3-2.8-0.3
			c-2.5,0-3.2,0.7-3.7,3.4l-0.9,5.1c-0.1,0.3-0.1,0.6-0.1,0.9c0,0.7,0.3,1.1,1.1,1.1c1.7,0,3.4-1,5-2.3L566.1,342.8z"/>
		<path class="st2" d="M580.7,335h1.8l-1.2,7h-1.8L580.7,335z"/>
		<path class="st2" d="M592.9,351c-0.1,0.3-0.1,0.5-0.1,0.6c0,0.9,0.4,1.4,1.9,1.4c1.5,0,3.2-0.5,5.1-1.5l0.5,1.7
			c-1.8,1-3.6,1.7-5.9,1.7c-2.8,0-3.9-1.3-3.9-3.2c0-0.3,0-0.8,0.1-1.3l0.8-4.7c0.6-3.5,2.2-5.3,6.2-5.3c2.3,0,4,1.1,4,3.2
			c0,2.4-1.1,3.5-5,4.8c-1.7,0.6-2.2,0.7-3.4,1.1L592.9,351z M599.4,343.9c0-0.9-0.7-1.5-1.9-1.5c-2.2,0-3.2,0.8-3.6,3.1l-0.3,1.9
			c0.8-0.2,1.2-0.4,2.6-0.8C598.4,345.9,599.4,345,599.4,343.9z"/>
		<path class="st2" d="M614.4,347.7l-3.2-6.8l2.2-0.3l2.6,5.5l4.1-5.4h2.7l-5.8,7.2l3.3,6.8h-2.4l-2.4-5l-4.2,5h-2.6L614.4,347.7z"
			/>
		<path class="st2" d="M640,343c-1-0.3-2.1-0.5-3-0.5c-2.3,0-3.1,0.8-3.6,3.4l-0.9,5.2c0,0.2-0.1,0.4-0.1,0.6c0,0.9,0.5,1.2,1.7,1.2
			c1.3,0,2.9-0.4,4.3-0.9l0.3,1.9c-1.4,0.6-3.1,1.1-4.9,1.1c-2.6,0-3.8-1.2-3.8-3.1c0-0.2,0-0.6,0.1-1.1l0.9-5.2
			c0.7-3.9,2.3-5.1,6-5.1c1,0,2.4,0.2,3.4,0.6L640,343z"/>
		<path class="st2" d="M651,351c-0.1,0.3-0.1,0.5-0.1,0.6c0,0.9,0.4,1.4,1.9,1.4c1.5,0,3.2-0.5,5.1-1.5l0.5,1.7
			c-1.8,1-3.6,1.7-5.9,1.7c-2.8,0-3.9-1.3-3.9-3.2c0-0.3,0-0.8,0.1-1.3l0.8-4.7c0.6-3.5,2.2-5.3,6.2-5.3c2.3,0,4,1.1,4,3.2
			c0,2.4-1.1,3.5-5,4.8c-1.7,0.6-2.2,0.7-3.4,1.1L651,351z M657.5,343.9c0-0.9-0.7-1.5-1.9-1.5c-2.2,0-3.2,0.8-3.6,3.1l-0.3,1.9
			c0.8-0.2,1.2-0.4,2.6-0.8C656.5,345.9,657.5,345,657.5,343.9z"/>
		<path class="st2" d="M671.7,335l2.4-0.3l-3.5,20h-2.3L671.7,335z"/>
		<path class="st2" d="M685.4,335l2.4-0.3l-3.5,20h-2.3L685.4,335z"/>
		<path class="st2" d="M698.2,351c-0.1,0.3-0.1,0.5-0.1,0.6c0,0.9,0.4,1.4,1.9,1.4c1.5,0,3.2-0.5,5.1-1.5l0.5,1.7
			c-1.8,1-3.6,1.7-5.9,1.7c-2.8,0-3.9-1.3-3.9-3.2c0-0.3,0-0.8,0.1-1.3l0.8-4.7c0.6-3.5,2.2-5.3,6.2-5.3c2.3,0,4,1.1,4,3.2
			c0,2.4-1.1,3.5-5,4.8c-1.7,0.6-2.2,0.7-3.4,1.1L698.2,351z M704.7,343.9c0-0.9-0.7-1.5-1.9-1.5c-2.2,0-3.2,0.8-3.6,3.1l-0.3,1.9
			c0.8-0.2,1.2-0.4,2.6-0.8C703.8,345.9,704.7,345,704.7,343.9z"/>
		<path class="st2" d="M728.1,342.9c0,0.3,0,0.7-0.1,1.2l-1.9,10.6h-2.3l1.9-10.7c0-0.2,0.1-0.4,0.1-0.5c0-0.6-0.3-0.8-1-0.8
			c-1.4,0-3.6,1-5.3,2.1l-1.8,9.9h-2.3l2.4-13.8l2.1-0.3l-0.2,2c1.4-1,4.2-2.1,5.9-2.1C727.4,340.4,728.1,341.4,728.1,342.9z"/>
		<path class="st2" d="M747.3,343c-1-0.3-2.1-0.5-3-0.5c-2.3,0-3.1,0.8-3.6,3.4l-0.9,5.2c0,0.2-0.1,0.4-0.1,0.6
			c0,0.9,0.5,1.2,1.7,1.2c1.3,0,2.9-0.4,4.3-0.9l0.3,1.9c-1.4,0.6-3.1,1.1-4.9,1.1c-2.6,0-3.8-1.2-3.8-3.1c0-0.2,0-0.6,0.1-1.1
			l0.9-5.2c0.7-3.9,2.3-5.1,6-5.1c1,0,2.4,0.2,3.4,0.6L747.3,343z"/>
		<path class="st2" d="M758.4,351c-0.1,0.3-0.1,0.5-0.1,0.6c0,0.9,0.4,1.4,1.9,1.4c1.5,0,3.2-0.5,5.1-1.5l0.5,1.7
			c-1.8,1-3.6,1.7-5.9,1.7c-2.8,0-3.9-1.3-3.9-3.2c0-0.3,0-0.8,0.1-1.3l0.8-4.7c0.6-3.5,2.2-5.3,6.2-5.3c2.3,0,4,1.1,4,3.2
			c0,2.4-1.1,3.5-5,4.8c-1.7,0.6-2.2,0.7-3.4,1.1L758.4,351z M764.9,343.9c0-0.9-0.7-1.5-1.9-1.5c-2.2,0-3.2,0.8-3.6,3.1l-0.3,1.9
			c0.8-0.2,1.2-0.4,2.6-0.8C763.9,345.9,764.9,345,764.9,343.9z"/>
	</g>
</g>
</svg>
