<svg version="1.0" xmlns="http://www.w3.org/2000/svg" width="14942" height="6014" preserveAspectRatio="xMidYMid meet"><rect id="backgroundrect" width="100%" height="100%" x="0" y="0" fill="none" stroke="none"/>



<g class="currentLayer" style=""><title>Layer 1</title><g id="layer101" fill="#193476" stroke="none" class="" fill-opacity="1">
 <path d="M373.14111328125,6010 c-16,-4 -40,-12 -52,-18 c-12,-7 -33,-12 -47,-12 c-14,0 -26,-5 -26,-11 c0,-5 -5,-7 -11,-4 c-6,4 -17,-1 -24,-11 c-8,-11 -15,-16 -15,-12 c0,4 -29,-22 -65,-58 c-61,-62 -118,-142 -113,-160 c1,-5 -4,-26 -11,-47 c-8,-24 -11,-65 -8,-115 c3,-42 6,-77 7,-77 c1,0 3,-11 6,-24 c2,-12 13,-34 24,-48 c11,-14 20,-34 20,-44 c0,-11 5,-19 10,-19 c6,0 10,-5 10,-10 c0,-6 18,-29 40,-51 c22,-22 40,-45 40,-50 c0,-5 10,-9 21,-9 c13,0 51,-29 98,-75 c42,-41 86,-83 99,-92 c13,-10 55,-47 93,-83 c38,-36 69,-65 69,-63 c0,2 29,-26 65,-60 c36,-35 67,-61 70,-59 c2,3 7,-3 11,-12 c3,-9 11,-16 18,-16 c6,0 31,-20 55,-45 c24,-25 48,-45 53,-45 c10,0 38,-25 38,-34 c0,-9 39,-46 49,-46 c5,0 39,-29 76,-65 c38,-36 72,-65 76,-65 c4,0 9,-7 13,-15 c3,-8 11,-15 19,-15 c7,0 26,-13 41,-29 l28,-29 l-224,-4 c-221,-4 -224,-4 -312,-36 c-201,-72 -350,-196 -459,-380 c-62,-105 -89,-206 -95,-359 c-7,-177 25,-328 89,-428 c70,-109 84,-128 148,-190 c96,-94 192,-156 307,-196 l99,-34 l898,-3 l897,-3 l0,205 l0,205 l-847,4 c-899,3 -887,3 -979,50 c-47,24 -144,135 -173,197 c-23,48 -26,68 -26,155 c0,90 3,106 29,160 c18,38 55,85 97,127 c57,56 79,70 136,89 c65,22 85,23 476,27 c300,3 407,1 407,-8 c0,-6 4,-9 9,-6 c8,5 88,-62 90,-76 c1,-5 2,-7 4,-6 c3,3 46,-32 72,-59 c12,-13 27,-23 33,-23 c5,0 24,-16 41,-35 c17,-20 31,-32 31,-28 c1,4 10,-3 20,-16 c11,-13 20,-20 20,-16 c0,3 15,-9 34,-27 c18,-18 39,-38 47,-44 c8,-6 23,-23 34,-37 c11,-15 39,-39 62,-54 c24,-15 43,-31 43,-36 c0,-4 5,-5 10,-2 c6,3 10,-1 10,-9 c0,-9 6,-16 13,-16 c8,0 25,-12 39,-27 c14,-16 36,-35 49,-43 c13,-8 40,-31 60,-50 c21,-19 48,-42 60,-50 c13,-8 43,-33 68,-56 c26,-22 54,-47 65,-55 c10,-8 39,-33 65,-56 c122,-109 158,-141 182,-159 c31,-23 152,-128 192,-166 c16,-16 35,-28 43,-28 c8,0 19,-11 24,-25 c5,-14 17,-25 25,-25 c9,0 18,-7 21,-15 c3,-8 14,-17 25,-20 c10,-4 19,-13 19,-21 c0,-8 7,-14 15,-14 c9,0 30,-15 48,-33 c17,-18 55,-51 82,-71 c28,-21 63,-53 80,-70 c16,-17 31,-30 32,-29 c3,3 43,-29 74,-59 c10,-9 28,-22 40,-29 c29,-15 43,-26 90,-70 c22,-20 50,-44 64,-53 c14,-9 24,-20 22,-24 c-1,-4 1,-8 6,-9 c9,-3 29,-19 63,-50 c13,-12 24,-19 24,-15 c0,4 7,-2 15,-12 c8,-11 15,-17 15,-14 c0,3 19,-12 43,-34 c23,-21 55,-49 71,-61 c17,-12 48,-39 69,-59 c22,-21 46,-38 53,-38 c8,0 19,-9 26,-20 c7,-11 18,-20 23,-20 c6,0 27,-18 47,-39 c19,-21 45,-42 56,-46 c12,-3 29,-16 39,-28 c10,-12 41,-39 70,-60 c29,-21 63,-51 77,-68 c14,-16 31,-29 39,-29 c8,0 43,-28 78,-61 c35,-34 69,-62 75,-63 c5,-1 17,-7 25,-14 c46,-40 67,-55 89,-67 c14,-7 39,-28 57,-46 c42,-44 60,-59 72,-59 c6,0 14,-6 18,-13 c4,-6 27,-25 51,-41 c24,-16 46,-35 50,-42 c4,-7 12,-14 17,-15 c12,-3 27,-15 61,-46 c14,-13 29,-23 34,-23 c6,0 10,-5 10,-11 c0,-5 5,-7 10,-4 c6,3 13,-1 16,-9 c3,-9 12,-16 20,-16 c8,0 14,-7 14,-15 c0,-9 11,-21 25,-27 c14,-6 25,-15 25,-20 c0,-4 3,-7 8,-6 c13,5 172,-118 172,-133 c0,-5 7,-9 15,-9 c9,0 18,-7 21,-15 c3,-8 15,-17 25,-20 c11,-4 31,-18 44,-31 c14,-14 25,-21 25,-17 c0,4 5,0 11,-9 c5,-10 19,-18 29,-18 c11,0 20,-4 20,-10 c0,-5 7,-10 15,-10 c8,0 20,-9 27,-20 c7,-11 37,-35 66,-52 c28,-18 52,-36 52,-41 c0,-4 5,-5 10,-2 c6,3 13,-1 16,-9 c3,-9 10,-13 15,-11 c4,3 14,-3 21,-15 c7,-11 19,-20 27,-20 c8,0 21,-7 30,-15 c37,-34 88,-71 124,-89 c20,-11 37,-26 37,-34 c0,-8 6,-12 15,-8 c8,3 20,-3 28,-14 c7,-10 25,-22 41,-26 c15,-3 33,-15 39,-25 c7,-11 18,-19 25,-19 c7,0 11,-4 8,-9 c-4,-5 7,-12 23,-16 c26,-5 66,-31 119,-75 c6,-6 12,-8 12,-5 c0,4 13,-3 29,-14 c16,-12 36,-21 45,-21 c9,0 16,-4 16,-10 c0,-5 5,-10 10,-10 c6,0 27,-11 48,-25 c20,-13 53,-30 72,-36 c19,-7 37,-15 40,-18 c11,-13 106,-55 125,-56 c11,0 25,-3 30,-6 c6,-4 31,-10 58,-13 c26,-4 47,-11 47,-16 c0,-4 10,-8 23,-8 c12,0 33,-3 47,-6 c14,-4 61,-6 105,-6 c44,1 88,1 97,1 c10,0 20,5 23,10 c4,5 11,7 16,4 c5,-4 9,-1 9,4 c0,6 8,11 19,11 c10,0 30,9 43,20 c14,10 28,17 30,14 c6,-5 119,109 148,148 c8,12 27,34 43,49 c15,15 27,34 27,43 c0,9 4,16 8,16 c8,0 47,76 47,91 c0,4 3,10 7,14 c3,4 4,18 2,32 c-3,15 -2,33 2,42 c9,22 10,72 2,77 c-4,3 -5,11 -1,19 c3,9 1,21 -4,28 c-5,6 -9,19 -8,27 c1,8 -3,24 -9,35 c-6,11 -11,23 -12,28 c-1,4 -2,8 -4,10 c-1,1 -3,9 -5,17 c-23,104 -44,154 -84,202 c-8,9 -21,36 -29,59 c-8,24 -27,55 -44,71 c-16,15 -27,32 -24,37 c3,5 -1,11 -9,15 c-8,3 -15,15 -15,26 c0,11 -9,28 -20,37 c-11,10 -20,20 -20,24 c0,4 -13,21 -30,39 c-16,18 -27,36 -24,41 c3,5 -2,12 -10,15 c-9,3 -16,15 -16,25 c0,11 -7,22 -15,25 c-8,4 -25,24 -37,45 c-12,21 -25,39 -30,39 c-4,0 -8,6 -8,13 c0,7 -12,22 -27,34 c-16,11 -35,33 -43,49 c-8,16 -28,42 -45,59 c-16,17 -41,46 -55,64 c-14,18 -31,39 -37,46 c-7,8 -13,16 -13,19 c0,3 -10,15 -22,28 c-13,13 -34,38 -48,56 c-14,18 -44,53 -67,79 c-24,25 -43,50 -43,55 c0,5 -11,21 -25,36 c-14,15 -25,33 -25,40 c0,7 -4,11 -8,8 c-5,-3 -15,4 -23,15 c-8,11 -44,52 -81,92 c-38,39 -68,76 -68,82 c0,5 -18,23 -40,38 c-22,16 -40,34 -40,41 c0,8 -19,29 -43,49 c-23,19 -49,47 -57,63 c-8,15 -33,47 -55,69 c-50,51 -129,139 -173,191 c-18,21 -42,49 -55,62 l-22,22 l187,0 c186,0 187,0 206,-25 c11,-13 22,-22 25,-18 c4,3 9,-2 13,-11 c3,-9 12,-16 20,-16 c7,0 21,-11 29,-24 c9,-13 29,-29 45,-36 c17,-7 30,-16 30,-21 c0,-5 5,-9 12,-9 c6,0 26,-15 43,-32 c41,-42 62,-58 74,-58 c5,0 23,-13 40,-29 c17,-16 38,-31 46,-35 c8,-3 15,-10 15,-16 c0,-6 4,-9 9,-5 c6,3 14,-2 19,-11 c5,-9 13,-16 18,-17 c11,-1 26,-13 65,-49 c16,-14 29,-24 29,-20 c0,4 10,-3 23,-16 c20,-20 44,-41 95,-84 c11,-9 23,-14 26,-11 c3,3 8,-2 12,-11 c3,-9 10,-13 15,-10 c5,3 12,-2 15,-10 c3,-9 10,-16 16,-16 c5,0 15,-6 22,-12 c35,-34 64,-55 98,-71 c21,-10 44,-27 53,-40 c8,-12 15,-18 15,-13 c0,5 12,-3 26,-18 c15,-14 32,-26 39,-26 c7,0 26,-15 41,-32 c15,-18 27,-31 28,-30 c2,8 72,-35 98,-60 c15,-14 28,-24 28,-20 c0,3 12,-6 28,-20 c15,-14 37,-29 49,-32 c12,-4 31,-18 42,-32 c10,-13 24,-24 31,-24 c6,0 9,-4 6,-9 c-4,-5 7,-12 24,-16 c17,-4 38,-14 47,-23 c9,-9 20,-17 25,-17 c5,0 13,-7 18,-15 c5,-8 10,-11 10,-7 c0,5 12,-1 26,-12 c15,-12 33,-21 40,-21 c8,0 14,-4 14,-10 c0,-5 7,-10 15,-10 c9,0 18,-7 21,-15 c4,-8 10,-13 14,-10 c5,3 15,-4 24,-16 c8,-12 19,-18 25,-14 c6,3 11,2 11,-3 c0,-5 28,-19 63,-32 c34,-12 67,-26 73,-31 c32,-26 134,-49 219,-51 c94,-1 198,18 188,35 c-4,6 0,8 9,4 c9,-3 21,0 27,6 c6,6 11,7 11,3 c0,-5 7,-3 15,4 c9,7 18,10 21,8 c8,-8 144,60 144,72 c0,5 7,10 15,10 c8,0 14,6 13,13 c-2,6 3,11 10,9 c6,-1 12,2 12,7 c0,4 17,30 38,57 c43,56 60,88 66,124 c3,14 5,26 6,28 c2,3 2,171 -1,177 c-1,3 -3,10 -4,15 c-1,6 -3,11 -4,13 c-2,1 -4,13 -7,27 c-2,14 -7,32 -11,40 c-3,8 -8,24 -10,35 c-3,11 -6,25 -7,30 c-2,6 -6,24 -11,40 c-4,17 -16,42 -26,57 c-11,14 -19,31 -19,37 c0,16 -86,179 -101,191 c-4,3 -9,15 -13,26 c-4,12 -14,31 -24,42 c-34,41 -57,76 -54,84 c1,4 -2,8 -8,8 c-5,0 -20,22 -33,50 c-13,27 -36,59 -50,70 c-15,12 -24,27 -21,35 c3,7 -4,22 -15,32 c-12,9 -21,22 -21,28 c0,6 -9,16 -20,23 c-11,7 -20,20 -20,30 c0,9 -11,26 -25,36 c-14,10 -25,25 -25,32 c0,7 -9,18 -20,24 c-11,6 -20,17 -20,25 c0,8 -7,23 -16,33 c-24,27 -84,121 -84,131 c0,5 -4,11 -8,13 c-4,2 -21,21 -37,43 c-17,22 -36,44 -42,48 c-7,4 -13,15 -13,23 c0,8 -9,22 -20,31 c-11,10 -20,21 -20,25 c0,5 -8,16 -18,27 c-27,30 -52,64 -52,73 c0,9 -14,28 -43,57 c-10,10 -27,35 -38,56 c-11,21 -36,53 -55,73 c-19,19 -34,41 -34,49 c0,7 -4,13 -9,13 c-5,0 -12,8 -15,18 c-3,10 -26,40 -51,67 c-25,28 -45,57 -45,66 c0,9 -6,19 -13,22 c-7,3 -31,31 -53,63 c-21,33 -45,63 -51,67 c-7,4 -13,13 -13,20 c0,7 -9,18 -20,25 c-11,7 -20,21 -20,32 c0,11 -4,20 -8,20 c-4,0 -15,13 -25,29 c-9,16 -30,43 -47,61 c-16,18 -30,38 -30,44 c0,7 -11,23 -25,36 c-28,26 -33,50 -10,50 c16,0 27,-8 66,-42 c10,-10 19,-15 19,-10 c1,4 9,-3 18,-14 c10,-12 32,-29 49,-38 c17,-8 41,-28 52,-42 c12,-15 21,-23 21,-18 c0,5 6,2 13,-7 c7,-9 22,-19 34,-23 c12,-4 36,-20 52,-35 c17,-16 32,-26 35,-24 c3,3 11,-4 18,-16 c7,-12 17,-21 23,-21 c5,0 24,-12 40,-28 c32,-28 59,-47 84,-59 c8,-4 29,-22 47,-40 c18,-18 37,-33 43,-33 c6,0 11,-5 11,-12 c0,-6 3,-8 6,-5 c10,10 64,-25 64,-41 c0,-7 4,-11 8,-8 c5,3 20,-6 35,-20 c14,-13 30,-24 35,-24 c5,0 29,-18 52,-40 c23,-22 49,-40 57,-40 c7,0 16,-7 19,-15 c4,-8 14,-15 24,-15 c10,0 35,-15 54,-34 c20,-18 37,-31 39,-29 c2,2 12,-6 22,-17 c10,-11 25,-20 34,-20 c20,-1 51,-24 51,-39 c0,-6 7,-11 15,-11 c8,0 15,-4 15,-9 c0,-5 8,-12 18,-15 c10,-4 34,-20 53,-36 c19,-16 39,-34 46,-40 c7,-6 16,-9 20,-8 c13,4 93,-51 93,-64 c0,-6 3,-8 7,-5 c3,4 21,-4 39,-18 c18,-14 37,-25 42,-25 c5,0 22,-12 38,-28 c16,-15 32,-28 36,-30 c26,-8 84,-38 86,-45 c2,-4 8,-5 13,-2 c4,3 14,-3 21,-15 c7,-11 18,-20 25,-20 c7,0 13,-4 13,-10 c0,-5 7,-10 15,-10 c8,0 15,-5 15,-11 c0,-5 4,-8 9,-5 c10,7 71,-23 83,-39 c5,-7 8,-7 8,0 c0,6 7,1 15,-9 c8,-11 15,-16 15,-12 c0,4 15,-4 33,-18 c19,-15 44,-26 55,-26 c12,0 22,-4 22,-10 c0,-5 7,-10 15,-10 c16,0 96,-37 105,-49 c3,-3 22,-7 43,-9 c21,-1 63,-14 93,-28 l54,-25 l0,-60 l0,-59 l205,0 l204,0 l3,71 l3,72 l44,13 c25,7 49,20 53,29 c5,8 13,13 18,10 c6,-3 20,3 32,14 c12,12 26,21 30,21 c5,0 7,4 4,9 c-3,5 14,26 37,47 c29,26 50,56 63,93 c10,29 33,69 51,88 c31,32 38,46 34,67 c-1,4 4,15 10,22 c18,22 22,197 5,229 c-8,15 -13,45 -12,66 c2,22 0,42 -5,44 c-4,3 -6,14 -4,25 c2,11 0,20 -6,20 c-5,0 -8,3 -8,8 c1,4 0,10 -1,15 c-1,4 -3,10 -4,15 c-1,4 -8,18 -16,32 c-8,14 -16,36 -18,50 c-2,14 -7,29 -13,35 c-5,5 -9,20 -9,35 c0,14 -9,36 -20,50 c-11,14 -20,28 -20,32 c0,4 96,9 213,10 l212,3 l3,137 c2,125 4,137 20,131 c9,-4 19,-10 22,-13 c6,-9 108,-31 138,-31 c12,1 22,-4 22,-9 c0,-5 7,-7 15,-4 c8,4 15,2 15,-3 c0,-5 6,-10 13,-11 c15,-1 52,-10 52,-12 c0,-3 51,-10 74,-10 c14,0 28,-6 33,-12 c6,-10 8,-10 8,0 c0,10 5,9 23,-2 c17,-12 55,-14 187,-11 c91,2 186,8 212,14 c45,10 98,30 108,41 c3,3 26,16 52,28 c25,13 54,30 65,38 c10,8 34,27 54,42 c93,69 181,145 195,167 c9,13 23,27 32,30 c10,3 28,21 42,40 c14,19 42,47 62,62 c21,15 38,33 38,39 c0,14 126,145 168,173 c17,12 32,28 32,36 c0,15 85,93 115,105 c51,21 62,24 90,26 c17,1 37,4 45,7 c8,4 35,9 60,12 c25,4 59,9 75,11 c17,3 39,6 50,8 c11,2 28,6 38,11 c10,4 31,2 48,-5 c24,-10 35,-10 57,0 c15,7 35,12 45,11 c10,-1 24,2 30,8 c7,5 39,10 72,11 c33,1 92,3 130,5 c39,2 141,5 227,8 c86,3 174,10 195,16 c21,5 67,10 103,11 c184,5 249,8 257,13 c4,3 95,5 201,5 c106,0 196,2 199,6 c3,3 12,1 20,-5 c10,-9 13,-8 13,1 c0,8 11,11 30,8 c17,-3 33,-1 36,4 c3,5 10,6 15,3 c5,-4 9,-1 9,4 c0,6 6,11 13,11 c69,1 250,163 263,235 c1,6 3,15 4,20 c1,6 2,13 1,18 c0,4 4,7 10,7 c6,0 9,7 6,15 c-4,8 -2,17 4,20 c5,4 7,11 4,16 c-4,5 -2,9 2,9 c5,0 8,19 7,43 c-1,23 -3,42 -4,42 c0,0 -3,17 -5,39 c-2,21 -9,43 -14,50 c-5,6 -9,14 -9,19 c-1,24 -15,67 -23,67 c-5,0 -9,6 -9,13 c0,23 -125,142 -175,167 c-28,14 -53,30 -57,35 c-4,6 -8,6 -8,1 c0,-5 -6,-3 -13,3 c-8,6 -17,8 -20,5 c-3,-4 -14,-3 -24,1 c-26,11 -53,15 -95,14 c-83,-2 -124,-2 -143,0 c-11,2 -47,-2 -80,-8 c-32,-6 -62,-7 -65,-2 c-3,4 -14,7 -25,5 c-23,-4 -140,-11 -325,-21 c-69,-4 -154,-9 -190,-11 c-76,-5 -237,-13 -262,-13 c-10,0 -20,-4 -23,-10 c-7,-10 -58,-12 -69,-2 c-11,11 -36,12 -36,2 c0,-5 -11,-7 -25,-5 c-14,3 -25,0 -25,-5 c0,-6 -31,-10 -72,-9 c-78,0 -177,-6 -243,-16 c-22,-3 -70,-7 -107,-8 c-37,-2 -74,-9 -83,-16 c-12,-10 -15,-10 -15,1 c0,11 -2,11 -9,1 c-4,-7 -23,-13 -42,-13 c-65,0 -99,-4 -99,-12 c0,-4 -11,-5 -25,-3 c-14,3 -25,0 -25,-6 c0,-6 -10,-8 -23,-4 c-13,3 -32,-1 -44,-9 c-11,-8 -23,-12 -26,-9 c-7,8 -88,-15 -114,-32 c-13,-8 -25,-14 -28,-15 c-2,0 -20,-6 -39,-14 c-18,-8 -36,-11 -40,-8 c-3,4 -6,1 -6,-5 c0,-7 -4,-12 -9,-12 c-24,0 -112,-47 -117,-63 c-3,-10 -18,-25 -32,-35 c-15,-9 -35,-24 -45,-32 c-10,-8 -20,-15 -23,-15 c-16,0 -334,-319 -334,-334 c0,-4 -17,-21 -37,-39 c-47,-40 -41,-34 -110,-109 c-31,-35 -63,-63 -70,-63 c-8,0 -16,-6 -19,-14 c-6,-15 -86,-17 -100,-3 c-4,4 -18,7 -30,7 c-13,0 -27,6 -31,14 c-4,8 -10,15 -13,15 c-3,0 -25,3 -50,8 c-25,4 -48,6 -52,5 c-5,-1 -8,3 -8,10 c0,6 -3,8 -6,5 c-4,-3 -16,0 -28,8 c-11,8 -27,15 -36,15 c-8,0 -37,11 -65,25 c-27,13 -53,25 -57,25 c-5,0 -36,12 -68,26 c-3,1 -15,5 -27,9 c-13,4 -23,11 -23,15 c0,4 -12,11 -27,15 c-16,3 -44,13 -63,22 c-63,28 -145,68 -150,73 c-3,3 -24,12 -47,20 c-24,7 -43,18 -43,23 c0,6 -3,8 -6,5 c-3,-4 -41,11 -85,33 c-43,21 -83,39 -89,39 c-5,0 -26,10 -47,21 c-68,38 -227,117 -251,124 c-13,4 -50,20 -81,35 c-31,16 -69,32 -84,35 c-15,4 -27,11 -27,17 c0,5 -4,7 -9,3 c-5,-3 -16,1 -23,8 c-7,8 -38,20 -68,28 c-30,7 -58,18 -62,24 c-4,5 -8,6 -8,1 c0,-4 -11,-1 -23,7 c-13,8 -64,27 -113,42 c-49,15 -96,29 -104,33 c-8,3 -24,6 -35,8 c-11,1 -31,5 -45,9 c-14,4 -37,7 -52,7 c-16,0 -28,4 -28,8 c0,3 -7,7 -15,7 c-8,0 -15,-4 -15,-9 c0,-4 -55,-7 -122,-7 c-68,1 -135,-3 -149,-9 c-15,-6 -29,-8 -32,-5 c-4,3 -14,-2 -23,-11 c-9,-9 -21,-15 -27,-13 c-6,2 -19,-4 -29,-12 c-10,-9 -22,-16 -26,-16 c-13,1 -91,-72 -112,-104 c-8,-13 -23,-33 -32,-46 c-9,-12 -18,-33 -20,-46 c-2,-13 -8,-31 -13,-39 c-6,-8 -11,-26 -11,-40 c-1,-14 -3,-25 -4,-25 c-7,0 -5,-117 2,-121 c12,-8 10,-104 -3,-104 c-7,0 -8,-7 -4,-17 c4,-10 8,-32 9,-50 c2,-17 10,-43 19,-57 c10,-14 17,-30 17,-36 c0,-6 7,-18 15,-26 c8,-9 15,-24 15,-34 c0,-11 11,-36 25,-56 c14,-20 25,-45 25,-55 c0,-11 5,-19 10,-19 c6,0 13,-8 17,-17 c3,-10 14,-29 23,-43 c9,-14 20,-37 24,-52 c3,-15 15,-32 26,-38 c11,-6 20,-19 20,-28 c0,-10 9,-28 20,-40 c11,-12 20,-26 20,-32 c0,-5 5,-10 10,-10 c6,0 10,-5 10,-10 c0,-6 16,-27 35,-47 c19,-20 32,-39 29,-44 c-6,-10 24,-60 43,-72 c7,-4 13,-14 13,-22 c0,-8 9,-19 19,-25 c11,-5 22,-23 26,-40 c4,-16 11,-30 16,-30 c5,0 9,-4 9,-9 c0,-6 11,-22 25,-37 c13,-14 22,-30 20,-34 c-3,-4 2,-10 10,-14 c8,-3 15,-12 15,-21 c0,-8 4,-15 8,-15 c5,0 14,-12 20,-26 c7,-14 16,-23 21,-20 c5,3 11,-3 14,-14 c4,-15 0,-20 -14,-20 c-10,0 -19,7 -19,15 c0,8 -8,15 -18,15 c-9,0 -29,11 -44,25 c-15,14 -32,25 -38,25 c-6,0 -13,7 -16,15 c-4,8 -12,15 -19,15 c-7,0 -27,14 -45,30 c-18,17 -35,30 -39,30 c-3,0 -18,11 -33,25 c-15,14 -31,25 -36,25 c-5,0 -22,11 -38,25 c-16,14 -35,25 -41,25 c-7,0 -13,5 -13,11 c0,5 -4,8 -9,4 c-6,-3 -13,0 -18,7 c-17,28 -107,98 -124,98 c-11,0 -24,9 -31,20 c-7,11 -17,20 -23,20 c-6,0 -22,11 -37,25 c-15,14 -32,25 -38,25 c-5,0 -10,5 -10,11 c0,5 -4,8 -9,4 c-5,-3 -25,10 -45,28 c-20,19 -38,32 -40,30 c-3,-3 -11,4 -18,16 c-7,12 -18,21 -25,21 c-7,0 -18,9 -25,20 c-7,11 -17,20 -23,20 c-6,0 -25,14 -43,30 c-18,17 -37,30 -41,30 c-4,0 -21,11 -37,25 c-16,14 -35,25 -41,25 c-7,0 -13,7 -13,15 c0,8 -9,15 -20,15 c-11,0 -20,3 -20,8 c0,4 -17,18 -37,32 c-21,14 -50,38 -65,53 c-16,15 -28,24 -28,20 c0,-4 -6,-1 -13,8 c-7,9 -22,19 -33,23 c-19,6 -34,16 -81,56 c-7,5 -17,10 -22,10 c-6,0 -15,9 -21,20 c-6,11 -16,20 -23,20 c-7,0 -32,16 -56,35 c-24,19 -47,35 -50,35 c-3,0 -23,16 -43,35 c-20,19 -44,35 -53,35 c-9,0 -13,5 -10,10 c3,6 -3,10 -13,10 c-11,0 -34,14 -52,30 c-18,17 -36,30 -41,30 c-5,0 -9,5 -9,11 c0,5 -4,7 -10,4 c-5,-3 -10,-2 -10,3 c0,11 -91,68 -103,64 c-4,-1 -7,5 -7,14 c0,10 -6,14 -15,10 c-8,-3 -15,-2 -15,3 c0,4 -18,16 -40,27 c-22,10 -40,23 -40,27 c0,5 -4,6 -9,2 c-5,-3 -16,3 -23,13 c-7,10 -43,33 -80,52 c-38,18 -68,37 -68,42 c0,5 -5,8 -12,6 c-7,-3 -50,19 -95,48 c-46,28 -100,55 -121,59 c-20,4 -39,10 -42,14 c-8,12 -123,55 -142,54 c-10,-1 -18,2 -18,7 c0,5 -8,9 -17,9 c-10,0 -58,2 -108,5 c-161,8 -180,8 -216,3 c-20,-2 -44,-9 -55,-15 c-10,-5 -22,-10 -27,-11 c-4,0 -23,-7 -42,-15 c-20,-9 -39,-16 -43,-17 c-8,-3 -14,-8 -80,-71 c-27,-26 -53,-53 -56,-60 c-3,-7 -17,-33 -31,-57 c-14,-24 -23,-47 -20,-51 c3,-4 -2,-13 -9,-20 c-8,-6 -13,-20 -11,-31 c2,-10 0,-19 -5,-19 c-5,0 -7,-9 -5,-20 c2,-11 1,-20 -3,-20 c-4,0 -9,-8 -10,-17 c-1,-10 -6,-51 -11,-92 c-7,-50 -7,-90 0,-125 c27,-130 35,-156 49,-156 c5,0 7,-9 5,-20 c-2,-11 1,-20 6,-20 c6,0 8,-4 5,-8 c-3,-5 6,-27 20,-51 c13,-24 24,-48 24,-55 c0,-7 6,-18 13,-24 c12,-13 14,-17 16,-51 c0,-10 12,-30 26,-45 c14,-15 25,-33 25,-41 c0,-7 3,-15 8,-17 c4,-1 18,-23 31,-48 c14,-25 30,-49 36,-55 c7,-5 19,-30 29,-55 c9,-25 32,-62 51,-84 c19,-21 35,-44 35,-52 c0,-8 5,-14 10,-14 c6,0 10,-5 10,-11 c0,-6 6,-17 13,-24 c29,-33 37,-45 37,-54 c0,-5 7,-11 15,-15 c8,-3 15,-12 15,-21 c0,-8 5,-15 10,-15 c6,0 10,-9 10,-20 c0,-10 13,-34 30,-52 c60,-66 65,-73 62,-85 c-2,-7 2,-13 8,-13 c6,0 16,-12 22,-26 c6,-14 26,-41 44,-60 c18,-19 31,-41 28,-49 c-3,-7 3,-18 15,-24 c11,-6 30,-29 42,-51 c13,-22 26,-40 31,-40 c4,0 8,-9 8,-20 c0,-11 5,-20 10,-20 c6,0 10,-7 10,-15 c0,-8 5,-15 10,-15 c6,0 10,-7 10,-15 c0,-8 4,-15 8,-15 c15,0 53,-41 47,-51 c-4,-5 -2,-9 3,-9 c10,0 50,-53 54,-71 c2,-7 10,-20 18,-29 c40,-43 70,-85 70,-97 c0,-7 5,-13 10,-13 c6,0 10,-7 10,-15 c0,-8 5,-15 10,-15 c6,0 10,-7 10,-15 c0,-8 5,-15 10,-15 c6,0 10,-5 10,-10 c0,-6 15,-25 33,-43 c29,-28 30,-32 12,-35 c-11,-3 -27,5 -40,19 c-11,13 -37,35 -58,49 c-20,14 -37,29 -37,33 c0,5 -5,5 -10,2 c-6,-3 -13,1 -16,9 c-3,9 -11,16 -18,16 c-6,0 -19,8 -29,18 c-9,9 -31,28 -48,42 c-16,14 -36,31 -44,38 c-7,6 -19,12 -25,12 c-6,0 -32,19 -58,43 c-26,23 -65,56 -87,72 c-22,16 -51,40 -65,52 c-14,13 -29,23 -33,23 c-5,0 -29,20 -54,45 c-24,25 -51,45 -59,45 c-8,0 -14,5 -14,10 c0,6 -6,10 -12,10 c-7,0 -28,16 -47,35 c-19,19 -39,35 -45,35 c-6,0 -19,8 -27,18 c-26,28 -78,72 -87,72 c-5,0 -28,18 -52,40 c-24,22 -47,40 -52,40 c-4,0 -13,9 -20,20 c-7,11 -21,20 -30,20 c-10,0 -23,9 -30,20 c-7,11 -18,20 -24,20 c-6,0 -19,11 -30,24 c-10,14 -22,23 -26,20 c-4,-3 -11,2 -14,10 c-3,9 -10,16 -16,16 c-10,0 -131,99 -136,111 c-2,5 -10,9 -17,9 c-7,0 -29,15 -48,34 c-20,19 -45,37 -56,41 c-12,3 -21,11 -21,16 c0,5 -5,9 -12,9 c-7,0 -22,12 -34,26 c-13,14 -24,24 -27,22 c-5,-4 -48,27 -91,64 c-17,15 -39,34 -48,42 c-9,8 -19,12 -22,9 c-3,-3 -8,2 -12,11 c-3,9 -11,16 -18,16 c-6,0 -27,14 -46,30 c-19,16 -41,35 -47,40 c-7,6 -13,8 -13,4 c0,-4 -9,2 -20,14 c-12,12 -25,22 -31,22 c-6,0 -7,5 -4,10 c3,6 -1,10 -9,10 c-9,0 -16,5 -16,10 c0,6 -6,10 -14,10 c-19,0 -144,92 -145,106 c-1,6 -13,14 -28,17 c-16,3 -47,22 -70,41 c-22,20 -46,36 -51,36 c-5,0 -12,7 -16,15 c-3,8 -14,15 -25,15 c-10,0 -33,16 -50,36 c-17,19 -35,33 -40,30 c-4,-3 -16,3 -26,14 c-10,11 -26,20 -36,20 c-11,0 -24,9 -31,20 c-7,11 -16,20 -20,20 c-5,0 -27,14 -50,30 c-22,17 -46,30 -52,30 c-7,0 -29,16 -49,35 c-20,19 -37,32 -37,29 c0,-3 -13,4 -29,15 c-16,12 -36,21 -45,21 c-9,0 -16,6 -16,14 c0,8 -13,17 -29,21 c-16,3 -35,13 -41,20 c-6,8 -27,19 -46,25 c-19,6 -34,16 -34,21 c0,5 -3,8 -7,7 c-5,-1 -56,22 -114,50 c-59,28 -119,54 -133,58 c-14,3 -29,10 -32,15 c-3,5 -10,7 -15,4 c-5,-4 -14,-3 -21,1 c-7,4 -26,9 -43,11 c-16,2 -43,6 -60,9 c-16,3 -41,7 -55,8 c-14,2 -29,4 -35,5 c-17,5 -128,2 -160,-3 c-47,-7 -137,-44 -169,-69 c-51,-39 -106,-94 -106,-105 c0,-6 -8,-17 -18,-24 c-24,-16 -42,-51 -42,-77 c0,-12 -4,-21 -10,-21 c-5,0 -10,-9 -10,-20 c0,-10 -7,-23 -16,-28 c-8,-5 -17,-17 -19,-28 c-2,-10 -4,-21 -5,-24 c-1,-3 -2,-8 -1,-12 c0,-5 -3,-8 -7,-8 c-10,0 -10,3 -14,-113 c-2,-48 -1,-90 2,-93 c3,-3 6,-10 6,-15 c1,-5 3,-11 4,-14 c4,-9 7,-24 9,-43 c0,-11 12,-32 26,-48 c14,-16 28,-46 31,-67 c4,-20 11,-40 15,-43 c5,-3 9,-14 9,-24 c0,-11 8,-24 19,-29 c20,-11 61,-82 61,-105 c0,-8 7,-16 15,-20 c8,-3 15,-11 15,-18 c0,-7 9,-19 20,-26 c11,-7 20,-20 20,-30 c0,-9 9,-23 20,-30 c11,-7 20,-18 20,-26 c0,-8 22,-38 50,-67 c27,-28 47,-55 45,-59 c-3,-4 6,-15 20,-24 c14,-9 25,-24 25,-32 c0,-9 17,-32 38,-51 c20,-19 37,-37 37,-41 c0,-4 9,-16 20,-28 c11,-11 27,-31 35,-43 c8,-13 26,-35 40,-49 c14,-15 53,-63 87,-107 c33,-44 77,-96 97,-114 c20,-19 36,-40 36,-45 c0,-6 17,-27 38,-47 c64,-63 157,-163 177,-192 c11,-16 31,-41 45,-56 c14,-16 39,-45 55,-65 c17,-20 56,-63 88,-95 c31,-32 57,-61 57,-64 c0,-10 26,-40 100,-116 c88,-91 233,-251 242,-265 c4,-7 44,-51 90,-97 c130,-133 158,-165 158,-178 c0,-6 7,-14 15,-17 c8,-4 15,-10 15,-15 c0,-5 21,-30 48,-57 c71,-73 92,-98 92,-113 c0,-7 3,-9 7,-6 c3,4 22,-10 42,-31 c85,-91 141,-155 141,-164 c0,-11 80,-88 92,-88 c4,0 8,-8 8,-18 c0,-11 11,-24 25,-30 c13,-6 31,-24 39,-40 c8,-16 26,-37 40,-46 c22,-14 36,-46 21,-46 c-20,0 -107,57 -131,85 c-16,19 -35,35 -43,35 c-7,0 -33,20 -56,44 c-23,25 -45,43 -47,41 c-2,-3 -23,13 -46,35 c-23,22 -45,40 -49,40 c-4,0 -23,14 -42,30 c-18,17 -37,30 -41,30 c-4,0 -12,11 -18,25 c-7,15 -20,25 -32,25 c-11,0 -23,7 -27,16 c-3,8 -12,13 -20,10 c-8,-3 -11,-1 -8,4 c3,6 1,10 -4,10 c-6,0 -10,3 -8,8 c1,4 -3,9 -8,12 c-12,5 -41,29 -67,52 c-10,10 -22,18 -27,18 c-5,0 -19,12 -30,26 c-12,15 -21,23 -21,18 c0,-5 -6,-2 -13,6 c-7,9 -29,26 -49,38 c-20,13 -48,35 -60,51 c-13,15 -31,30 -41,34 c-9,3 -17,11 -17,17 c0,5 -6,10 -13,10 c-7,0 -23,10 -35,23 c-12,12 -34,32 -49,44 c-16,12 -46,38 -68,57 c-22,20 -44,36 -48,36 c-5,0 -5,5 -2,10 c3,6 -1,10 -9,10 c-9,0 -16,5 -16,10 c0,6 -5,10 -11,10 c-6,0 -16,6 -23,13 c-7,6 -34,30 -60,52 c-26,22 -65,56 -86,75 c-47,44 -67,60 -77,62 c-12,3 -31,18 -79,64 c-24,23 -46,39 -49,36 c-2,-3 -7,3 -11,12 c-3,9 -12,16 -20,16 c-8,0 -22,13 -33,30 c-10,16 -20,27 -24,24 c-3,-3 -10,4 -17,15 c-6,12 -16,21 -21,21 c-6,0 -20,11 -31,26 c-11,14 -22,23 -25,20 c-5,-5 -34,20 -115,97 c-28,26 -54,47 -59,47 c-5,0 -23,12 -39,28 c-16,15 -45,38 -65,52 c-19,14 -35,31 -35,38 c0,6 -6,12 -13,12 c-14,0 -80,55 -159,132 c-26,26 -48,44 -48,40 c0,-4 -7,2 -15,12 c-8,11 -15,17 -15,14 c0,-9 -42,27 -136,118 c-46,45 -86,79 -88,76 c-3,-3 -8,3 -12,12 c-3,9 -10,13 -15,11 c-4,-3 -52,37 -106,90 c-54,52 -103,95 -111,95 c-15,0 -92,74 -92,89 c0,6 -11,13 -25,17 c-14,3 -25,10 -25,16 c0,5 -4,7 -9,4 c-5,-3 -11,3 -14,14 c-3,11 -13,23 -24,27 c-24,9 -34,17 -108,88 c-35,33 -80,74 -101,90 c-22,17 -56,46 -77,65 c-21,19 -44,41 -52,48 c-7,6 -18,12 -23,12 c-5,0 -26,18 -46,40 c-20,22 -36,37 -36,33 c0,-4 -20,14 -45,40 c-24,26 -48,47 -51,47 c-9,0 -24,13 -97,84 c-32,31 -62,56 -67,56 c-4,0 -10,7 -14,15 c-3,8 -12,15 -20,15 c-8,0 -28,16 -45,35 c-17,19 -32,35 -33,35 c-4,0 -125,108 -181,162 c-27,26 -50,47 -53,47 c-8,1 -35,25 -91,79 c-30,28 -58,52 -62,52 c-4,0 -21,15 -37,33 c-16,19 -40,40 -54,47 c-47,25 -110,82 -370,330 c-58,55 -111,100 -117,100 c-7,0 -13,7 -13,15 c0,8 -9,15 -19,15 c-11,0 -26,6 -33,13 c-17,16 -92,37 -148,41 c-25,2 -61,5 -80,8 c-19,3 -48,2 -65,-2 zm9671,-1446 c13,-3 24,-10 24,-14 c0,-4 18,-10 39,-14 c22,-3 41,-13 45,-22 c3,-9 13,-14 21,-10 c8,3 17,1 19,-3 c3,-5 26,-14 51,-21 c25,-7 45,-17 45,-21 c0,-5 4,-9 8,-9 c5,0 35,-15 68,-32 l59,-33 l-145,-5 c-159,-5 -170,-4 -170,16 c0,8 -4,14 -9,14 c-5,0 -13,10 -17,23 c-4,12 -9,24 -13,27 c-8,6 -25,34 -51,83 c-11,20 -25,37 -31,37 c-6,0 -7,5 -4,10 c4,6 12,4 21,-5 c9,-8 26,-18 40,-21 zm-288,-479 c-6,-14 -13,-23 -15,-21 c-5,5 15,46 22,46 c3,0 -1,-11 -7,-25 zm-4429,-595 c6,0 27,-15 46,-34 c18,-19 36,-32 39,-29 c3,3 8,-2 12,-11 c3,-9 10,-13 15,-11 c4,3 14,-3 21,-15 c7,-11 20,-20 29,-20 c8,0 25,-11 37,-25 c12,-14 26,-25 32,-25 c5,0 10,-6 10,-13 c0,-7 16,-19 35,-26 c20,-7 45,-26 57,-42 c12,-16 37,-39 56,-50 c19,-11 32,-22 29,-25 c-7,-7 -148,12 -200,26 c-28,8 -42,20 -54,46 c-9,19 -20,34 -25,34 c-4,0 -22,14 -40,30 c-17,17 -28,30 -24,30 c4,0 -9,14 -29,31 c-19,17 -35,38 -35,48 c0,12 -2,13 -9,3 c-10,-17 -18,2 -31,68 c-7,38 -6,42 4,27 c7,-9 18,-17 25,-17 zm-422,-172 c-3,-7 -5,-2 -5,12 c0,14 2,19 5,13 c2,-7 2,-19 0,-25 zm517,-527 c4,-5 -3,-7 -14,-4 c-23,6 -26,13 -6,13 c8,0 17,-4 20,-9 z" id="svg_1" fill="#193476"/>
 <path d="M13542.14111328125,4357 c-33,-12 -73,-30 -87,-39 c-15,-10 -31,-18 -37,-18 c-15,0 -150,-137 -183,-185 c-15,-23 -36,-74 -47,-115 c-19,-73 -20,-111 -20,-1273 l0,-1197 l203,2 l202,3 l5,1181 c5,1291 1,1197 64,1232 c27,15 72,17 319,20 l287,3 l0,205 l0,204 l-322,-1 c-305,-1 -326,-2 -384,-22 z" id="svg_2" fill="#193476"/>
 <path d="M9705.14111328125,2344 c-4,-4 -7,-97 -7,-206 l0,-198 l205,0 l205,0 l-2,203 l-3,202 l-196,3 c-107,1 -198,-1 -202,-4 z" id="svg_3" fill="#193476"/>
 </g><g id="layer102" fill="#8ae98a" stroke="none" class="" fill-opacity="1">
 <path d="M373.14111328125,6010 c-16,-4 -40,-12 -52,-18 c-12,-7 -33,-12 -47,-12 c-14,0 -26,-5 -26,-11 c0,-5 -5,-7 -11,-4 c-6,4 -17,-1 -24,-11 c-8,-11 -15,-16 -15,-12 c0,4 -29,-22 -65,-58 c-61,-62 -118,-142 -113,-160 c1,-5 -4,-26 -11,-47 c-8,-24 -11,-65 -8,-115 c3,-42 6,-77 7,-77 c1,0 3,-11 6,-24 c2,-12 13,-34 24,-48 c11,-14 20,-34 20,-44 c0,-11 5,-19 10,-19 c6,0 10,-5 10,-10 c0,-6 18,-29 40,-51 c22,-22 40,-45 40,-50 c0,-5 10,-9 21,-9 c13,0 51,-29 98,-75 c42,-41 86,-83 99,-92 c13,-10 55,-47 93,-83 c38,-36 69,-65 69,-63 c0,2 29,-26 65,-60 c36,-35 67,-61 70,-59 c2,3 7,-3 11,-12 c3,-9 11,-16 18,-16 c6,0 31,-20 55,-45 c24,-25 48,-45 53,-45 c10,0 38,-25 38,-34 c0,-9 39,-46 49,-46 c5,0 39,-29 76,-65 c38,-36 72,-65 76,-65 c4,0 9,-7 13,-15 c3,-8 11,-15 19,-15 c7,0 26,-13 42,-30 l29,-30 l670,0 c500,1 666,3 651,12 c-11,6 -45,36 -76,67 c-31,31 -74,70 -95,86 c-22,17 -56,46 -77,65 c-21,19 -44,41 -52,48 c-7,6 -18,12 -23,12 c-5,0 -26,18 -46,40 c-20,22 -36,37 -36,33 c0,-4 -20,14 -45,40 c-24,26 -48,47 -51,47 c-9,0 -24,13 -97,84 c-32,31 -62,56 -67,56 c-4,0 -10,7 -14,15 c-3,8 -12,15 -20,15 c-8,0 -28,16 -45,35 c-17,19 -32,35 -33,35 c-4,0 -125,108 -181,162 c-27,26 -50,47 -53,47 c-8,1 -35,25 -91,79 c-30,28 -58,52 -62,52 c-4,0 -21,15 -37,33 c-16,19 -40,40 -54,47 c-47,25 -110,82 -370,330 c-58,55 -111,100 -117,100 c-7,0 -13,7 -13,15 c0,8 -9,15 -19,15 c-11,0 -26,6 -33,13 c-17,16 -92,37 -148,41 c-25,2 -61,5 -80,8 c-19,3 -48,2 -65,-2 z" id="svg_4" fill="#8ae98a" fill-opacity="1"/>
 <path d="M14313.14111328125,5970 c-36,-13 -115,-20 -115,-10 c0,5 -10,7 -22,5 c-25,-5 -126,-11 -328,-22 c-69,-4 -154,-9 -190,-11 c-76,-5 -237,-13 -262,-13 c-10,0 -20,-4 -23,-10 c-7,-10 -58,-12 -69,-2 c-11,11 -36,12 -36,2 c0,-5 -11,-7 -25,-5 c-14,3 -25,0 -25,-5 c0,-6 -31,-10 -72,-9 c-78,0 -177,-6 -243,-16 c-22,-3 -70,-7 -107,-8 c-37,-2 -74,-9 -83,-16 c-12,-10 -15,-10 -15,1 c0,11 -2,11 -9,1 c-4,-7 -23,-13 -42,-13 c-65,0 -99,-4 -99,-12 c0,-4 -11,-5 -25,-3 c-14,3 -25,0 -25,-6 c0,-6 -10,-8 -23,-4 c-13,3 -32,-1 -44,-9 c-11,-8 -23,-12 -26,-9 c-7,8 -88,-15 -114,-32 c-13,-8 -25,-14 -28,-15 c-2,0 -20,-6 -39,-14 c-18,-8 -36,-11 -40,-8 c-3,4 -6,1 -6,-5 c0,-7 -4,-12 -9,-12 c-24,0 -112,-47 -117,-63 c-3,-10 -18,-25 -32,-35 c-15,-9 -35,-24 -45,-32 c-10,-8 -20,-15 -23,-15 c-15,0 -334,-319 -334,-334 c0,-4 -17,-21 -37,-39 c-47,-40 -41,-34 -110,-109 c-31,-35 -63,-63 -70,-63 c-8,0 -16,-6 -19,-14 c-6,-15 -86,-17 -100,-3 c-4,4 -18,7 -30,7 c-13,0 -27,8 -33,18 c-5,9 -13,16 -18,15 c-4,-1 -26,1 -48,4 c-22,4 -43,6 -47,5 c-5,-1 -8,3 -8,10 c0,6 -3,8 -6,5 c-4,-3 -16,0 -28,8 c-11,8 -27,15 -36,15 c-8,0 -37,11 -65,25 c-27,13 -53,25 -57,25 c-5,0 -36,12 -68,26 c-3,1 -15,5 -27,9 c-13,4 -23,11 -23,15 c0,4 -12,11 -27,15 c-16,3 -44,13 -63,22 c-63,28 -145,68 -150,73 c-3,3 -24,12 -47,20 c-24,7 -43,18 -43,23 c0,6 -3,8 -6,5 c-3,-4 -41,11 -85,33 c-43,21 -83,39 -89,39 c-5,0 -26,10 -47,21 c-68,38 -227,117 -251,124 c-13,4 -50,20 -81,35 c-31,16 -69,32 -84,35 c-15,4 -27,11 -27,17 c0,5 -4,7 -9,3 c-5,-3 -16,1 -23,8 c-7,8 -38,20 -68,28 c-30,7 -58,18 -62,24 c-4,5 -8,6 -8,1 c0,-4 -11,-1 -23,7 c-13,8 -64,27 -113,42 c-49,15 -96,29 -104,33 c-8,3 -24,6 -35,8 c-11,1 -31,5 -45,9 c-14,4 -37,7 -52,7 c-16,0 -28,4 -28,8 c0,3 -7,7 -15,7 c-8,0 -15,-4 -15,-9 c0,-4 -55,-7 -122,-7 c-68,1 -135,-3 -149,-9 c-15,-6 -29,-8 -32,-5 c-4,3 -14,-2 -23,-11 c-9,-9 -21,-15 -27,-13 c-6,2 -19,-4 -29,-12 c-10,-9 -20,-14 -21,-11 c-2,5 -25,-14 -80,-66 c-12,-11 -29,-31 -37,-43 c-8,-13 -23,-33 -32,-46 c-9,-12 -18,-33 -20,-46 c-2,-13 -8,-31 -13,-39 c-6,-8 -11,-26 -11,-40 c-1,-14 -3,-25 -4,-25 c-7,0 -5,-117 2,-121 c12,-8 10,-104 -3,-104 c-7,0 -8,-7 -4,-17 c4,-10 8,-32 9,-50 c2,-17 10,-43 19,-57 c10,-14 17,-30 17,-36 c0,-6 7,-18 15,-26 c8,-9 15,-24 15,-34 c0,-11 11,-36 25,-56 c14,-20 25,-45 25,-54 c0,-10 7,-20 15,-24 c8,-3 15,-10 15,-17 c0,-6 8,-23 19,-37 c10,-15 21,-39 25,-54 c3,-15 15,-32 26,-38 c11,-6 20,-19 20,-28 c0,-10 9,-28 20,-40 c11,-12 20,-26 20,-32 c0,-5 5,-10 10,-10 c6,0 10,-5 10,-10 c0,-6 16,-27 35,-47 c19,-20 32,-39 29,-44 c-6,-10 24,-60 43,-72 c7,-4 13,-14 13,-22 c0,-8 9,-19 19,-25 c11,-5 22,-23 26,-40 c4,-16 11,-30 16,-30 c5,0 9,-4 9,-9 c0,-6 11,-22 25,-37 c13,-14 22,-30 20,-34 c-3,-4 2,-10 10,-14 c8,-3 15,-12 15,-21 c0,-8 4,-15 8,-15 c5,0 14,-12 20,-26 c7,-14 16,-23 21,-20 c5,3 11,-3 14,-14 c4,-15 0,-20 -14,-20 c-10,0 -19,7 -19,15 c0,8 -8,15 -18,15 c-9,0 -28,10 -42,23 c-14,13 -33,26 -42,30 c-10,3 -18,11 -18,17 c0,5 -6,10 -14,10 c-8,0 -28,14 -46,30 c-18,17 -35,30 -39,30 c-3,0 -18,11 -33,25 c-15,14 -31,25 -36,25 c-5,0 -22,11 -38,25 c-16,14 -35,25 -41,25 c-7,0 -13,5 -13,11 c0,5 -4,8 -9,4 c-6,-3 -13,0 -18,7 c-17,28 -107,98 -124,98 c-11,0 -24,9 -31,20 c-7,11 -17,20 -23,20 c-6,0 -22,11 -37,25 c-15,14 -32,25 -38,25 c-5,0 -10,5 -10,11 c0,5 -4,8 -9,4 c-5,-3 -25,10 -45,28 c-20,19 -38,32 -40,30 c-3,-3 -11,4 -18,16 c-7,12 -18,21 -25,21 c-7,0 -18,9 -25,20 c-7,11 -17,20 -23,20 c-6,0 -25,14 -43,30 c-18,17 -37,30 -41,30 c-4,0 -21,11 -37,25 c-16,14 -35,25 -41,25 c-7,0 -13,7 -13,15 c0,8 -9,15 -20,15 c-11,0 -20,3 -20,8 c0,4 -17,18 -37,32 c-21,14 -50,38 -65,53 c-16,15 -28,24 -28,20 c0,-4 -6,-1 -13,8 c-7,9 -22,19 -33,23 c-19,6 -34,16 -81,56 c-7,5 -17,10 -22,10 c-6,0 -15,9 -21,20 c-6,11 -16,20 -23,20 c-7,0 -32,16 -56,35 c-24,19 -47,35 -50,35 c-3,0 -23,16 -43,35 c-20,19 -44,35 -53,35 c-9,0 -13,5 -10,10 c3,6 -3,10 -13,10 c-11,0 -34,14 -52,30 c-18,17 -36,30 -41,30 c-5,0 -9,5 -9,11 c0,5 -4,7 -10,4 c-5,-3 -10,-2 -10,3 c0,11 -91,68 -102,64 c-5,-1 -8,5 -8,14 c0,10 -6,14 -15,10 c-8,-3 -15,-2 -15,3 c0,4 -18,16 -40,27 c-22,10 -40,23 -40,27 c0,5 -4,6 -9,2 c-5,-3 -16,3 -23,13 c-7,10 -43,33 -80,52 c-38,18 -68,37 -68,42 c0,5 -5,8 -12,6 c-7,-3 -50,19 -95,48 c-46,28 -100,55 -121,59 c-20,4 -39,10 -42,14 c-8,12 -123,55 -142,54 c-10,-1 -18,2 -18,7 c0,5 -8,9 -17,9 c-10,0 -58,2 -108,5 c-161,8 -180,8 -216,3 c-20,-2 -44,-9 -55,-15 c-10,-5 -23,-11 -29,-12 c-5,-1 -26,-8 -45,-16 c-19,-8 -36,-15 -38,-14 c-3,1 -12,-7 -80,-72 c-27,-26 -53,-53 -56,-60 c-3,-7 -17,-33 -31,-57 c-14,-24 -23,-47 -20,-51 c3,-4 -2,-13 -9,-20 c-8,-6 -13,-20 -11,-31 c2,-10 0,-19 -5,-19 c-5,0 -7,-9 -5,-20 c2,-11 1,-20 -3,-20 c-4,0 -9,-8 -10,-17 c-1,-10 -6,-51 -11,-92 c-7,-50 -7,-90 0,-125 c27,-130 35,-156 49,-156 c5,0 7,-9 5,-20 c-2,-11 1,-20 6,-20 c6,0 8,-4 5,-8 c-3,-5 6,-27 20,-51 c13,-24 24,-49 24,-56 c0,-7 7,-18 15,-25 c8,-6 14,-15 13,-18 c-3,-28 6,-53 27,-76 c14,-15 25,-33 25,-41 c0,-7 3,-15 8,-17 c4,-1 18,-23 31,-48 c14,-25 30,-49 36,-55 c7,-5 19,-30 29,-55 c9,-25 32,-62 51,-84 c19,-21 35,-44 35,-52 c0,-8 5,-14 10,-14 c6,0 10,-5 10,-10 c0,-10 8,-22 38,-55 c6,-7 12,-18 12,-23 c0,-6 7,-12 15,-16 c8,-3 15,-12 15,-21 c0,-8 5,-15 10,-15 c6,0 10,-9 10,-20 c0,-10 13,-34 30,-52 c60,-66 65,-73 62,-85 c-2,-7 2,-13 8,-13 c6,0 16,-12 22,-26 c6,-14 26,-41 44,-60 c18,-19 31,-41 28,-49 c-3,-7 3,-18 15,-24 c11,-6 30,-29 42,-51 c13,-22 26,-40 31,-40 c4,0 8,-9 8,-20 c0,-11 5,-20 10,-20 c6,0 10,-7 10,-15 c0,-8 5,-15 10,-15 c6,0 10,-7 10,-15 c0,-8 4,-15 8,-15 c15,0 53,-41 47,-51 c-4,-5 -2,-9 3,-9 c10,0 50,-53 54,-71 c2,-7 10,-20 18,-29 c40,-43 70,-85 70,-97 c0,-7 5,-13 10,-13 c6,0 10,-7 10,-15 c0,-8 5,-15 10,-15 c6,0 10,-7 10,-15 c0,-8 5,-15 10,-15 c6,0 10,-5 10,-10 c0,-6 15,-25 32,-43 c30,-28 31,-32 13,-35 c-11,-3 -27,5 -40,19 c-11,13 -37,35 -58,49 c-20,14 -37,29 -37,33 c0,5 -5,5 -10,2 c-6,-3 -13,1 -16,9 c-3,9 -11,16 -18,16 c-6,0 -19,8 -29,17 c-9,10 -31,29 -48,43 c-16,14 -36,31 -44,38 c-7,6 -19,12 -25,12 c-6,0 -32,19 -58,43 c-26,23 -65,56 -87,72 c-22,16 -51,40 -65,52 c-14,13 -29,23 -33,23 c-5,0 -29,20 -54,45 c-24,25 -51,45 -59,45 c-8,0 -14,5 -14,10 c0,6 -6,10 -12,10 c-7,0 -28,16 -47,35 c-19,19 -39,35 -45,35 c-6,0 -19,8 -27,17 c-26,29 -78,73 -87,73 c-5,0 -28,18 -52,40 c-24,22 -47,40 -52,40 c-4,0 -13,9 -20,20 c-7,11 -21,20 -30,20 c-10,0 -23,9 -30,20 c-7,11 -18,20 -24,20 c-6,0 -19,11 -30,24 c-10,14 -22,23 -26,20 c-4,-3 -11,2 -14,10 c-3,9 -10,16 -16,16 c-10,0 -131,99 -136,111 c-2,5 -10,9 -17,9 c-7,0 -29,15 -48,34 c-20,19 -45,37 -56,41 c-12,3 -21,11 -21,16 c0,5 -5,9 -12,9 c-7,0 -22,12 -34,26 c-13,14 -24,24 -27,22 c-5,-4 -48,27 -91,64 c-17,15 -39,34 -48,42 c-9,8 -19,12 -22,9 c-3,-3 -8,2 -12,11 c-3,9 -11,16 -18,16 c-6,0 -27,14 -46,30 c-19,16 -41,35 -47,40 c-7,6 -13,8 -13,4 c0,-4 -9,2 -20,14 c-12,12 -25,22 -31,22 c-6,0 -7,4 -4,10 c3,5 -1,10 -9,10 c-9,0 -16,5 -16,10 c0,6 -6,10 -14,10 c-19,0 -144,92 -145,106 c-1,6 -13,14 -28,17 c-16,3 -47,22 -70,41 c-22,20 -46,36 -51,36 c-5,0 -12,7 -16,15 c-3,8 -14,15 -25,15 c-10,0 -33,16 -50,36 c-17,19 -35,33 -40,30 c-4,-3 -16,3 -26,14 c-10,11 -26,20 -36,20 c-11,0 -24,9 -31,20 c-7,11 -16,20 -20,20 c-5,0 -27,14 -50,30 c-22,17 -46,30 -52,30 c-7,0 -29,16 -49,35 c-20,19 -37,32 -37,29 c0,-3 -13,4 -29,15 c-16,12 -36,21 -45,21 c-9,0 -16,6 -16,14 c0,8 -13,17 -29,21 c-16,3 -35,13 -41,20 c-6,8 -27,19 -46,25 c-19,6 -34,16 -34,21 c0,5 -3,8 -8,7 c-4,-1 -55,22 -113,50 c-59,28 -119,54 -133,58 c-14,3 -29,10 -32,15 c-3,5 -10,7 -15,4 c-5,-4 -14,-3 -21,1 c-7,4 -26,9 -43,11 c-16,2 -43,6 -60,9 c-16,3 -41,7 -55,8 c-14,2 -29,4 -35,5 c-17,5 -128,2 -160,-3 c-47,-7 -137,-44 -169,-69 c-51,-39 -106,-94 -106,-105 c0,-6 -8,-17 -18,-24 c-24,-16 -42,-51 -42,-77 c0,-12 -4,-21 -10,-21 c-5,0 -10,-9 -10,-20 c0,-10 -7,-23 -16,-28 c-8,-5 -17,-17 -19,-28 c-2,-10 -4,-21 -5,-24 c-1,-3 -2,-8 -1,-12 c0,-5 -3,-8 -7,-8 c-10,0 -10,3 -14,-113 c-2,-48 -1,-90 2,-93 c3,-3 6,-10 6,-15 c1,-5 3,-11 4,-14 c4,-9 7,-24 9,-43 c0,-11 12,-32 26,-48 c14,-16 28,-46 31,-67 c4,-20 11,-40 15,-43 c5,-3 9,-14 9,-24 c0,-11 8,-24 19,-29 c20,-11 61,-82 61,-105 c0,-8 7,-16 15,-20 c8,-3 15,-11 15,-18 c0,-7 9,-19 20,-26 c11,-7 20,-20 20,-30 c0,-9 9,-23 20,-30 c11,-7 20,-18 20,-26 c0,-8 22,-38 50,-67 c27,-28 47,-55 45,-59 c-3,-4 6,-15 20,-24 c14,-9 25,-24 25,-32 c0,-9 17,-32 37,-51 c21,-19 38,-37 38,-41 c0,-4 9,-16 20,-28 c11,-11 27,-31 35,-43 c8,-13 26,-35 40,-49 c14,-15 53,-63 87,-107 c33,-44 77,-96 97,-114 c20,-19 36,-40 36,-45 c0,-6 17,-27 38,-47 c64,-63 157,-163 177,-192 c11,-16 31,-41 45,-56 c14,-16 39,-45 55,-65 c17,-20 56,-63 88,-95 c31,-32 57,-61 57,-64 c0,-10 26,-40 100,-116 c88,-91 233,-251 242,-265 c4,-7 44,-51 90,-97 c117,-120 154,-161 161,-181 c4,-10 11,-18 17,-18 c5,0 10,-4 10,-10 c0,-5 21,-31 48,-58 c71,-73 92,-98 92,-113 c0,-7 3,-9 7,-6 c3,4 22,-10 42,-31 c85,-91 141,-155 141,-164 c0,-11 80,-88 92,-88 c4,0 8,-8 8,-18 c0,-11 11,-24 25,-30 c13,-6 31,-24 39,-40 c8,-16 26,-37 40,-46 c22,-14 36,-46 21,-46 c-20,0 -107,57 -131,85 c-16,19 -35,35 -43,35 c-7,0 -33,20 -56,44 c-23,25 -45,43 -47,41 c-2,-3 -23,13 -46,35 c-23,22 -45,40 -49,40 c-4,0 -23,14 -42,30 c-18,17 -37,30 -41,30 c-4,0 -12,11 -18,25 c-7,15 -20,25 -32,25 c-11,0 -23,7 -27,16 c-3,8 -12,13 -20,10 c-8,-3 -11,-1 -8,4 c3,6 1,10 -4,10 c-6,0 -10,3 -9,8 c2,4 -1,9 -7,12 c-12,5 -41,29 -67,53 c-10,9 -22,17 -27,17 c-5,0 -19,12 -30,26 c-12,15 -21,23 -21,18 c0,-5 -6,-2 -13,6 c-7,9 -29,26 -49,38 c-20,13 -48,36 -62,53 c-14,16 -30,29 -36,29 c-6,0 -13,7 -16,15 c-4,8 -12,15 -18,15 c-7,0 -22,10 -34,23 c-12,12 -34,32 -49,44 c-16,12 -46,38 -68,57 c-22,20 -44,36 -48,36 c-5,0 -5,5 -2,10 c3,6 -1,10 -9,10 c-9,0 -16,5 -16,10 c0,6 -5,10 -11,10 c-6,0 -16,6 -23,13 c-7,6 -34,30 -60,52 c-26,22 -65,56 -86,75 c-46,43 -63,56 -70,56 c-7,-1 -34,21 -86,70 c-24,23 -46,39 -49,36 c-2,-3 -7,3 -11,12 c-3,9 -12,16 -20,16 c-8,0 -22,13 -33,30 c-10,16 -20,27 -24,24 c-3,-3 -10,4 -17,15 c-6,12 -16,21 -21,21 c-6,0 -20,11 -31,26 c-11,14 -22,23 -25,20 c-5,-5 -34,20 -115,97 c-28,26 -54,47 -59,47 c-5,0 -23,12 -39,28 c-16,15 -45,38 -65,52 c-19,14 -35,31 -35,38 c0,6 -6,12 -13,12 c-14,0 -80,55 -159,132 c-26,26 -48,44 -48,40 c0,-4 -7,2 -15,12 c-8,11 -15,17 -15,14 c0,-9 -42,27 -136,118 c-46,45 -86,79 -88,76 c-3,-3 -8,3 -12,12 c-3,9 -10,13 -15,11 c-4,-3 -52,37 -106,90 c-54,52 -103,95 -111,95 c-15,0 -92,74 -92,89 c0,6 -11,13 -25,17 c-14,3 -25,11 -25,17 c0,6 -3,7 -7,4 c-3,-4 -11,3 -17,15 c-6,12 -17,23 -23,26 c-10,3 -13,-41 -13,-197 l0,-201 l-440,0 c-303,0 -440,-3 -440,-11 c0,-5 4,-8 9,-5 c8,5 88,-62 90,-76 c1,-5 4,-9 9,-10 c10,-3 42,-29 67,-55 c12,-13 27,-23 33,-23 c5,0 24,-16 41,-35 c17,-20 31,-32 31,-28 c1,4 10,-3 20,-16 c11,-13 20,-20 20,-16 c0,3 15,-9 34,-27 c18,-18 39,-38 47,-44 c8,-6 23,-23 34,-37 c11,-15 39,-39 62,-54 c24,-15 43,-31 43,-36 c0,-4 4,-5 10,-2 c5,3 10,-1 10,-9 c0,-9 6,-16 13,-16 c8,0 25,-12 39,-27 c14,-16 36,-35 49,-43 c13,-8 40,-31 60,-50 c21,-19 48,-42 60,-50 c13,-8 43,-33 68,-56 c26,-22 54,-47 65,-55 c10,-8 39,-33 65,-56 c122,-109 158,-141 182,-159 c31,-23 152,-128 192,-166 c16,-16 35,-28 43,-28 c8,0 19,-11 24,-25 c5,-14 17,-25 25,-25 c9,0 18,-7 21,-15 c3,-8 14,-17 25,-20 c10,-4 19,-13 19,-21 c0,-8 7,-14 15,-14 c9,0 30,-15 48,-33 c17,-18 55,-51 82,-71 c28,-21 61,-50 75,-65 c14,-14 28,-26 30,-26 c5,-1 52,-39 81,-67 c10,-9 28,-22 40,-29 c29,-15 43,-26 90,-70 c22,-20 50,-44 64,-53 c14,-9 24,-20 22,-24 c-1,-4 3,-9 8,-11 c12,-6 30,-20 61,-48 c13,-12 24,-19 24,-15 c0,4 7,-2 15,-12 c8,-11 15,-17 15,-14 c0,3 19,-12 43,-34 c23,-21 55,-49 71,-61 c17,-12 48,-39 69,-59 c22,-21 46,-38 53,-38 c8,0 19,-9 26,-20 c7,-11 18,-20 23,-20 c6,0 27,-18 47,-39 c19,-21 45,-42 56,-46 c12,-3 29,-16 39,-28 c10,-12 41,-39 70,-60 c29,-21 63,-51 77,-68 c14,-16 31,-29 39,-29 c8,0 43,-28 78,-61 c35,-34 69,-62 75,-63 c5,-1 17,-7 25,-14 c46,-40 67,-55 89,-67 c14,-7 39,-28 57,-46 c42,-44 60,-59 72,-59 c6,0 14,-6 18,-13 c4,-6 27,-25 51,-41 c24,-16 47,-36 52,-45 c5,-9 11,-15 14,-13 c7,3 23,-9 62,-46 c14,-12 29,-22 34,-22 c6,0 10,-5 10,-11 c0,-5 5,-7 10,-4 c6,3 13,-1 16,-9 c3,-9 12,-16 20,-16 c8,0 14,-7 14,-15 c0,-9 11,-21 25,-27 c14,-6 25,-15 25,-20 c0,-4 3,-7 8,-6 c13,5 172,-118 172,-133 c0,-5 7,-9 15,-9 c9,0 18,-7 21,-15 c3,-8 15,-17 25,-20 c11,-4 31,-18 44,-31 c14,-14 25,-21 25,-17 c0,4 5,0 11,-9 c5,-10 19,-18 29,-18 c11,0 20,-4 20,-10 c0,-5 7,-10 15,-10 c8,0 20,-9 27,-20 c7,-11 37,-35 65,-52 c29,-18 53,-36 53,-41 c0,-4 5,-5 10,-2 c6,3 13,-1 16,-9 c3,-9 10,-13 15,-11 c4,3 14,-3 21,-15 c7,-11 19,-20 27,-20 c8,0 21,-7 30,-15 c37,-34 88,-71 124,-89 c20,-11 37,-26 37,-34 c0,-8 6,-12 15,-8 c8,3 20,-3 28,-14 c7,-10 25,-22 41,-26 c15,-3 33,-15 39,-25 c7,-11 18,-19 25,-19 c7,0 11,-4 8,-9 c-4,-5 7,-12 23,-16 c26,-5 66,-31 119,-75 c6,-6 12,-8 12,-5 c0,4 13,-3 29,-14 c16,-12 36,-21 45,-21 c9,0 16,-4 16,-10 c0,-5 5,-10 10,-10 c6,0 27,-11 48,-25 c20,-13 53,-30 72,-36 c19,-7 37,-15 40,-18 c11,-13 106,-55 125,-56 c11,0 25,-3 30,-6 c6,-4 31,-10 58,-13 c26,-4 47,-11 47,-16 c0,-4 10,-8 23,-8 c12,0 33,-3 47,-6 c14,-4 61,-6 105,-6 c44,1 88,1 97,1 c10,0 20,5 23,10 c4,5 11,7 16,4 c5,-4 9,-1 9,4 c0,6 8,11 19,11 c10,0 30,9 43,20 c14,10 28,17 30,14 c6,-5 119,109 148,148 c8,12 27,34 43,49 c15,15 27,34 27,43 c0,9 4,16 8,16 c8,0 47,76 47,91 c0,4 3,10 7,14 c3,4 4,18 2,32 c-3,15 -2,33 2,42 c9,22 10,72 2,77 c-4,3 -5,11 -1,19 c3,9 1,21 -4,28 c-5,6 -9,19 -8,27 c1,8 -3,24 -9,35 c-6,11 -11,23 -12,28 c-1,4 -2,8 -4,10 c-1,1 -3,9 -5,17 c-23,104 -44,154 -84,202 c-8,9 -21,36 -29,59 c-8,24 -27,55 -44,71 c-16,15 -27,32 -24,37 c3,5 -1,11 -9,15 c-8,3 -15,15 -15,26 c0,11 -9,28 -20,37 c-11,10 -20,20 -20,24 c0,4 -13,21 -30,39 c-16,18 -27,36 -24,41 c3,5 -2,12 -10,15 c-9,3 -16,15 -16,25 c0,11 -7,22 -15,25 c-8,4 -25,24 -37,45 c-12,21 -25,39 -30,39 c-4,0 -8,6 -8,13 c0,7 -12,22 -27,34 c-16,11 -35,33 -43,49 c-8,16 -28,42 -45,59 c-16,17 -41,46 -55,64 c-14,18 -31,39 -37,46 c-7,8 -13,16 -13,19 c0,3 -10,15 -23,28 c-12,13 -33,38 -47,56 c-14,18 -44,53 -67,79 c-24,25 -43,50 -43,55 c0,5 -11,21 -25,36 c-14,15 -25,33 -25,40 c0,7 -4,11 -8,8 c-5,-3 -15,4 -23,15 c-8,11 -44,52 -81,92 c-38,39 -68,76 -68,82 c0,5 -18,23 -40,38 c-22,16 -40,34 -40,41 c0,8 -19,29 -43,49 c-23,19 -49,47 -57,63 c-8,15 -33,47 -55,69 c-50,51 -129,139 -173,191 c-74,89 -51,81 -276,86 c-112,3 -212,9 -227,15 c-14,6 -43,14 -65,17 c-21,4 -40,11 -42,16 c-2,6 -11,10 -21,10 c-28,0 -193,113 -255,175 c-88,89 -176,224 -191,293 c-3,17 -10,32 -14,32 c-21,0 -31,192 -31,618 l0,452 l203,-2 l202,-3 l5,-425 c3,-234 9,-433 14,-442 c4,-10 15,-18 22,-18 c8,0 30,-15 49,-34 c18,-19 36,-32 39,-29 c3,3 8,-2 12,-11 c3,-9 10,-13 15,-11 c4,3 14,-3 21,-15 c7,-11 20,-20 29,-20 c8,0 25,-11 37,-25 c12,-14 26,-25 32,-25 c5,0 10,-6 10,-14 c0,-8 12,-17 27,-21 c15,-3 42,-22 61,-42 c18,-20 49,-46 68,-59 l35,-24 l779,0 l780,0 l0,-205 l0,-205 l-510,0 l-511,0 l18,-24 c10,-13 21,-22 26,-19 c4,2 10,-3 13,-11 c3,-9 12,-16 20,-16 c7,0 21,-11 29,-24 c9,-13 29,-29 45,-36 c17,-7 30,-16 30,-21 c0,-5 5,-9 12,-9 c6,0 26,-15 43,-32 c41,-42 62,-58 74,-58 c5,0 23,-13 41,-30 c18,-16 36,-30 41,-30 c5,0 12,-7 15,-15 c4,-8 10,-13 14,-10 c5,3 13,-2 18,-11 c5,-9 11,-14 13,-12 c5,3 25,-12 70,-54 c16,-14 29,-24 29,-20 c0,4 10,-3 23,-16 c20,-20 44,-41 95,-84 c11,-9 23,-14 26,-11 c3,3 8,-2 12,-11 c3,-9 10,-13 15,-10 c5,3 12,-2 15,-10 c3,-9 10,-16 15,-16 c8,0 38,-23 73,-55 c6,-6 28,-19 48,-28 c21,-10 44,-27 53,-40 c8,-12 15,-18 15,-13 c0,5 12,-3 26,-18 c15,-14 32,-26 39,-26 c7,0 26,-15 41,-32 c15,-18 27,-31 28,-30 c2,8 72,-35 98,-60 c15,-14 28,-24 28,-20 c0,3 12,-6 28,-20 c15,-14 37,-29 49,-32 c12,-4 31,-18 42,-32 c10,-13 24,-24 31,-24 c6,0 9,-4 6,-9 c-4,-5 7,-12 24,-16 c17,-4 38,-14 47,-23 c9,-9 20,-17 25,-17 c5,0 13,-7 18,-15 c5,-8 10,-11 10,-7 c0,5 12,-1 26,-12 c15,-12 33,-21 40,-21 c8,0 14,-4 14,-10 c0,-5 7,-10 15,-10 c9,0 18,-7 21,-15 c4,-8 10,-13 14,-10 c5,3 15,-4 24,-16 c8,-12 19,-18 25,-14 c6,3 11,2 11,-3 c0,-5 28,-19 63,-32 c34,-12 67,-26 73,-31 c32,-26 134,-49 219,-51 c94,-1 198,18 188,35 c-4,6 0,8 9,4 c9,-3 21,0 27,6 c6,6 11,7 11,3 c0,-5 7,-3 15,4 c9,7 18,10 21,8 c8,-8 144,60 144,72 c0,5 7,10 15,10 c8,0 14,6 13,12 c-2,7 3,12 10,10 c6,-1 12,2 12,7 c0,4 17,30 38,57 c43,56 60,88 66,124 c3,14 5,26 6,28 c2,3 2,171 -1,177 c-1,3 -3,10 -4,15 c-1,6 -3,11 -4,13 c-2,1 -4,13 -7,27 c-2,14 -7,32 -11,40 c-3,8 -8,24 -10,35 c-3,11 -6,25 -7,30 c-2,6 -6,24 -11,40 c-4,17 -16,42 -26,57 c-11,14 -19,31 -19,37 c0,16 -86,179 -101,191 c-4,3 -9,15 -13,26 c-4,12 -14,31 -24,42 c-34,41 -57,76 -55,84 c2,4 -1,8 -7,8 c-5,0 -20,22 -33,50 c-13,27 -36,59 -50,70 c-15,12 -24,27 -21,35 c3,7 -4,22 -15,32 c-12,9 -21,22 -21,28 c0,6 -9,16 -20,23 c-11,7 -20,20 -20,30 c0,9 -11,26 -25,36 c-14,10 -25,25 -25,32 c0,7 -9,18 -20,24 c-11,6 -20,17 -20,25 c0,8 -7,23 -16,33 c-24,27 -84,121 -84,131 c0,5 -4,11 -8,13 c-4,2 -21,21 -37,43 c-17,22 -36,44 -42,48 c-7,4 -13,15 -13,23 c0,8 -9,22 -20,31 c-11,10 -20,21 -20,25 c0,5 -8,16 -17,27 c-28,30 -53,64 -53,73 c0,9 -14,28 -43,57 c-10,10 -27,35 -38,56 c-11,21 -36,53 -55,73 c-19,19 -34,41 -34,49 c0,7 -4,13 -9,13 c-5,0 -12,8 -15,18 c-3,10 -26,40 -51,67 c-25,28 -45,57 -45,66 c0,9 -6,19 -13,22 c-7,3 -31,31 -53,63 c-21,33 -45,63 -51,67 c-7,4 -13,13 -13,20 c0,7 -9,18 -20,25 c-11,7 -20,21 -20,32 c0,11 -4,20 -8,20 c-4,0 -15,13 -25,29 c-9,16 -30,43 -47,61 c-16,18 -30,38 -30,44 c0,7 -11,23 -25,36 c-28,26 -33,50 -10,50 c16,0 27,-8 66,-42 c10,-10 19,-15 19,-10 c1,4 9,-3 18,-14 c10,-12 32,-29 49,-38 c17,-8 41,-28 52,-42 c12,-15 21,-23 21,-18 c0,5 6,2 13,-7 c7,-9 22,-19 34,-23 c12,-4 36,-20 52,-35 c17,-16 32,-26 35,-24 c3,3 11,-4 18,-16 c7,-12 17,-21 23,-21 c5,0 24,-12 40,-28 c32,-28 59,-47 84,-59 c8,-4 29,-22 47,-40 c18,-18 37,-33 43,-33 c6,0 11,-5 11,-12 c0,-6 3,-8 6,-5 c10,10 64,-25 64,-41 c0,-7 4,-11 8,-8 c5,3 20,-6 35,-20 c14,-13 30,-24 35,-24 c5,0 29,-18 52,-40 c23,-22 49,-40 57,-40 c7,0 16,-7 19,-15 c4,-8 14,-15 24,-15 c10,0 35,-15 54,-34 c20,-18 37,-31 39,-29 c2,2 12,-6 22,-17 c10,-11 25,-20 34,-20 c20,-1 51,-24 51,-39 c0,-6 7,-11 15,-11 c8,0 15,-4 15,-9 c0,-5 8,-12 18,-15 c10,-4 34,-20 53,-36 c19,-16 39,-34 46,-40 c7,-6 16,-9 20,-8 c13,4 93,-51 93,-64 c0,-6 3,-8 7,-5 c3,4 21,-4 39,-18 c18,-14 37,-25 42,-25 c5,0 22,-12 38,-28 c16,-15 32,-28 36,-30 c26,-8 84,-38 86,-45 c2,-4 8,-5 13,-2 c4,3 14,-3 21,-15 c7,-11 18,-20 25,-20 c7,0 13,-4 13,-10 c0,-5 7,-10 15,-10 c8,0 15,-5 15,-11 c0,-5 4,-8 9,-5 c10,7 71,-23 83,-39 c5,-7 8,-7 8,0 c0,6 7,1 15,-9 c8,-11 15,-16 15,-12 c0,4 15,-4 33,-18 c19,-15 44,-26 55,-26 c12,0 22,-4 22,-10 c0,-5 7,-10 15,-10 c16,0 96,-37 105,-49 c3,-3 22,-7 43,-9 c22,-1 62,-13 90,-27 l52,-24 l5,547 c5,493 7,551 23,586 c9,21 17,46 17,56 c0,23 88,138 145,188 c51,44 123,85 200,113 c28,10 44,18 38,18 c-7,1 -13,8 -13,16 c0,8 -4,15 -10,15 c-5,0 -12,11 -16,25 c-3,14 -10,25 -15,25 c-5,0 -9,4 -9,10 c0,10 -41,77 -64,102 c-9,10 -11,20 -6,23 c6,4 10,2 10,-4 c0,-5 16,-15 35,-22 c19,-7 35,-16 35,-20 c0,-3 18,-9 39,-13 c22,-3 41,-13 45,-22 c3,-9 13,-14 21,-10 c8,3 17,1 19,-3 c3,-5 26,-14 51,-21 c25,-7 45,-17 45,-21 c0,-5 4,-9 9,-9 c5,0 37,-16 71,-35 l61,-35 l177,-2 l177,-3 l3,-63 c2,-48 7,-64 20,-69 c9,-4 19,-10 22,-13 c6,-9 108,-31 138,-31 c12,1 22,-4 22,-9 c0,-5 7,-7 15,-4 c8,4 15,2 15,-3 c0,-5 6,-10 13,-11 c15,-1 52,-10 52,-12 c0,-3 51,-10 74,-10 c14,0 28,-6 33,-12 c6,-10 8,-10 8,0 c0,10 5,9 23,-2 c17,-12 55,-14 187,-11 c91,2 186,8 212,14 c45,10 98,30 108,41 c3,3 26,16 52,28 c25,13 54,30 65,38 c10,8 34,27 54,42 c93,69 181,145 195,167 c9,13 23,27 32,30 c10,3 30,22 45,43 c15,20 43,48 62,62 c19,14 35,30 35,36 c0,14 127,145 168,173 c17,12 32,28 32,36 c0,15 85,93 115,105 c51,21 62,24 90,26 c17,1 37,4 45,7 c8,4 35,9 60,12 c25,4 59,9 75,11 c17,3 39,6 50,8 c11,2 28,6 38,11 c10,4 31,2 48,-5 c24,-10 35,-10 57,0 c15,7 35,12 45,11 c10,-1 24,2 30,8 c7,5 39,10 72,11 c33,1 92,3 130,5 c39,2 141,5 227,8 c86,3 174,10 195,16 c21,5 67,10 103,11 c184,5 249,8 257,13 c4,3 95,5 201,5 c106,0 196,2 199,6 c3,3 12,1 20,-5 c10,-9 13,-8 13,1 c0,8 11,11 30,8 c17,-3 33,-1 36,4 c3,5 10,6 15,3 c5,-4 9,-1 9,4 c0,6 6,11 13,11 c69,1 250,163 263,235 c1,6 3,15 4,20 c1,6 2,13 1,18 c0,4 4,7 10,7 c6,0 9,7 6,15 c-4,8 -2,17 4,20 c5,4 7,11 4,16 c-4,5 -2,9 2,9 c5,0 8,19 7,43 c-1,23 -3,42 -4,42 c0,0 -3,17 -5,39 c-2,21 -9,43 -14,50 c-5,6 -9,14 -9,19 c-1,24 -15,67 -23,67 c-5,0 -9,6 -9,13 c0,23 -125,142 -175,167 c-28,14 -53,30 -57,35 c-4,6 -8,6 -8,1 c0,-5 -6,-3 -13,3 c-8,6 -17,8 -20,5 c-3,-4 -14,-3 -24,1 c-38,16 -103,20 -160,9 c-18,-3 -45,-2 -60,4 c-16,5 -37,6 -48,2 z" id="svg_5" fill="#8ae98a" fill-opacity="1"/>
 <path d="M10211.14111328125,3960 c-58,-13 -80,-35 -92,-90 c-7,-33 -11,-218 -11,-515 l0,-464 l47,14 c26,8 51,21 55,30 c5,8 13,13 18,10 c6,-3 20,3 32,14 c12,12 26,21 30,21 c5,0 7,4 4,9 c-3,5 14,26 37,47 c29,26 50,56 63,93 c10,29 33,69 51,88 c31,32 38,46 34,67 c-1,4 4,15 10,22 c18,22 22,197 5,229 c-8,15 -13,45 -12,66 c2,22 0,42 -5,44 c-4,3 -6,14 -4,25 c2,11 0,20 -6,20 c-5,0 -8,3 -8,8 c1,4 0,10 -1,15 c-1,4 -3,10 -4,15 c-1,4 -8,18 -16,32 c-8,14 -16,36 -18,50 c-2,14 -7,29 -13,35 c-5,5 -9,19 -9,32 c0,13 -10,39 -22,58 c-22,33 -26,35 -78,34 c-30,-1 -70,-4 -87,-9 z" id="svg_6" fill="#8ae98a" fill-opacity="1"/>
 <path d="M5329.14111328125,3406 c-1,-26 61,-107 119,-156 c28,-23 50,-39 50,-36 c0,13 -24,56 -32,56 c-4,0 -22,14 -40,30 c-17,17 -28,30 -24,30 c4,0 -7,12 -24,27 c-18,14 -36,36 -40,47 c-8,19 -9,19 -9,2 z" id="svg_7" fill="#8ae98a" fill-opacity="1"/>
 </g></g></svg>