<?xml version="1.0" encoding="UTF-8" standalone="no"?>
<svg
   xmlns:dc="http://purl.org/dc/elements/1.1/"
   xmlns:cc="http://creativecommons.org/ns#"
   xmlns:rdf="http://www.w3.org/1999/02/22-rdf-syntax-ns#"
   xmlns:svg="http://www.w3.org/2000/svg"
   xmlns="http://www.w3.org/2000/svg"
   xmlns:sodipodi="http://sodipodi.sourceforge.net/DTD/sodipodi-0.dtd"
   xmlns:inkscape="http://www.inkscape.org/namespaces/inkscape"
   width="512"
   height="512"
   viewBox="0 0 135.46666 135.46666"
   version="1.1"
   id="svg8"
   inkscape:version="1.0.1 (c497b03c, 2020-09-10)"
   sodipodi:docname="bell.svg">
  <defs
     id="defs2" />
  <sodipodi:namedview
     id="base"
     pagecolor="#ffffff"
     bordercolor="#666666"
     borderopacity="1.0"
     inkscape:pageopacity="0.0"
     inkscape:pageshadow="2"
     inkscape:zoom="0.55591546"
     inkscape:cx="179.44918"
     inkscape:cy="448.16949"
     inkscape:document-units="mm"
     inkscape:current-layer="layer1"
     inkscape:document-rotation="0"
     showgrid="false"
     units="px"
     inkscape:window-width="1434"
     inkscape:window-height="943"
     inkscape:window-x="0"
     inkscape:window-y="25"
     inkscape:window-maximized="0" />
  <metadata
     id="metadata5">
    <rdf:RDF>
      <cc:Work
         rdf:about="">
        <dc:format>image/svg+xml</dc:format>
        <dc:type
           rdf:resource="http://purl.org/dc/dcmitype/StillImage" />
        <dc:title></dc:title>
      </cc:Work>
    </rdf:RDF>
  </metadata>
  <g
     inkscape:label="Calque 1"
     inkscape:groupmode="layer"
     id="layer1">
    <path
       style="fill:#000000;stroke-width:0.13809;stroke:none"
       d="m 35.627322,135.31257 c -8.723873,-0.5136 -16.485235,-2.63213 -21.265917,-5.80471 -1.358412,-0.90147 -3.430746,-2.95417 -4.053589,-4.01518 -2.0206312,-3.44211 -2.7894796,-9.05055 -1.7542134,-12.79627 0.4866951,-1.76092 1.0636268,-3.04836 2.8221774,-6.29777 2.310308,-4.26895 3.000526,-6.14628 3.343207,-9.093236 0.324701,-2.792327 0.04271,-4.870811 -1.464118,-10.791783 C 9.5855218,72.09522 7.6743067,62.462957 6.8844556,54.407609 6.5573203,51.071298 6.5566451,45.244566 6.8830794,42.531836 8.1856067,31.70759 12.771352,23.841991 22.783863,15.258367 c 2.937054,-2.517908 3.729608,-3.394637 4.560832,-5.04523 0.544762,-1.0817541 0.804324,-2.0286507 1.096215,-3.99907 0.300384,-2.0277499 0.53316,-2.6367438 1.349081,-3.5294915 1.273347,-1.3932448 4.513643,-2.66283877 6.408067,-2.51077252 1.122703,0.0901198 1.854267,0.45869555 3.15936,1.59174352 1.75086,1.5200529 2.576195,2.1224256 3.450604,2.5184353 1.694501,0.7674196 2.268615,0.8441023 7.249744,0.9683271 2.544315,0.063453 5.527067,0.2164978 6.628338,0.3400998 13.398268,1.5037654 22.013711,7.2544943 30.722033,20.5066723 3.857306,5.869985 8.141267,13.931231 13.958593,26.266254 1.38656,2.940059 2.81312,5.836612 3.17013,6.436786 1.34449,2.260247 2.95279,4.094901 4.84041,5.521655 1.21407,0.917651 4.22442,2.412409 6.89483,3.423548 3.69998,1.400982 5.65995,2.508805 7.45451,4.213466 2.34676,2.229186 4.56999,6.416893 5.05406,9.519887 0.88794,5.691834 -3.49086,14.226078 -11.5355,22.482583 -19.534342,20.0488 -53.296193,33.01669 -81.617848,31.34931 z m 12.428134,-11.16346 c 8.424798,-0.71245 15.763111,-2.22463 23.751544,-4.89441 5.199822,-1.7378 9.097482,-3.38669 14.361399,-6.07553 6.643053,-3.39332 12.328207,-7.13344 17.951751,-11.81002 2.61497,-2.174629 7.61013,-7.161725 9.34699,-9.331914 2.52934,-3.160372 4.39215,-6.298009 4.61284,-7.769657 0.32973,-2.198802 -3.19393,-4.609981 -8.30161,-5.680644 -8.44662,-1.770565 -20.754395,-0.65209 -34.069744,3.096105 -14.10333,3.970009 -28.024541,10.050614 -38.000438,16.598103 -9.641029,6.327707 -16.451131,13.465597 -17.905699,18.767537 -0.406337,1.48111 -0.330671,2.65261 0.207618,3.21447 1.716253,1.79138 8.797109,3.49814 16.652893,4.01399 2.222938,0.14597 9.061167,0.0691 11.392456,-0.12803 z m -6.283112,-10.37938 c -2.497813,-0.28701 -5.347137,-1.13176 -7.07315,-2.097 -1.06616,-0.59623 -2.593176,-1.70275 -2.593176,-1.87909 0,-0.12078 1.596463,-1.43969 3.383214,-2.79502 1.223113,-0.92778 4.87885,-3.38228 6.697383,-4.49669 7.444226,-4.561866 17.15762,-9.017616 26.889612,-12.334863 1.10449,-0.376477 2.028437,-0.684503 2.053216,-0.684503 0.16571,0 0.634625,2.080065 0.702765,3.117404 0.422234,6.427903 -4.774879,13.523102 -12.98063,17.721412 -5.42828,2.77728 -11.772253,4.05814 -17.079234,3.44835 z"
       id="path1644" />
  </g>
</svg>
